<?xml version="1.0" encoding="iso-8859-1"?>
<!-- Generator: Adobe Illustrator 19.0.0, SVG Export Plug-In . SVG Version: 6.00 Build 0)  -->
<svg version="1.1" id="Layer_1" xmlns="http://www.w3.org/2000/svg" xmlns:xlink="http://www.w3.org/1999/xlink" x="0px" y="0px"
	 viewBox="0 0 496 496" style="enable-background:new 0 0 496 496;" xml:space="preserve">
<g>
	<g>
		<g>
			<path d="M40,160c17.872,0,33.704-10.72,40.344-27.32c3.624-9.064,11.016-16.04,20.288-19.128l26.624-8.864l-38-15.2
				C73.52,83.192,56.952,80,40,80C17.944,80,0,97.944,0,120C0,142.056,17.944,160,40,160z M40,96c14.904,0,29.48,2.808,43.312,8.344
				l0.112,0.04c-7.992,5.44-14.272,13.176-17.944,22.36C61.296,137.224,51.288,144,40,144c-13.232,0-24-10.768-24-24
				S26.768,96,40,96z"/>
			<path d="M131.32,80.344c9.064,3.624,16.04,11.016,19.128,20.288l10.144,30.464l20.928-73.344C183.168,51.976,184,46.008,184,40
				c0-22.056-17.944-40-40-40c-22.056,0-40,17.944-40,40C104,57.872,114.72,73.704,131.32,80.344z M144,16c13.232,0,24,10.768,24,24
				c0,4.52-0.632,9.008-1.864,13.344l-8,28.024c-5.328-7.008-12.504-12.536-20.88-15.888C126.776,61.296,120,51.288,120,40
				C120,26.768,130.768,16,144,16z"/>
			<path d="M231.656,132.68C238.296,149.28,254.128,160,272,160c22.056,0,40-17.944,40-40c0-22.056-17.944-40-40-40
				c-16.952,0-33.52,3.192-49.256,9.488l-38,15.2l26.624,8.864C220.64,116.648,228.032,123.616,231.656,132.68z M228.688,104.336
				C242.52,98.808,257.096,96,272,96c13.232,0,24,10.768,24,24s-10.768,24-24,24c-11.288,0-21.296-6.776-25.488-17.256
				c-3.672-9.184-9.952-16.92-17.944-22.36L228.688,104.336z"/>
			<path d="M496,368c0-70.576-57.424-128-128-128H212.952l-4.304-56H224v-48H96v48h15.36L88.592,480H0v16h87.36h145.28H464v-16
				h-34.168C469.24,458.152,496,416.16,496,368z M209.248,400.6l-92.432-78.976l4.272-55.456l83.24,70.432L209.248,400.6z
				 M197.656,249.88l4.944,64.312l-80-67.696l4.2-54.592L197.656,249.88z M142.408,184h50.176l3.376,43.816L142.408,184z M112,152
				h96v16h-0.592h-94.816H112V152z M104.64,480l4.896-63.608L184.712,480H104.64z M209.48,480l-98.432-83.288l4.256-55.344
				l95.68,81.76L215.36,480H209.48z M231.408,480l-17.232-224h91.992C266.76,277.848,240,319.84,240,368
				c0,48.16,26.76,90.152,66.168,112H231.408z M256,368c0-61.76,50.24-112,112-112s112,50.24,112,112s-50.24,112-112,112
				S256,429.76,256,368z"/>
			<path d="M368,328c-22.056,0-40,17.944-40,40c0,22.056,17.944,40,40,40c22.056,0,40-17.944,40-40C408,345.944,390.056,328,368,328
				z M368,392c-13.232,0-24-10.768-24-24s10.768-24,24-24s24,10.768,24,24S381.232,392,368,392z"/>
			<path d="M438.896,404.952c2.176-4.16,3.976-8.488,5.376-12.952H464v-48h-19.728c-1.408-4.464-3.2-8.792-5.376-12.952l13.96-13.96
				l-33.944-33.944l-13.96,13.96c-4.16-2.176-8.488-3.976-12.952-5.376V272h-48v19.728c-4.464,1.408-8.792,3.2-12.952,5.376
				l-13.96-13.96l-33.944,33.944l13.96,13.96c-2.176,4.16-3.976,8.488-5.376,12.952H272v48h19.728
				c1.408,4.464,3.2,8.792,5.376,12.952l-13.96,13.96l33.944,33.944l13.96-13.96c4.16,2.176,8.488,3.976,12.952,5.376V464h48
				v-19.728c4.464-1.408,8.792-3.2,12.952-5.376l13.96,13.96l33.944-33.944L438.896,404.952z M430.352,382.224
				c-1.592,7-4.352,13.656-8.216,19.784l-3.4,5.408l11.496,11.496l-11.32,11.32l-11.496-11.496l-5.408,3.4
				c-6.128,3.864-12.784,6.624-19.784,8.216L376,431.768V448h-16v-16.232l-6.224-1.416c-7-1.592-13.656-4.352-19.784-8.216
				l-5.408-3.4l-11.496,11.496l-11.32-11.32l11.496-11.496l-3.4-5.408c-3.864-6.128-6.624-12.784-8.216-19.784L304.232,376H288v-16
				h16.232l1.416-6.224c1.592-7,4.352-13.656,8.216-19.784l3.4-5.408l-11.496-11.496l11.32-11.32l11.496,11.496l5.408-3.4
				c6.128-3.864,12.784-6.624,19.784-8.216l6.224-1.416V288h16v16.232l6.224,1.416c7,1.592,13.656,4.352,19.784,8.216l5.408,3.4
				l11.496-11.496l11.32,11.32l-11.496,11.496l3.4,5.408c3.864,6.128,6.624,12.784,8.216,19.784l1.416,6.224H448v16h-16.232
				L430.352,382.224z"/>
			<rect x="480" y="480" width="16" height="16"/>
		</g>
	</g>
</g>
<g>
</g>
<g>
</g>
<g>
</g>
<g>
</g>
<g>
</g>
<g>
</g>
<g>
</g>
<g>
</g>
<g>
</g>
<g>
</g>
<g>
</g>
<g>
</g>
<g>
</g>
<g>
</g>
<g>
</g>
</svg>
