<?xml version="1.0" encoding="iso-8859-1"?>
<!-- Generator: Adobe Illustrator 19.0.0, SVG Export Plug-In . SVG Version: 6.00 Build 0)  -->
<svg version="1.1" id="Layer_1" xmlns="http://www.w3.org/2000/svg" xmlns:xlink="http://www.w3.org/1999/xlink" x="0px" y="0px"
	 viewBox="0 0 496 496" style="enable-background:new 0 0 496 496;" xml:space="preserve">
<g>
	<g>
		<g>
			<path d="M464,432h-56c-8.824,0-16-7.176-16-16c0-8.824,7.176-16,16-16h32c17.648,0,32-14.352,32-32s-14.352-32-32-32H320v-32h16
				v-16h-16V160h16v-16h-16V16h16V0H0v16h16v128H0v16h16v128H0v16h16v128H0v16h88.808c3.72,18.232,19.872,32,39.192,32h57.368
				c3.304,9.312,12.2,16,22.632,16h256c17.648,0,32-14.352,32-32S481.648,432,464,432z M32,16h272v128H192.936L168,105.2
				L143.064,144H32V16z M235.288,209.888L203.224,160H304v128h-62.728c4.304-9.808,6.728-20.624,6.728-32v-2.848
				C248,237.776,243.608,222.816,235.288,209.888z M232,253.152V256c0,35.288-28.712,64-64,64c-35.288,0-64-28.712-64-64v-2.848
				c0-12.296,3.512-24.264,10.168-34.608L168,134.8l53.832,83.744C228.488,228.88,232,240.848,232,253.152z M32,160h100.776
				l-32.064,49.88C92.392,222.816,88,237.776,88,253.152V256c0,11.376,2.424,22.192,6.728,32H32V160z M32,432V304h72v-0.208
				C118.6,323.296,141.816,336,168,336s49.4-12.704,64-32.208V304h72v128H32z M464,480H208c-4.416,0-8-3.584-8-8v-8h-72
				c-10.416,0-19.216-6.712-22.528-16H336v-16h-16v-80h120c8.824,0,16,7.176,16,16c0,8.824-7.176,16-16,16h-32
				c-17.648,0-32,14.352-32,32s14.352,32,32,32h56c8.824,0,16,7.176,16,16C480,472.824,472.824,480,464,480z"/>
			<rect x="336" y="368" width="16" height="16"/>
			<rect x="336" y="400" width="16" height="16"/>
			<rect x="272" y="400" width="16" height="16"/>
			<rect x="240" y="400" width="16" height="16"/>
		</g>
	</g>
</g>
<g>
</g>
<g>
</g>
<g>
</g>
<g>
</g>
<g>
</g>
<g>
</g>
<g>
</g>
<g>
</g>
<g>
</g>
<g>
</g>
<g>
</g>
<g>
</g>
<g>
</g>
<g>
</g>
<g>
</g>
</svg>
