<?xml version="1.0" encoding="iso-8859-1"?>
<!-- Generator: Adobe Illustrator 19.0.0, SVG Export Plug-In . SVG Version: 6.00 Build 0)  -->
<svg version="1.1" id="Layer_1" xmlns="http://www.w3.org/2000/svg" xmlns:xlink="http://www.w3.org/1999/xlink" x="0px" y="0px"
	 viewBox="0 0 496 496" style="enable-background:new 0 0 496 496;" xml:space="preserve">
<g>
	<g>
		<g>
			<path d="M160,0H64v36.688l-64,64v149.2l16,32v92.216l-16,32V464c0,17.648,14.352,32,32,32h160c17.648,0,32-14.352,32-32v-57.888
				l-16-32v-92.224l16-32v-149.2l-64-64V0z M80,16h64v16H80V16z M208,107.312V120h-16v16h16v32h-16v16h16v32h-16v16h16v14.112
				l-16,32v99.784l16,32V464c0,8.824-7.176,16-16,16H32c-8.824,0-16-7.176-16-16v-54.112l16-32v-99.776l-16-32V232h160v-16H16v-32
				h160v-16H16v-32h160v-16H16v-12.688L75.312,48h73.376L208,107.312z"/>
			<path d="M432,204.688V168h-96v36.688l-64,64V464c0,17.648,14.352,32,32,32h160c17.648,0,32-14.352,32-32V268.688L432,204.688z
				 M352,184h64v16h-64V184z M480,288h-16v16h16v32h-16v16h16v32h-16v16h16v32h-16v16h16v16c0,8.824-7.176,16-16,16H304
				c-8.824,0-16-7.176-16-16v-16h160v-16H288v-32h160v-16H288v-32h160v-16H288v-32h160v-16H288v-12.688L347.312,216h73.376
				L480,275.312V288z"/>
			<path d="M112,266.664L67.2,326.4C59.984,336.024,56,347.952,56,360c0,30.872,25.12,56,56,56s56-25.128,56-56
				c0-12.048-3.984-23.976-11.2-33.592L112,266.664z M112,400c-22.056,0-40-17.944-40-40c0-8.6,2.84-17.128,8-24l32-42.664
				l32,42.672c5.16,6.864,8,15.392,8,23.992C152,382.056,134.056,400,112,400z"/>
		</g>
	</g>
</g>
<g>
</g>
<g>
</g>
<g>
</g>
<g>
</g>
<g>
</g>
<g>
</g>
<g>
</g>
<g>
</g>
<g>
</g>
<g>
</g>
<g>
</g>
<g>
</g>
<g>
</g>
<g>
</g>
<g>
</g>
</svg>
