<?xml version="1.0" encoding="iso-8859-1"?>
<!-- Generator: Adobe Illustrator 19.0.0, SVG Export Plug-In . SVG Version: 6.00 Build 0)  -->
<svg version="1.1" id="Layer_1" xmlns="http://www.w3.org/2000/svg" xmlns:xlink="http://www.w3.org/1999/xlink" x="0px" y="0px"
	 viewBox="0 0 496 496" style="enable-background:new 0 0 496 496;" xml:space="preserve">
<g>
	<g>
		<g>
			<rect x="480" y="480" width="16" height="16"/>
			<path d="M440,444c0-28.672-23.328-52-52-52s-52,23.328-52,52c0,13.968,5.568,26.648,14.568,36H145.432
				c9-9.352,14.568-22.032,14.568-36c0-28.672-23.328-52-52-52s-52,23.328-52,52c0,13.968,5.568,26.648,14.568,36H0v16h464v-16
				h-38.568C434.432,470.648,440,457.968,440,444z M108,480c-19.848,0-36-16.152-36-36c0-19.848,16.152-36,36-36s36,16.152,36,36
				C144,463.848,127.848,480,108,480z M388,480c-19.848,0-36-16.152-36-36c0-19.848,16.152-36,36-36c19.848,0,36,16.152,36,36
				C424,463.848,407.848,480,388,480z"/>
			<path d="M480,328h-59.232C465.424,304.576,496,257.824,496,204c0-75.848-60.664-137.656-136-139.8V48h16V32h-16h-24.808
				C331.472,13.768,315.312,0,296,0s-35.472,13.768-39.192,32H232h-16v16h16v16h-24V48h-16v16h-40V48h-16v16.2
				C60.664,66.344,0,128.152,0,204c0,53.824,30.576,100.576,75.232,124H16v-16H0v16v16v32h496v-32v-16v-16h-16V328z M296,16
				c10.416,0,19.216,6.712,22.528,16H273.48C276.784,22.712,285.584,16,296,16z M248,48h96v16h-96V48z M152,80h40v32h-40V80z
				 M152,128h40v32h-40V128z M152,176h40v32h-40V176z M152,224h40v32h-40V224z M16,204c0-67.024,53.488-121.664,120-123.8V312h16
				v-40h40v40h16V80h24h124c68.376,0,124,55.624,124,124s-55.624,124-124,124H140C71.624,328,16,272.376,16,204z M480,360H16v-16
				h124h216h124V360z"/>
			<rect x="232" y="96" width="16" height="16"/>
			<rect x="264" y="96" width="16" height="16"/>
			<rect x="296" y="96" width="16" height="16"/>
			<rect x="328" y="96" width="16" height="16"/>
			<rect x="360" y="96" width="16" height="16"/>
		</g>
	</g>
</g>
<g>
</g>
<g>
</g>
<g>
</g>
<g>
</g>
<g>
</g>
<g>
</g>
<g>
</g>
<g>
</g>
<g>
</g>
<g>
</g>
<g>
</g>
<g>
</g>
<g>
</g>
<g>
</g>
<g>
</g>
</svg>
