<?xml version="1.0" encoding="UTF-8"?>
<svg width="19px" height="24px" viewBox="0 0 19 24" version="1.1" xmlns="http://www.w3.org/2000/svg" xmlns:xlink="http://www.w3.org/1999/xlink">
    <!-- Generator: Sketch 43.1 (39012) - http://www.bohemiancoding.com/sketch -->
    <title>about us</title>
    <desc>Created with Sketch.</desc>
    <defs></defs>
    <g id="Page-1" stroke="none" stroke-width="1" fill="none" fill-rule="evenodd" opacity="0.5">
        <g id="menu" transform="translate(-18.000000, -187.000000)" fill-rule="nonzero" fill="#FFFFFF">
            <g id="about-us" transform="translate(18.000000, 187.000000)">
                <path d="M18.3158031,6.23209877 L3.76062176,6.23209877 C2.4119171,6.23209877 1.30932642,5.1308642 1.30932642,3.77283951 C1.30932642,2.41975309 2.40699482,1.31358025 3.76062176,1.31358025 L18.3207254,1.31358025 C18.6849741,1.31358025 18.9753886,1.01728395 18.9753886,0.656790123 C18.9753886,0.291358025 18.6800518,0 18.3207254,0 L3.76062176,0 C1.68834197,-3.50885302e-16 0,1.69382716 0,3.77283951 L0,20.2024691 C0,22.2814815 1.68834197,23.9753086 3.76062176,23.9753086 L18.3207254,23.9753086 C18.6849741,23.9753086 18.9753886,23.6790123 18.9753886,23.3185185 L18.9753886,6.88888889 C18.9704663,6.52839506 18.6800518,6.23209877 18.3158031,6.23209877 Z M17.6611399,22.6617284 L3.76062176,22.6617284 C2.4119171,22.6617284 1.30932642,21.5604938 1.30932642,20.2024691 L1.30932642,6.63703704 C1.96891192,7.20493827 2.8253886,7.55061728 3.76062176,7.55061728 L17.6611399,7.55061728 L17.6611399,22.6617284 L17.6611399,22.6617284 Z" id="Shape"></path>
                <path d="M3.96735751,3.17530864 C3.60310881,3.17530864 3.3126943,3.47160494 3.3126943,3.83209877 C3.3126943,4.19259259 3.60803109,4.48888889 3.96735751,4.48888889 L16.2632124,4.48888889 C16.6274611,4.48888889 16.9178756,4.19259259 16.9178756,3.83209877 C16.9178756,3.47160494 16.6225389,3.17530864 16.2632124,3.17530864 L3.96735751,3.17530864 Z" id="Shape"></path>
                <path d="M6.27098446,19.7876543 C6.34481865,19.8123457 6.41865285,19.8271605 6.49248705,19.8271605 C6.76321244,19.8271605 7.0142487,19.6592593 7.10777202,19.3925926 L7.90518135,17.1555556 L10.9766839,17.1555556 C11.0012953,17.1555556 11.030829,17.1555556 11.0554404,17.1506173 L11.8528497,19.3925926 C11.9463731,19.6592593 12.2023316,19.8271605 12.4681347,19.8271605 C12.5419689,19.8271605 12.6158031,19.8123457 12.6896373,19.7876543 C13.0292746,19.6641975 13.2064767,19.2888889 13.0834197,18.9481481 L10.1005181,10.5580247 L10.1005181,10.5580247 C10.0955959,10.5382716 10.0857513,10.5185185 10.0759067,10.4987654 C10.0709845,10.4888889 10.0660622,10.4790123 10.0611399,10.4691358 C10.0562176,10.4592593 10.0512953,10.4493827 10.0463731,10.4395062 C10.0414508,10.4296296 10.0316062,10.4197531 10.0266839,10.4049383 C10.0217617,10.4 10.0168394,10.3901235 10.0119171,10.3851852 C10.0069948,10.3753086 9.99715026,10.3654321 9.9873057,10.3555556 C9.98238342,10.3506173 9.97746114,10.3407407 9.96761658,10.3358025 C9.9626943,10.3259259 9.95284974,10.3209877 9.94300518,10.3111111 C9.93316062,10.3012346 9.92823834,10.2962963 9.91839378,10.2864198 C9.9134715,10.2814815 9.90362694,10.2765432 9.89870466,10.2666667 C9.8888601,10.2567901 9.87901554,10.2518519 9.86917098,10.2419753 C9.8642487,10.237037 9.85440415,10.2320988 9.84948187,10.2271605 C9.83963731,10.2222222 9.82979275,10.2123457 9.81994819,10.2074074 C9.81010363,10.2024691 9.80025907,10.1975309 9.79041451,10.1925926 C9.78056995,10.1876543 9.77072539,10.182716 9.76088083,10.1777778 C9.74119171,10.1679012 9.72150259,10.1580247 9.70181347,10.1530864 L9.70181347,10.1530864 L9.69689119,10.1530864 C9.67720207,10.1481481 9.65751295,10.1432099 9.63782383,10.1382716 C9.62797927,10.1382716 9.62305699,10.1333333 9.61321244,10.1333333 C9.5984456,10.1283951 9.58860104,10.1283951 9.5738342,10.1234568 C9.56398964,10.1234568 9.55414508,10.1234568 9.54430052,10.1185185 C9.53445596,10.1185185 9.51968912,10.1135802 9.50984456,10.1135802 L9.48031088,10.1135802 L9.44585492,10.1135802 C9.43601036,10.1135802 9.42124352,10.1135802 9.41139896,10.1185185 C9.4015544,10.1185185 9.39170984,10.1185185 9.38186528,10.1234568 C9.36709845,10.1234568 9.35725389,10.1283951 9.34248705,10.1333333 C9.33264249,10.1333333 9.32772021,10.1382716 9.31787565,10.1382716 C9.29818653,10.1432099 9.27849741,10.1481481 9.26373057,10.1530864 L9.25880829,10.1530864 L9.25880829,10.1530864 C9.23911917,10.1580247 9.21943005,10.1679012 9.19974093,10.1777778 C9.18989637,10.182716 9.18005181,10.1876543 9.17020725,10.1925926 C9.16036269,10.1975309 9.15051813,10.2024691 9.14067358,10.2074074 C9.13082902,10.2123457 9.12098446,10.2222222 9.10621762,10.2271605 C9.10129534,10.2320988 9.09145078,10.237037 9.0865285,10.2419753 C9.07668394,10.2518519 9.06683938,10.2567901 9.05699482,10.2666667 C9.05207254,10.2716049 9.04222798,10.2765432 9.0373057,10.2864198 C9.02746114,10.2962963 9.02253886,10.3012346 9.0126943,10.3111111 C9.00284974,10.3209877 8.99792746,10.3259259 8.9880829,10.3358025 C8.98316062,10.3407407 8.97823834,10.3506173 8.96839378,10.3555556 C8.95854922,10.3654321 8.95362694,10.3753086 8.94378238,10.3851852 C8.9388601,10.3901235 8.93393782,10.4 8.92901554,10.4049383 C8.92409326,10.4148148 8.9142487,10.4246914 8.90932642,10.4345679 C8.90440415,10.4444444 8.89948187,10.454321 8.89455959,10.4641975 C8.88963731,10.4740741 8.88471503,10.4839506 8.87979275,10.4938272 C8.86994819,10.5135802 8.86010363,10.5333333 8.85518135,10.5530864 L8.85518135,10.5530864 L5.86243523,18.9432099 C5.75414508,19.2888889 5.93134715,19.6641975 6.27098446,19.7876543 Z M9.48523316,12.7308642 L10.5927461,15.8419753 L8.37279793,15.8419753 L9.48523316,12.7308642 Z" id="Shape"></path>
            </g>
        </g>
    </g>
</svg>