<?xml version="1.0" encoding="UTF-8"?>
<svg width="24px" height="24px" viewBox="0 0 24 24" version="1.1" xmlns="http://www.w3.org/2000/svg" xmlns:xlink="http://www.w3.org/1999/xlink">
    <!-- Generator: Sketch 43.1 (39012) - http://www.bohemiancoding.com/sketch -->
    <title>activities</title>
    <desc>Created with Sketch.</desc>
    <defs></defs>
    <g id="Page-1" stroke="none" stroke-width="1" fill="none" fill-rule="evenodd" opacity="0.5">
        <g id="menu" transform="translate(-16.000000, -273.000000)" fill-rule="nonzero" fill="#FFFFFF">
            <g id="activities" transform="translate(16.000000, 273.000000)">
                <g id="Group" transform="translate(0.000000, 0.239194)">
                    <path d="M0.6796875,0.13663125 C0.293170675,0.173058041 -0.00167419867,0.498392722 2.53491673e-13,0.886605 L2.53491673e-13,9.88628625 C4.12078305e-05,10.3004681 0.335803454,10.6362186 0.75,10.63626 L9.75,10.63626 C10.1641965,10.6362186 10.4999588,10.3004681 10.5,9.88628625 L10.5,0.886605 C10.4999588,0.472423135 10.1641965,0.136672641 9.75,0.13663125 L0.75,0.13663125 C0.726575386,0.135532162 0.703112114,0.135532162 0.6796875,0.13663125 L0.6796875,0.13663125 Z M13.5,0.13663125 C13.0858035,0.136672641 12.7500412,0.472423135 12.75,0.886605 L12.75,9.88628625 C12.7500412,10.3004681 13.0858035,10.6362186 13.5,10.63626 L22.5,10.63626 C22.9141965,10.6362186 23.2499588,10.3004681 23.25,9.88628625 L23.25,0.886605 C23.2516742,0.498392722 22.9568293,0.173058041 22.5703125,0.13663125 C22.5468879,0.135532162 22.5234246,0.135532162 22.5,0.13663125 L13.5,0.13663125 L13.5,0.13663125 Z M1.5,1.63657875 L9,1.63657875 L9,9.1363125 L1.5,9.1363125 L1.5,1.63657875 Z M14.25,1.63657875 L21.75,1.63657875 L21.75,9.1363125 L14.25,9.1363125 L14.25,1.63657875 Z M0.75,12.8861625 C0.335793203,12.8862039 2.67125472e-05,13.2219704 2.54907206e-13,13.6361625 L2.54907206e-13,22.635825 C2.67125473e-05,23.0500171 0.335793203,23.3857836 0.75,23.385825 L9.75,23.385825 C10.1642068,23.3857836 10.4999733,23.0500171 10.5,22.635825 L10.5,13.6361625 C10.4999733,13.2219704 10.1642068,12.8862039 9.75,12.8861625 L0.75,12.8861625 L0.75,12.8861625 Z M13.5,12.8861625 C13.0857932,12.8862039 12.7500267,13.2219704 12.75,13.6361625 L12.75,22.635825 C12.7500267,23.0500171 13.0857932,23.3857836 13.5,23.385825 L22.5,23.385825 C22.9142068,23.3857836 23.2499733,23.0500171 23.25,22.635825 L23.25,13.6361625 C23.2499733,13.2219704 22.9142068,12.8862039 22.5,12.8861625 L13.5,12.8861625 L13.5,12.8861625 Z M1.5,14.386125 L9,14.386125 L9,21.8858625 L1.5,21.8858625 L1.5,14.386125 L1.5,14.386125 Z M14.25,14.386125 L21.75,14.386125 L21.75,21.8858625 L14.25,21.8858625 L14.25,14.386125 L14.25,14.386125 Z" id="Shape"></path>
                </g>
            </g>
        </g>
    </g>
</svg>