<svg xmlns="http://www.w3.org/2000/svg" xmlns:xlink="http://www.w3.org/1999/xlink" width="70px" height="80px" viewBox="0 0 70 80" version="1.1">
    <!-- Generator: Sketch 41.2 (35397) - http://www.bohemiancoding.com/sketch -->
    <title>noun_581720_cc</title>
    <desc>Created with Sketch.</desc>
    <defs><linearGradient id="MyGradient"><stop offset="5%" stop-color="#F60"></stop><stop offset="95%" stop-color="#FF6"></stop></linearGradient></defs>
    <g id="Page-1" stroke="none" stroke-width="1" fill="none" fill-rule="evenodd">
        <g id="technotec-services_technology_serv" transform="translate(-264.000000, -682.000000)" fill="#C6A17C">
            <g id="noun_581720_cc" transform="translate(264.000000, 682.000000)">
                <g id="Group">
                    <path d="M1.95348837,39.8837209 C1.95348837,40.372093 1.62790698,40.6976744 1.13953488,40.6976744 C0.651162791,40.6976744 0.325581395,40.372093 0.325581395,39.8837209 C0.325581395,20.755814 15.872093,5.20930233 35,5.20930233 L36.4651163,5.20930233 L32.8023256,1.62790698 C32.4767442,1.30232558 32.4767442,0.813953488 32.8023256,0.488372093 C33.127907,0.162790698 33.6162791,0.162790698 33.9418605,0.488372093 L38.9069767,5.45348837 C39.0697674,5.61627907 39.1511628,5.77906977 39.1511628,6.02325581 C39.1511628,6.26744186 39.1511628,6.51162791 38.9883721,6.59302326 L34.0232558,11.5581395 C33.8604651,11.7209302 33.6162791,11.8023256 33.4534884,11.8023256 C33.2906977,11.8023256 33.0465116,11.7209302 32.8837209,11.5581395 C32.5581395,11.2325581 32.5581395,10.744186 32.8837209,10.4186047 L36.4651163,6.8372093 L35,6.8372093 C16.7674419,6.8372093 1.95348837,21.6511628 1.95348837,39.8837209 Z M68.8604651,39.0697674 C68.372093,39.0697674 68.0465116,39.3953488 68.0465116,39.8837209 C68.0465116,58.1162791 53.2325581,72.9302326 35,72.9302326 L33.5348837,72.9302326 L37.1162791,69.3488372 C37.4418605,69.0232558 37.4418605,68.5348837 37.1162791,68.2093023 C36.7906977,67.8837209 36.3023256,67.8837209 35.9767442,68.2093023 L31.0116279,73.1744186 C30.8488372,73.3372093 30.7674419,73.5 30.7674419,73.744186 C30.7674419,73.9883721 30.8488372,74.1511628 31.0116279,74.3139535 L35.9767442,79.2790698 C36.1395349,79.4418605 36.3837209,79.5232558 36.5465116,79.5232558 C36.7093023,79.5232558 36.9534884,79.4418605 37.1162791,79.2790698 C37.4418605,78.9534884 37.4418605,78.4651163 37.1162791,78.1395349 L33.5348837,74.5581395 L35,74.5581395 C54.127907,74.5581395 69.6744186,59.0116279 69.6744186,39.8837209 C69.6744186,39.3953488 69.2674419,39.0697674 68.8604651,39.0697674 Z M56.4069767,35.8139535 L54.2093023,36.7093023 C54.5348837,38.744186 54.5348837,40.8604651 54.2093023,42.9767442 L56.4069767,43.872093 C57.0581395,44.1976744 57.627907,44.6860465 57.9534884,45.4186047 C58.1976744,46.0697674 58.1976744,46.8837209 57.9534884,47.5348837 L56.6511628,50.627907 C56.244186,51.6860465 55.1860465,52.3372093 54.0465116,52.3372093 C53.6395349,52.3372093 53.3139535,52.255814 52.9883721,52.0930233 L50.7906977,51.1976744 C49.5697674,52.9069767 48.1046512,54.372093 46.3953488,55.5930233 L47.2906977,57.7906977 C47.8604651,59.1744186 47.2093023,60.8837209 45.744186,61.4534884 L42.6511628,62.755814 C42.3255814,62.9186047 41.9186047,63 41.5930233,63 C40.4534884,63 39.4767442,62.3488372 38.9883721,61.2906977 L38.0930233,59.0930233 C36.0581395,59.4186047 33.9418605,59.4186047 31.8255814,59.0930233 L30.9302326,61.2906977 C30.5232558,62.3488372 29.4651163,63 28.3255814,63 C27.9186047,63 27.5930233,62.9186047 27.2674419,62.755814 L24.1744186,61.4534884 C23.5232558,61.127907 22.9534884,60.6395349 22.627907,59.9069767 C22.3837209,59.255814 22.3837209,58.4418605 22.627907,57.7906977 L23.5232558,55.5930233 C21.8139535,54.372093 20.3488372,52.9069767 19.127907,51.1976744 L16.9302326,52.0930233 C16.6046512,52.255814 16.1976744,52.3372093 15.872093,52.3372093 C14.7325581,52.3372093 13.755814,51.6860465 13.2674419,50.627907 L11.9651163,47.5348837 C11.3953488,46.1511628 12.0465116,44.4418605 13.5116279,43.872093 L15.7093023,42.9767442 C15.3837209,40.9418605 15.3837209,38.8255814 15.7093023,36.7093023 L13.5930233,35.8139535 C12.9418605,35.4883721 12.372093,35 12.0465116,34.2674419 C11.8023256,33.6162791 11.8023256,32.8023256 12.0465116,32.1511628 L13.3488372,29.0581395 C13.755814,28 14.8139535,27.3488372 15.9534884,27.3488372 C16.3604651,27.3488372 16.6860465,27.4302326 17.0116279,27.5930233 L19.2093023,28.4883721 C20.4302326,26.7790698 21.8953488,25.3139535 23.6046512,24.0930233 L22.7093023,21.8953488 C22.1395349,20.5116279 22.7906977,18.8023256 24.255814,18.2325581 L27.3488372,16.9302326 C27.6744186,16.7674419 28.0813953,16.6860465 28.4069767,16.6860465 C29.5465116,16.6860465 30.5232558,17.3372093 31.0116279,18.3953488 L31.9069767,20.5930233 C33.9418605,20.2674419 36.0581395,20.2674419 38.1744186,20.5930233 L39.0697674,18.3953488 C39.4767442,17.3372093 40.5348837,16.6860465 41.6744186,16.6860465 C42.0813953,16.6860465 42.4069767,16.7674419 42.7325581,16.9302326 L45.8255814,18.2325581 C46.4767442,18.5581395 47.0465116,19.0465116 47.372093,19.7790698 C47.6162791,20.4302326 47.6162791,21.244186 47.372093,21.8953488 L46.4767442,24.0930233 C48.1860465,25.3139535 49.6511628,26.7790698 50.872093,28.4883721 L53.0697674,27.5930233 C53.3953488,27.4302326 53.8023256,27.3488372 54.127907,27.3488372 C55.2674419,27.3488372 56.244186,28 56.7325581,29.0581395 L58.0348837,32.1511628 C58.3604651,32.8023256 58.3604651,33.6162791 58.0348837,34.2674419 C57.7093023,34.9186047 57.0581395,35.5697674 56.4069767,35.8139535 Z M56.4069767,33.6976744 C56.4883721,33.372093 56.4883721,33.127907 56.4069767,32.8023256 L55.1046512,29.7093023 C54.8604651,29.1395349 54.2093023,28.8139535 53.5581395,29.0581395 L50.7093023,30.1976744 C50.3837209,30.3604651 49.9767442,30.1976744 49.7325581,29.872093 C48.4302326,27.9186047 46.8023256,26.2906977 44.8488372,24.9883721 C44.5232558,24.744186 44.3604651,24.3372093 44.5232558,24.0116279 L45.6627907,21.1627907 C45.744186,20.8372093 45.744186,20.5930233 45.6627907,20.2674419 C45.5813953,19.9418605 45.3372093,19.7790698 45.0116279,19.6162791 L41.9186047,18.3139535 C41.3488372,18.0697674 40.6162791,18.3953488 40.372093,18.9651163 L39.3953488,21.9767442 C39.2325581,22.3023256 38.8255814,22.5465116 38.5,22.4651163 C36.2209302,21.9767442 33.8604651,21.9767442 31.5813953,22.4651163 C31.1744186,22.5465116 30.8488372,22.3023256 30.6860465,21.9767442 L29.5465116,19.127907 C29.3023256,18.5581395 28.6511628,18.2325581 28,18.4767442 L24.9069767,19.7790698 C24.3372093,20.0232558 24.0116279,20.6744186 24.255814,21.3255814 L25.3953488,24.1744186 C25.5581395,24.5 25.3953488,24.9883721 25.0697674,25.1511628 C23.1162791,26.4534884 21.4883721,28.0813953 20.1860465,30.0348837 C19.9418605,30.3604651 19.5348837,30.4418605 19.2093023,30.3604651 L16.3604651,29.2209302 C15.7906977,28.9767442 15.0581395,29.3023256 14.8139535,29.872093 L13.5116279,32.9651163 C13.4302326,33.2906977 13.4302326,33.5348837 13.5116279,33.8604651 C13.5930233,34.1860465 13.8372093,34.3488372 14.1627907,34.5116279 L17.0116279,35.6511628 C17.3372093,35.8139535 17.5813953,36.2209302 17.5,36.5465116 C17.0116279,38.8255814 17.0116279,41.1860465 17.5,43.4651163 C17.5813953,43.872093 17.3372093,44.1976744 17.0116279,44.3604651 L14.1627907,45.5 C13.5930233,45.744186 13.2674419,46.3953488 13.5116279,47.0465116 L14.8139535,50.1395349 C15.0581395,50.7093023 15.7093023,51.0348837 16.3604651,50.7906977 L19.2093023,49.6511628 C19.5348837,49.4883721 19.9418605,49.6511628 20.1860465,49.9767442 C21.4883721,51.9302326 23.1162791,53.5581395 25.0697674,54.8604651 C25.3953488,55.1046512 25.5581395,55.5116279 25.3953488,55.8372093 L24.255814,58.6860465 C24.1744186,59.0116279 24.1744186,59.255814 24.255814,59.5813953 C24.3372093,59.9069767 24.5813953,60.0697674 24.9069767,60.2325581 L28,61.5348837 C28.5697674,61.7790698 29.3023256,61.4534884 29.5465116,60.8837209 L30.6860465,58.0348837 C30.8488372,57.7093023 31.1744186,57.4651163 31.5813953,57.5465116 C33.8604651,58.0348837 36.2209302,58.0348837 38.5,57.5465116 L38.6627907,57.5465116 C38.9883721,57.5465116 39.3139535,57.7093023 39.3953488,58.0348837 L40.5348837,60.8837209 C40.7790698,61.4534884 41.4302326,61.7790698 42.0813953,61.5348837 L45.1744186,60.2325581 C45.744186,59.9883721 46.0697674,59.3372093 45.8255814,58.6860465 L44.6860465,55.8372093 C44.5232558,55.5116279 44.6860465,55.0232558 45.0116279,54.8604651 C46.9651163,53.5581395 48.5930233,51.9302326 49.8953488,49.9767442 C50.1395349,49.6511628 50.5465116,49.4883721 50.872093,49.6511628 L53.7209302,50.7906977 C53.8837209,50.872093 54.0465116,50.872093 54.127907,50.872093 C54.6162791,50.872093 55.0232558,50.627907 55.1860465,50.1395349 L56.4883721,47.0465116 C56.5697674,46.7209302 56.5697674,46.4767442 56.4883721,46.1511628 C56.4069767,45.8255814 56.1627907,45.6627907 55.8372093,45.5 L52.9069767,44.2790698 C52.5813953,44.1162791 52.3372093,43.7093023 52.4186047,43.3837209 C52.9069767,41.1046512 52.9069767,38.744186 52.4186047,36.4651163 C52.3372093,36.0581395 52.5813953,35.7325581 52.9069767,35.5697674 L55.755814,34.4302326 C56.0813953,34.2674419 56.244186,34.0232558 56.4069767,33.6976744 Z M43.9534884,36.2209302 C45.9883721,41.1860465 43.627907,46.8023256 38.744186,48.8372093 C37.5232558,49.3255814 36.3023256,49.5697674 35.0813953,49.5697674 C31.1744186,49.5697674 27.6744186,47.2093023 26.127907,43.627907 C24.0930233,38.6627907 26.4534884,33.0465116 31.3372093,31.0116279 C32.5581395,30.5232558 33.7790698,30.2790698 35,30.2790698 C38.9069767,30.1976744 42.4069767,32.5581395 43.9534884,36.2209302 Z M42.4069767,36.7906977 C41.1860465,33.7790698 38.255814,31.8255814 35,31.8255814 C33.9418605,31.8255814 32.8837209,32.0697674 31.9069767,32.4767442 C27.8372093,34.1860465 25.8837209,38.9069767 27.5930233,42.9767442 C28.8139535,45.9883721 31.744186,47.9418605 35,47.9418605 C36.0581395,47.9418605 37.1162791,47.6976744 38.0930233,47.2906977 C42.1627907,45.5813953 44.1162791,40.9418605 42.4069767,36.7906977 Z" id="Shape"></path>
                </g>
            </g>
        </g>
    </g>
</svg>