<?xml version="1.0" encoding="UTF-8"?>
<svg width="24px" height="24px" viewBox="0 0 24 24" version="1.1" xmlns="http://www.w3.org/2000/svg" xmlns:xlink="http://www.w3.org/1999/xlink">
    <!-- Generator: Sketch 43.1 (39012) - http://www.bohemiancoding.com/sketch -->
    <title>geography</title>
    <desc>Created with Sketch.</desc>
    <defs></defs>
    <g id="Page-1" stroke="none" stroke-width="1" fill="none" fill-rule="evenodd" opacity="0.5">
        <g id="menu" transform="translate(-16.000000, -230.000000)" fill-rule="nonzero" fill="#FFFFFF">
            <g id="geography" transform="translate(16.000000, 230.000000)">
                <path d="M12,0 C5.3832,0 0,5.3832 0,12 C0,18.6168 5.3832,24 12,24 C18.6168,24 24,18.6168 24,12 C24,5.3832 18.6168,0 12,0 Z M20.20584,19.00992 C19.43712,18.28776 18.59088,17.676 17.68368,17.18688 C18.0252,15.79296 18.23184,14.24496 18.27216,12.6 L22.78224,12.6 C22.64808,15.03936 21.6996,17.26416 20.20584,19.00992 Z M1.21752,12.6 L5.7276,12.6 C5.76792,14.24496 5.97456,15.7932 6.31608,17.18688 C5.40912,17.676 4.56264,18.28776 3.79392,19.00992 C2.3004,17.26416 1.35168,15.03936 1.21752,12.6 Z M3.7944,4.99008 C4.57008,5.718 5.41896,6.32448 6.31776,6.80712 C5.97528,8.20248 5.7684,9.75264 5.72784,11.4 L1.21752,11.4 C1.35168,8.9604 2.3004,6.73584 3.7944,4.99008 Z M11.4,7.01568 C10.1544,6.94704 8.91936,6.66288 7.75368,6.16608 C8.56464,3.54576 9.89232,1.67928 11.4,1.28184 L11.4,7.01568 Z M11.4,8.21784 L11.4,11.4 L6.9288,11.4 C6.96816,9.96 7.14696,8.5848 7.43712,7.33632 C8.7072,7.85664 10.0488,8.15088 11.4,8.21784 Z M11.4,12.6 L11.4,15.77568 C10.02048,15.84312 8.68416,16.14336 7.4352,16.65672 C7.14624,15.4104 6.96792,14.0376 6.9288,12.6 L11.4,12.6 Z M11.4,16.97856 L11.4,22.71816 C9.89112,22.32048 8.56248,20.45136 7.75176,17.82768 C8.89752,17.33736 10.128,17.04768 11.4,16.97856 Z M12.6,16.97856 C13.87224,17.04768 15.10248,17.33736 16.24824,17.82768 C15.43728,20.45136 14.10888,22.32048 12.6,22.71816 L12.6,16.97856 L12.6,16.97856 Z M12.6,15.77568 L12.6,12.6 L17.07144,12.6 C17.03208,14.0376 16.854,15.4104 16.5648,16.65672 C15.31584,16.1436 13.97952,15.84336 12.6,15.77568 Z M12.6,11.4 L12.6,8.21784 C13.9512,8.15088 15.29304,7.85664 16.56312,7.33632 C16.85304,8.5848 17.03208,9.96 17.07144,11.4 L12.6,11.4 Z M12.6,7.01568 L12.6,1.28184 C14.10768,1.67904 15.43536,3.54576 16.24632,6.16608 C15.08064,6.66288 13.8456,6.94704 12.6,7.01568 Z M15.276,1.70952 C16.82328,2.2032 18.21888,3.03744 19.37712,4.12272 C18.74832,4.71144 18.06624,5.21112 17.346,5.62104 C16.82928,4.01976 16.12104,2.67864 15.276,1.70952 Z M6.65376,5.62104 C5.93376,5.21112 5.25168,4.71144 4.62288,4.12272 C5.78112,3.03744 7.17672,2.2032 8.72376,1.70952 C7.87896,2.67888 7.17072,4.01976 6.65376,5.62104 Z M6.6528,18.37584 C7.16976,19.97856 7.87848,21.32064 8.724,22.29048 C7.17672,21.7968 5.78088,20.96256 4.62288,19.87704 C5.24616,19.29288 5.92704,18.7908 6.6528,18.37584 Z M17.3472,18.37584 C18.07272,18.7908 18.7536,19.29264 19.37736,19.87704 C18.21912,20.96256 16.82328,21.7968 15.276,22.29048 C16.12152,21.32064 16.83024,19.97856 17.3472,18.37584 Z M18.2724,11.4 C18.23184,9.75264 18.02496,8.20248 17.68248,6.80712 C18.58128,6.32448 19.42992,5.718 20.20584,4.99008 C21.6996,6.73584 22.64832,8.96064 22.78248,11.4 L18.2724,11.4 Z" id="Shape"></path>
            </g>
        </g>
    </g>
</svg>