<?xml version="1.0" encoding="UTF-8"?>
<svg width="24px" height="23px" viewBox="0 0 24 23" version="1.1" xmlns="http://www.w3.org/2000/svg" xmlns:xlink="http://www.w3.org/1999/xlink">
    <!-- Generator: Sketch 43.1 (39012) - http://www.bohemiancoding.com/sketch -->
    <title>house</title>
    <desc>Created with Sketch.</desc>
    <defs></defs>
    <g id="Page-1" stroke="none" stroke-width="1" fill="none" fill-rule="evenodd" opacity="0.5">
        <g id="menu" transform="translate(-16.000000, -144.000000)" fill-rule="nonzero" fill="#FFFFFF">
            <g id="house" transform="translate(16.000000, 144.000000)">
                <path d="M23.7392033,10.3601892 L12.4636386,0.240189247 C12.4439261,0.220404301 12.4242136,0.205565591 12.3995729,0.190726882 C12.1531663,-0.0466924731 11.7589158,-0.0565849462 11.4977248,0.175888172 L0.222160164,10.2958882 C-0.0538151951,10.5432 -0.0735277207,10.9636301 0.167950719,11.2406194 C0.301010267,11.3890065 0.483351129,11.4632 0.665691992,11.4632 C0.823392197,11.4632 0.981092402,11.4087914 1.10922382,11.295028 L3.13961396,9.46986667 L3.13961396,9.8259957 L3.13961396,15.1085763 L3.13961396,21.2715871 C3.13961396,22.1965333 3.88868994,22.9533075 4.81517864,22.9533075 L4.8546037,22.9533075 L4.89402875,22.9533075 L8.37328953,22.9533075 C9.24064066,22.9533075 9.94536345,22.2459957 9.94536345,21.3754581 L9.94536345,15.3756731 C9.94536345,15.2421247 10.0537823,15.1333075 10.1868419,15.1333075 L13.7794497,15.1333075 C13.9125092,15.1333075 14.0209281,15.2421247 14.0209281,15.3756731 L14.0209281,21.3754581 C14.0209281,22.2459957 14.7256509,22.9533075 15.5930021,22.9533075 L19.1511129,22.9533075 C20.0874579,22.9533075 20.8266776,22.0283613 20.8266776,20.8462108 L20.8266776,15.3459957 L20.8266776,13.6642753 L20.8266776,9.53416774 L22.8570678,11.359329 C22.9851992,11.4730925 23.1428994,11.5275011 23.3005996,11.5275011 C23.4829405,11.5275011 23.6652813,11.4533075 23.7983409,11.3049204 C24.0348912,11.0279312 24.0102505,10.6075011 23.7392033,10.3601892 Z M19.491154,13.659329 L19.491154,15.3410495 L19.491154,20.8363183 C19.491154,21.3161032 19.2546037,21.6079312 19.1461848,21.6079312 L15.5880739,21.6079312 C15.4550144,21.6079312 15.3465955,21.499114 15.3465955,21.3655656 L15.3465955,15.3756731 C15.3465955,14.5051355 14.6418727,13.7978237 13.7745216,13.7978237 L10.1819138,13.7978237 C9.31456263,13.7978237 8.60983984,14.5051355 8.60983984,15.3756731 L8.60983984,21.3754581 C8.60983984,21.5090065 8.50142094,21.6178237 8.3683614,21.6178237 L4.88910062,21.6178237 L4.84967556,21.6178237 L4.81025051,21.6178237 C4.62298152,21.6178237 4.46528131,21.4644903 4.46528131,21.2715871 L4.46528131,15.1036301 L4.46528131,9.82104946 L4.46528131,8.27287742 L11.9461848,1.56578065 L19.491154,8.33717849 L19.491154,13.659329 L19.491154,13.659329 Z" id="Shape"></path>
            </g>
        </g>
    </g>
</svg>