<?xml version="1.0" encoding="UTF-8"?>
<svg width="18px" height="13px" viewBox="0 0 18 13" version="1.1" xmlns="http://www.w3.org/2000/svg" xmlns:xlink="http://www.w3.org/1999/xlink">
    <defs></defs>
    <g id="Page-1" stroke="none" stroke-width="1" fill="none" fill-rule="evenodd">
        <g id="tt_International" transform="translate(-945.000000, -5194.000000)" fill="#C6A17C">
            <g id="noun_447683_cc" transform="translate(945.000000, 5194.000000)">
                <g id="Group">
                    <path d="M16.7175,0.1340625 C16.695,0.1340625 16.695,0.06703125 16.6725,0.06703125 C16.605,0.06703125 16.5375,0 16.4475,0 L1.53,0 C1.4625,0 1.395,0.06703125 1.305,0.06703125 C1.2825,0.06703125 1.2825,0.089375 1.26,0.089375 C0.5625,0.2234375 0,0.87140625 0,1.63109375 L0,11.3282812 C0,12.0879688 0.5625,12.7135938 1.2825,12.8253125 C1.305,12.8253125 1.305,12.8923438 1.3275,12.8923438 C1.395,12.8923438 1.4625,12.959375 1.53,12.959375 L16.47,12.959375 C16.5375,12.959375 16.605,12.8923438 16.6725,12.8923438 C16.695,12.8923438 16.695,12.87 16.7175,12.87 C17.4375,12.7582813 18,12.1103125 18,11.350625 L18,1.63109375 C18,0.87140625 17.4375,0.24578125 16.7175,0.1340625 Z M12.1275,6.4796875 L17.1,2.07796875 L17.1,10.8814062 L12.1275,6.4796875 Z M16.47,0.89375 C16.6725,0.89375 16.8525,1.00546875 16.9875,1.13953125 L9,8.2225 L1.0125,1.13953125 L1.0125,1.1171875 C1.1475,0.983125 1.3275,0.87140625 1.53,0.87140625 L16.47,0.87140625 L16.47,0.89375 Z M0.9,2.07796875 L5.8725,6.4796875 L0.9,10.8814062 L0.9,2.07796875 Z M1.53,12.065625 C1.3275,12.065625 1.1475,11.9539063 1.0125,11.8198438 L1.0125,11.8198438 L6.4125,7.03828125 L8.73,9.09390625 C8.7975,9.1609375 8.91,9.205625 9,9.205625 C9.09,9.205625 9.2025,9.1609375 9.27,9.09390625 L11.5875,7.03828125 L16.9875,11.8421875 C16.8525,11.97625 16.6725,12.0879688 16.47,12.0879688 L1.53,12.065625 L1.53,12.065625 Z" id="Shape"></path>
                </g>
            </g>
        </g>
    </g>
</svg>