<?xml version="1.0" encoding="UTF-8"?>
<svg width="18px" height="18px" viewBox="0 0 18 18" version="1.1" xmlns="http://www.w3.org/2000/svg" xmlns:xlink="http://www.w3.org/1999/xlink">
    <!-- Generator: Sketch 43.1 (39012) - http://www.bohemiancoding.com/sketch -->
    <title>метка</title>
    <desc>Created with Sketch.</desc>
    <defs></defs>
    <g id="Page-1" stroke="none" stroke-width="1" fill="none" fill-rule="evenodd">
        <g id="iPhone-SE" transform="translate(-101.000000, -2256.000000)" fill="#FEFEFE">
            <path d="M105.844159,2265.43932 L107.127096,2265.43932 C107.31384,2266.69479 108.305455,2267.68722 109.564115,2267.88123 L109.564115,2269.15908 C107.603295,2268.95388 106.049578,2267.39807 105.844159,2265.43932 M110.44555,2269.16095 L110.44555,2267.88123 C111.70421,2267.68909 112.697692,2266.69852 112.888172,2265.43932 L114.172976,2265.43932 C113.967556,2267.39994 112.408238,2268.95761 110.44555,2269.16095 M114.172976,2264.55881 L112.888172,2264.55881 C112.697692,2263.30148 111.700475,2262.31091 110.44555,2262.1225 L110.44555,2260.84092 C112.408238,2261.04612 113.965689,2262.60193 114.172976,2264.55881 M109.564115,2260.84092 L109.564115,2262.12437 C108.30919,2262.31464 107.317575,2263.30335 107.127096,2264.55881 L105.844159,2264.55881 C106.051446,2262.60193 107.605162,2261.04798 109.564115,2260.84092 M101,2265.00093 C101,2260.03316 105.031819,2256 110.0067,2256 C114.98158,2256 119.015267,2260.03316 119.015267,2265.00093 C119.015267,2269.97057 114.98158,2274 110.0067,2274 C105.031819,2274 101,2269.97057 101,2265.00093 M104.958989,2264.55881 L102.845038,2264.55881 L102.845038,2265.43932 L104.958989,2265.43932 C105.168143,2267.88683 107.117758,2269.83066 109.564115,2270.04519 L109.564115,2272.15691 L110.44555,2272.15691 L110.44555,2270.04705 C112.893774,2269.83439 114.847124,2267.88683 115.058146,2265.43932 L117.170229,2265.43932 L117.170229,2264.55881 L115.058146,2264.55881 C114.845257,2262.11504 112.891906,2260.16561 110.44555,2259.95854 L110.44555,2257.84682 L109.564115,2257.84682 L109.564115,2259.95854 C107.117758,2260.16934 105.171878,2262.11504 104.958989,2264.55881" id="метка"></path>
        </g>
    </g>
</svg>