<?xml version="1.0" encoding="UTF-8"?>
<svg width="24px" height="20px" viewBox="0 0 24 20" version="1.1" xmlns="http://www.w3.org/2000/svg" xmlns:xlink="http://www.w3.org/1999/xlink">
    <!-- Generator: Sketch 43.1 (39012) - http://www.bohemiancoding.com/sketch -->
    <title>partners</title>
    <desc>Created with Sketch.</desc>
    <defs></defs>
    <g id="Page-1" stroke="none" stroke-width="1" fill="none" fill-rule="evenodd" opacity="0.5">
        <g id="menu" transform="translate(-16.000000, -320.000000)" fill-rule="nonzero" fill="#FFFFFF">
            <g id="partners" transform="translate(16.000000, 320.000000)">
                <g id="Group">
                    <path d="M18.2753166,17.0859905 C17.6784328,17.0859905 17.1393349,16.7941253 16.8133394,16.470024 C16.5998542,16.2577436 16.5998542,15.9135829 16.8133394,15.7012482 C17.0268793,15.4889678 17.3730478,15.4889678 17.586533,15.7012482 L17.586533,15.7012482 C17.5866424,15.7012482 17.7812118,15.8852607 18.0480547,15.9654979 C18.2382506,16.0226314 18.5325376,16.0575313 18.8907882,15.7013025 C19.2490934,15.3450193 19.2141048,15.0523931 19.1565376,14.8633249 C19.0755171,14.5969008 18.8894214,14.4029945 18.8875626,14.4010918 C18.6740774,14.1888114 18.6757175,13.8462273 18.8892027,13.6339469 C19.1027426,13.4216665 19.4504966,13.4232973 19.6639818,13.6355777 C20.2368656,14.2052285 20.7097039,15.4302577 19.6639818,16.4700783 C19.2131754,16.9183406 18.7276538,17.0859905 18.2753166,17.0859905 Z" id="Shape"></path>
                    <path d="M15.1600729,18.1193421 C14.562861,18.1193421 14.0233804,17.8272052 13.6971663,17.5028864 C13.4836811,17.290606 13.4836811,16.9464453 13.6971663,16.7341106 C13.9107062,16.5218302 14.2568747,16.5218302 14.4703599,16.7341106 L14.4703599,16.7341106 C14.4704146,16.7341106 14.6652027,16.9183406 14.9323736,16.9987408 C15.1226788,17.0560375 15.4170752,17.0909917 15.7753257,16.7348173 C16.1335763,16.3785885 16.098533,16.0859622 16.0410205,15.8967853 C15.9600547,15.6304155 15.7739043,15.4364549 15.7720456,15.4346066 C15.5585604,15.2223262 15.5602005,14.8796877 15.7736856,14.6674616 C15.9871708,14.4551812 16.3349795,14.456812 16.5484647,14.6690924 C17.1214032,15.2387976 17.5941868,16.4637724 16.5484647,17.5035931 C16.0978223,17.9516923 15.6123554,18.1193421 15.1600729,18.1193421 Z" id="Shape"></path>
                    <path d="M12.0647289,19.1298621 C11.4753349,19.1299165 10.9327927,18.8568603 10.5983781,18.5522746 C10.5924738,18.5468928 10.5866788,18.541348 10.5809932,18.5357488 L9.54226879,17.5028864 C9.3287836,17.290606 9.3287836,16.9464453 9.54226879,16.7341106 L9.54226879,16.7341106 C9.54221412,16.7341106 9.72732574,16.5406391 9.80801822,16.2751391 C9.86553075,16.0860166 9.90057403,15.7933904 9.54232346,15.4372159 C9.18407289,15.0809871 8.88978588,15.1157783 8.69958998,15.1729662 C8.43165376,15.2535295 8.23664692,15.4385749 8.23473349,15.4404232 C8.02124829,15.6527036 7.67666515,15.6510728 7.46323462,15.438738 C7.24974943,15.2264576 7.25138952,14.8806662 7.46487472,14.6683314 C8.03781321,14.0986806 9.26979499,13.6285651 10.3154624,14.6683314 C11.1420683,15.4902724 11.0198815,16.4278397 10.649385,17.0660943 L11.3417768,17.7545786 C11.3746879,17.7819767 11.5698041,17.9384825 11.8242369,18.0111634 C12.1370569,18.1005332 12.402369,18.0231772 12.6593166,17.7676797 C12.9228793,17.5055501 12.9983235,17.2335811 12.8966378,16.9117629 C12.8140319,16.6502313 12.6442278,16.455129 12.6425877,16.4533351 C12.4386697,16.231922 12.4538679,15.8880332 12.6765923,15.685266 C12.899262,15.4825531 13.2450478,15.4976112 13.4489658,15.7190243 C13.9901959,16.3067773 14.4325285,17.5420808 13.4325103,18.5364555 C12.9979408,18.9685725 12.5175034,19.1298077 12.0647289,19.1298621 Z" id="Shape"></path>
                    <path d="M8.85348519,18.1188529 C8.40114806,18.1188529 7.91568109,17.951203 7.46482005,17.5028864 C6.8921549,16.9333986 6.70693394,16.2314871 6.94327107,15.526477 C7.10919362,15.0316271 7.42895672,14.7041554 7.46487472,14.6684401 C7.67841458,14.4561597 8.02452847,14.4561597 8.23806834,14.6684945 C8.45155353,14.8807749 8.45155353,15.2249899 8.23806834,15.4372703 L8.23806834,15.4372703 C8.23817768,15.4372703 8.05306606,15.6306873 7.97231891,15.8961873 C7.91480638,16.0852555 7.87981777,16.3778818 8.23806834,16.7341649 C8.59631891,17.0903937 8.89060592,17.0555482 9.08080182,16.9983603 C9.34868337,16.9178514 9.54374487,16.7326972 9.54565831,16.7309033 C9.75914351,16.5186229 10.103672,16.5202537 10.3171572,16.7325341 C10.5306424,16.9448145 10.5290023,17.2906603 10.3155171,17.5029407 C9.98952164,17.8269877 9.45031435,18.1188529 8.85348519,18.1188529 Z" id="Shape"></path>
                    <path d="M20.3527654,15.0202657 C19.7558815,15.0202657 19.2167836,14.7284005 18.8907882,14.4042991 C18.677303,14.1920187 18.677303,13.8478581 18.8907882,13.6355233 C19.103344,13.4241671 19.4473257,13.4232429 19.6610843,13.6326422 C19.6710888,13.642101 19.8634169,13.8209493 20.1255034,13.899773 C20.3156993,13.9569066 20.610041,13.9918065 20.9682369,13.6355777 C21.3265421,13.2792945 21.2915535,12.9866683 21.2339863,12.7976001 C21.1529658,12.531176 20.9668702,12.3372697 20.9650114,12.335367 L19.9385877,11.3147359 C19.9326287,11.3090823 19.9268337,11.30332 19.9211481,11.2973947 L14.8960729,6.30067813 L11.1940592,6.30067813 L10.3154624,7.17431665 C9.2436082,8.24012193 8.27715718,8.67066247 7.36094761,8.49029208 C6.55041458,8.33085074 5.95916173,7.74288022 5.3873713,7.17431665 C5.28453759,7.07206327 5.22691572,6.93322482 5.22729841,6.78856972 C5.22768109,6.64391462 5.285959,6.50540233 5.38939408,6.40363821 C5.39978132,6.39336394 6.4554533,5.35397819 8.50835535,3.31271591 C10.4919909,1.34027488 14.8041185,1.88247328 15.9762369,2.07371591 L17.8521185,0.208420762 C17.9546788,0.10649355 18.0937039,0.0491968673 18.2387426,0.0491968673 C18.3837267,0.0491968673 18.5228064,0.10649355 18.6253121,0.208420762 L23.8189339,5.3727328 C24.0324191,5.58506757 24.0324191,5.92928256 23.8189339,6.1415086 L21.8327289,8.11655897 L20.9416674,10.7746032 L21.7414852,11.5699072 C21.7774032,11.6056225 22.097221,11.9331486 22.2630888,12.4279441 C22.499426,13.1330086 22.314205,13.8349201 21.7414852,14.4043535 C21.2906241,14.8526158 20.8051025,15.0202657 20.3527654,15.0202657 Z M10.9676173,5.21340018 L15.1225148,5.21340018 C15.2674989,5.21340018 15.4065786,5.27069687 15.5090843,5.37262408 L20.0772301,9.91498986 L20.8362096,7.65084674 C20.8631071,7.57071837 20.9082642,7.49803747 20.9682916,7.43840326 L22.6591162,5.75701198 L18.2386879,1.3615301 L16.5478087,3.04286701 C16.4186788,3.17126812 16.2335672,3.22704269 16.0544146,3.1915992 C16.0055945,3.18192291 11.1274169,2.24587776 9.28149431,4.08138299 C7.94618679,5.40910043 7.03210934,6.31367045 6.55276538,6.78726505 C6.89040547,7.10152703 7.22296128,7.35479576 7.57312073,7.42367138 C8.10407289,7.52815356 8.74819134,7.19508262 9.54226879,6.40548649 L10.5809932,5.37262408 C10.6835535,5.27075123 10.8225786,5.21340018 10.9676173,5.21340018 Z" id="Shape"></path>
                    <path d="M3.65986333,15.0202657 C3.2075262,15.0202657 2.72205923,14.8526701 2.27119818,14.4043535 C1.22553075,13.3645329 1.69831435,12.1394493 2.27119818,11.5697985 L4.34870159,9.50407371 C4.92164009,8.93442291 6.15362187,8.46430743 7.19928929,9.50407371 C8.24501139,10.5438943 7.77217312,11.7688692 7.19928929,12.3385743 C6.9858041,12.5509091 6.63963554,12.5509091 6.42609567,12.3385743 C6.21261048,12.1262939 6.21261048,11.7821333 6.42609567,11.5697985 L6.42609567,11.5697985 C6.426041,11.5697985 6.61115262,11.3763271 6.6918451,11.1108271 C6.74935763,10.9217045 6.78440091,10.6290783 6.42615034,10.2729039 C6.06789977,9.91667506 5.77361276,9.95146622 5.58341686,10.0086542 C5.31548064,10.0892174 5.1204738,10.2742629 5.11856036,10.2761112 L3.04444647,12.33852 L3.04444647,12.33852 C3.04450114,12.33852 2.85944419,12.5320458 2.77869704,12.7975458 C2.72118451,12.9866683 2.6861959,13.2792945 3.0443918,13.6355233 C3.40269704,13.9918065 3.69698405,13.956961 3.88717995,13.899773 C4.15511617,13.8192641 4.35012301,13.6341643 4.35209112,13.632316 C4.56557631,13.4199813 4.91010478,13.4216665 5.12358998,13.6339469 C5.33707517,13.8462273 5.33543508,14.1920731 5.12189522,14.4043535 C4.79595444,14.7284549 4.25669248,15.0202657 3.65986333,15.0202657 Z" id="Shape"></path>
                    <path d="M5.73556264,17.088328 C5.2350615,17.088328 4.75549886,16.8745255 4.34870159,16.470024 C3.77598178,15.9005362 3.59076082,15.1986247 3.82709795,14.4936146 C3.99296583,13.9988191 4.3127836,13.671293 4.34870159,13.6355777 L6.42609567,11.5698529 C6.48984055,11.5065221 7.07163554,10.9515488 7.88987699,10.9515488 C8.39037813,10.9515488 8.86994077,11.165297 9.27673804,11.5698529 C10.3224055,12.6096192 9.84967654,13.8346483 9.27673804,14.4043535 L7.19923462,16.4701327 C7.13559909,16.5333547 6.5538041,17.088328 5.73556264,17.088328 Z M5.12189522,14.4042991 C5.12194989,14.4042991 4.93689294,14.5978249 4.85614579,14.8633249 C4.79857859,15.0524475 4.76358998,15.3450193 5.12184055,15.7013025 C5.32477449,15.9030912 5.52552164,16.0011588 5.73556264,16.0011588 C6.10174032,16.0011588 6.42308884,15.7044011 6.42609567,15.7013025 L8.50359909,13.6355777 L8.50359909,13.6355777 C8.50348975,13.6356321 8.68860137,13.4421063 8.76934852,13.1766606 C8.82686105,12.9874837 8.86184966,12.6949119 8.50354442,12.3386287 C8.30071982,12.1368943 8.09997267,12.0388268 7.88987699,12.0388268 C7.52369932,12.0388268 7.20224146,12.3356932 7.19923462,12.3387374 L5.12189522,14.4042991 L5.12189522,14.4042991 Z" id="Shape"></path>
                    <path d="M14.0837904,17.6621103 C13.9438907,17.6621103 13.8039909,17.6090537 13.6971663,17.5028864 L11.6204282,15.4378682 C11.4069431,15.2255878 11.4069431,14.8813729 11.6204282,14.6690924 C11.8339134,14.4567577 12.1800273,14.4567577 12.3935672,14.6690924 L14.4703599,16.7341649 C14.6838451,16.9464453 14.6838451,17.2906603 14.4703599,17.5029407 C14.36359,17.6090537 14.2236902,17.6621103 14.0837904,17.6621103 Z" id="Shape"></path>
                    <path d="M17.1999636,16.6292479 C17.0600638,16.6292479 16.920164,16.5761913 16.8133394,16.470024 L13.6971663,13.3714367 C13.4836811,13.1591563 13.4836811,12.8149957 13.6971663,12.6026609 C13.9107062,12.3903805 14.2568747,12.3903805 14.4703599,12.6026609 L17.586533,15.7012482 C17.8000182,15.9135829 17.8000182,16.2576892 17.586533,16.470024 C17.4797631,16.5761913 17.3398633,16.6292479 17.1999636,16.6292479 Z" id="Shape"></path>
                    <path d="M19.2774123,14.563523 C19.1375125,14.563523 18.9976128,14.5104665 18.8907882,14.4042991 L15.7753257,11.3064186 C15.5618405,11.0941382 15.5618405,10.7499232 15.7753257,10.5376428 C15.9888109,10.325308 16.3349248,10.325308 16.5484647,10.5376428 L19.6639818,13.6355777 C19.877467,13.8478581 19.877467,14.1920187 19.6639818,14.4043535 C19.5572118,14.5104665 19.4173121,14.563523 19.2774123,14.563523 Z" id="Shape"></path>
                    <path d="M3.69643736,11.4651533 C3.46753531,11.4651533 3.25421412,11.3210961 3.17784055,11.0933228 L2.18000911,8.11645025 L0.1938041,6.1415086 C0.0912437358,6.03952703 0.0336765376,5.90117783 0.0337312073,5.75695762 C0.0337312073,5.61273741 0.0914077449,5.47444257 0.194077449,5.37251536 L5.39289294,0.208203317 C5.6064328,-0.00391400491 5.95238269,-0.00385964373 6.16581321,0.2083664 L8.04169476,2.07366155 C8.70133941,1.96591769 10.3697494,1.74368919 12.0497494,1.92068919 C12.3499954,1.9523274 12.5676355,2.22000184 12.5358178,2.51855344 C12.504,2.8171594 12.2349704,3.03351689 11.9345604,3.00187869 C9.98367198,2.79633907 7.98396355,3.18757647 7.96400911,3.19154484 C7.78474715,3.22720577 7.59936219,3.1714312 7.47012301,3.04292138 L5.77902506,1.36136701 L1.35373121,5.75722942 L3.0443918,7.43834889 C3.10441913,7.49809183 3.14963098,7.57082709 3.1764738,7.65084674 L4.21514351,10.749434 C4.31065148,11.0342865 4.15582688,11.3420795 3.86935763,11.4369942 C3.81206378,11.4561293 3.75373121,11.4651533 3.69643736,11.4651533 Z" id="Shape"></path>
                </g>
            </g>
        </g>
    </g>
</svg>