<?xml version="1.0" encoding="UTF-8"?>
<svg width="18px" height="18px" viewBox="0 0 18 18" version="1.1" xmlns="http://www.w3.org/2000/svg" xmlns:xlink="http://www.w3.org/1999/xlink">
    <defs></defs>
    <g id="Page-1" stroke="none" stroke-width="1" fill="none" fill-rule="evenodd">
        <g id="tt_International" transform="translate(-943.000000, -5227.000000)" fill="#C6A17C">
            <g id="noun_447674_cc" transform="translate(943.000000, 5227.000000)">
                <g id="Group">
                    <path d="M14.5905898,18 C11.2331985,18 7.76819849,16.38 5.0779811,13.5675 C2.23711153,10.5975 0.687546316,6.885 0.773633272,3.3075 L0.773633272,3.1725 L0.859720229,3.06 C1.09645936,2.745 1.33319849,2.475 1.56993762,2.205 C2.47385066,1.26 3.52841588,0.54 4.71211153,0.0675 C4.81972023,0.0225 4.94885066,0 5.0779811,0 C5.48689414,0 6.17558979,0.225 6.30472023,0.6525 C6.73515501,1.8675 7.25167675,3.465 7.63906805,4.9725 C7.70363327,5.265 7.63906805,6.12 7.23015501,6.3675 L5.85276371,7.2675 C5.76667675,7.335 5.72363327,7.425 5.70211153,7.515 C5.65906805,7.7625 5.74515501,8.0775 5.91732892,8.3475 C6.4553724,9.135 7.07950284,9.9 7.78972023,10.6425 C8.49993762,11.3625 9.23167675,12.015 9.96341588,12.5775 C10.3292854,12.87 10.8458072,12.8925 10.9749376,12.6675 L11.8573289,11.2275 C12.0725463,10.8675 12.7397202,10.7775 12.9764594,10.7775 C13.0625463,10.7775 13.1271115,10.7775 13.1916768,10.8 C14.9564594,11.205 16.0110246,11.565 17.3668941,12.2175 C17.7758072,12.42 18.0771115,13.365 17.8834159,13.8825 C17.4314594,15.12 16.7427637,16.2225 15.8388507,17.1675 C15.5805898,17.4375 15.3008072,17.685 15.0210246,17.91 L14.9564594,18 L14.5905898,18 L14.5905898,18 Z M1.54841588,3.465 C1.5053724,6.795 2.96885066,10.2375 5.5729811,12.9375 L5.63754632,13.005 C8.17711153,15.66 11.4484159,17.19 14.5905898,17.19 L14.6981985,17.19 C14.9349376,16.9875 15.150155,16.785 15.3438507,16.5825 C16.1616768,15.7275 16.7858072,14.715 17.216242,13.5675 C17.2592854,13.4325 17.1516768,13.005 17.0440681,12.915 C15.7958072,12.33 14.7842854,11.9925 13.0625463,11.5875 C12.8258072,11.5875 12.5890681,11.655 12.5245028,11.7 L11.685155,13.095 C11.3192854,13.725 10.286242,13.7925 9.55450284,13.23 C8.77972023,12.645 8.02645936,11.97 7.29472023,11.205 C6.5629811,10.44 5.91732892,9.63 5.35776371,8.82 C5.03493762,8.37 4.90580719,7.83 4.99189414,7.3575 C5.05645936,7.02 5.22863327,6.75 5.48689414,6.57 L6.86428545,5.67 C6.88580719,5.6025 6.9503724,5.265 6.92885066,5.1525 C6.5629811,3.6675 6.02493762,2.0925 5.61602458,0.9 C5.5729811,0.8775 5.31472023,0.7875 5.12102458,0.7875 L5.03493762,0.7875 C3.93732892,1.2375 2.96885066,1.89 2.15102458,2.745 C1.93580719,2.9925 1.74211153,3.2175 1.54841588,3.465 L1.54841588,3.465 Z" id="Shape"></path>
                </g>
            </g>
        </g>
    </g>
</svg>