<?xml version="1.0" encoding="UTF-8"?>
<svg width="22px" height="27px" viewBox="0 0 22 27" version="1.1" xmlns="http://www.w3.org/2000/svg" xmlns:xlink="http://www.w3.org/1999/xlink">
    <!-- Generator: Sketch 43.1 (39012) - http://www.bohemiancoding.com/sketch -->
    <title>noun_447682_cc copy 2</title>
    <desc>Created with Sketch.</desc>
    <defs></defs>
    <g id="Page-1" stroke="none" stroke-width="1" fill="none" fill-rule="evenodd">
        <g id="tt_International_new" transform="translate(-830.000000, -6246.000000)" fill="#C6A17C">
            <g id="noun_447682_cc-copy-2" transform="translate(830.000000, 6246.000000)">
                <g id="Group">
                    <g id="Shape">
                        <path d="M11,26.3175 C10.8625,26.3175 10.7525,26.2625 10.6425,26.18 C10.2025,25.795 0,17.05 0,11.0825 C0,5.005 4.9225,0.0825 11,0.0825 C17.0775,0.0825 22,5.005 22,11.0825 C22,17.05 11.7975,25.795 11.3575,26.18 C11.2475,26.2625 11.1375,26.3175 11,26.3175 L11,26.3175 Z M11,1.21 C5.555,1.21 1.1275,5.6375 1.1275,11.0825 C1.1275,15.9225 9.185,23.375 11,24.9975 C12.815,23.375 20.8725,15.9225 20.8725,11.0825 C20.8725,5.6375 16.445,1.21 11,1.21 L11,1.21 Z"></path>
                        <path d="M11,16.17 C8.195,16.17 5.9125,13.8875 5.9125,11.0825 C5.9125,8.2775 8.195,5.995 11,5.995 C13.805,5.995 16.0875,8.2775 16.0875,11.0825 C16.0875,13.8875 13.805,16.17 11,16.17 L11,16.17 Z M11,7.15 C8.8275,7.15 7.04,8.91 7.04,11.11 C7.04,13.2825 8.8,15.07 11,15.07 C13.1725,15.07 14.96,13.31 14.96,11.11 C14.96,8.91 13.1725,7.15 11,7.15 L11,7.15 Z"></path>
                    </g>
                </g>
            </g>
        </g>
    </g>
</svg>