<?xml version="1.0" encoding="UTF-8"?>
<svg width="24px" height="22px" viewBox="0 0 24 22" version="1.1" xmlns="http://www.w3.org/2000/svg" xmlns:xlink="http://www.w3.org/1999/xlink">
    <!-- Generator: Sketch 43.1 (39012) - http://www.bohemiancoding.com/sketch -->
    <title>team</title>
    <desc>Created with Sketch.</desc>
    <defs></defs>
    <g id="Page-1" stroke="none" stroke-width="1" fill="none" fill-rule="evenodd" opacity="0.5">
        <g id="menu" transform="translate(-16.000000, -362.000000)" fill-rule="nonzero" fill="#FFFFFF">
            <g id="team" transform="translate(16.000000, 362.000000)">
                <path d="M23.1680792,21.2231287 L8.2229703,21.2231287 C7.89481188,21.2231287 7.62891089,20.9572277 7.62891089,20.6290693 C7.62891089,20.5356832 7.61940594,20.3931089 7.60871287,20.2177426 C7.5219802,18.8105347 7.49536634,17.2519604 8.28427723,16.563802 C9.4849901,15.5168317 10.9071683,14.761901 12.6323168,14.2562376 L13.1928713,14.0927525 C14.0834851,13.833505 14.7913663,13.6277228 14.9360792,13.4970297 C14.9591287,13.4041188 14.9809901,13.3204752 15.0016634,13.2425347 C15.0185347,13.1786139 15.0387327,13.102099 15.0544158,13.0372277 C14.7077228,12.6691485 14.0421386,11.8403168 13.9178614,11.0095842 C13.7874059,10.128 13.6911683,9.85330693 13.6621782,9.78534653 C13.6526733,9.77750495 13.6426931,9.77013861 13.6322376,9.76205941 C13.4167129,9.59263366 13.1838416,9.37568317 12.9162772,8.75881188 C12.5291881,7.86724752 12.3906535,7.176 12.4933069,6.64633663 C12.5764752,6.21552475 12.7601584,5.97861386 12.9509703,5.83960396 C12.9493069,5.72079208 12.9478812,5.58368317 12.9478812,5.43350495 C12.9478812,4.66859406 13.5146139,2.05116832 15.2497426,0.833346535 C16.3093069,0.0898217822 17.5860594,-0.0354059406 19.048396,0.461227723 C19.9342574,0.396594059 20.7673663,0.689108911 21.4674059,1.31263366 C22.6424554,2.35960396 23.2574257,4.15865347 23.2574257,5.39429703 C23.2574257,5.51334653 23.2588515,5.61718812 23.2600396,5.70772277 C23.2607525,5.7609505 23.2614653,5.81013861 23.261703,5.85623762 C23.4009505,5.95033663 23.5511287,6.10194059 23.6573465,6.35548515 C23.9505743,7.05481188 23.5325941,8.22368317 23.2569505,8.85813861 C22.9846337,9.48641584 22.7367921,9.6819802 22.5060594,9.81790099 C22.4397624,9.9889901 22.3283168,10.4630495 22.2674851,10.9898614 C22.1662574,11.8602772 21.5108911,12.6698614 21.1197624,13.0562376 C21.134495,13.1142178 21.1530297,13.1805149 21.1684752,13.2365941 C21.1941386,13.3287921 21.2219406,13.4281188 21.2480792,13.534099 C21.3958812,13.652198 22.0552871,13.8365941 22.8154455,14.049505 L23.3296634,14.1937426 C23.6454653,14.2830891 23.8291485,14.6114851 23.7400396,14.9270495 C23.6506931,15.2428515 23.3237228,15.4258218 23.0067327,15.3374257 L22.4953663,15.1936634 C20.8826139,14.7424158 20.2792871,14.5734653 20.0977426,13.8311287 C20.0737426,13.7329901 20.0480792,13.6410297 20.0243168,13.556198 C19.9114455,13.1522376 19.7712475,12.6496634 20.1870891,12.3022574 C20.4030891,12.1211881 21.0192475,11.4399208 21.0874455,10.8534653 C21.1114455,10.6472079 21.243802,9.59453465 21.511604,9.15540594 C21.6380198,8.94748515 21.7962772,8.85647525 21.8908515,8.80205941 C21.9450297,8.77093069 22.0189307,8.72815842 22.1672079,8.3859802 C22.5326733,7.54431683 22.5927921,6.99279208 22.5654653,6.83382178 C22.0643168,6.64657426 22.0510099,6.23049505 22.0690693,6.05774257 C22.0754851,5.99643564 22.0740594,5.86978218 22.0721584,5.72340594 C22.0709703,5.62859406 22.0695446,5.51976238 22.0695446,5.39477228 C22.0695446,4.58328713 21.6375446,3.05584158 20.6773069,2.20015842 C20.193505,1.76910891 19.6445941,1.58637624 19.0429307,1.65528713 C18.9512079,1.6659802 18.8592475,1.6550495 18.7725149,1.62392079 C17.6264554,1.20950495 16.6978218,1.26938614 15.9324356,1.80641584 C14.5853465,2.75192079 14.136,4.93283168 14.136,5.4339802 C14.136,5.62170297 14.1383762,5.78851485 14.1402772,5.9230099 C14.141703,6.01877228 14.1428911,6.09908911 14.1428911,6.15992079 C14.1428911,6.2970297 14.0972673,6.62875248 13.6797624,6.7929505 C13.6740594,6.81077228 13.6666931,6.83667327 13.6600396,6.87231683 C13.6405545,6.97259406 13.6084752,7.36966337 14.006495,8.28617822 C14.1771089,8.67920792 14.2778614,8.75857426 14.3667327,8.82843564 C14.4475248,8.89211881 14.5696634,8.98788119 14.6718416,9.15516832 C14.7854257,9.34241584 14.9234851,9.6869703 15.0931485,10.8351683 C15.1763168,11.3897822 15.8136238,12.1485149 15.9958812,12.302495 C16.3931881,12.6299406 16.264396,13.1173069 16.1505743,13.5469307 C16.1308515,13.6215446 16.1094653,13.7018614 16.0883168,13.7878812 C15.9053465,14.5416238 15.3055842,14.7160396 13.5250693,15.234297 L12.9666535,15.3973069 C11.409505,15.8537822 10.1334653,16.528396 9.06510891,17.4601188 C8.67469307,17.8008713 8.74835644,19.3758416 8.78780198,20.036198 L23.1683168,20.036198 C23.4964752,20.036198 23.7623762,20.302099 23.7623762,20.6302574 C23.7623762,20.9584158 23.4962376,21.2231287 23.1680792,21.2231287 Z M15.2205149,13.2016634 C15.2257426,13.2066535 15.2314455,13.2114059 15.2369109,13.2161584 C15.2321584,13.2118812 15.2264554,13.2071287 15.2205149,13.2016634 Z M20.9510495,13.2114059 C20.9503366,13.2118812 20.9498614,13.2123564 20.9493861,13.2128317 C20.9498614,13.2123564 20.9503366,13.2118812 20.9510495,13.2114059 Z" id="Shape"></path>
                <path d="M5.74479208,19.7080396 L0.594059406,19.7080396 C0.26590099,19.7080396 0,19.4421386 0,19.1139802 C0,15.6945743 2.68205941,14.4767525 3.8350099,14.112 C4.6709703,13.8475248 4.84966337,13.3599208 4.88435644,13.2168713 C4.91762376,13.0816634 4.94091089,12.9702178 4.95730693,12.880396 C4.1289505,12.690297 2.44467327,12.2530693 2.31873267,10.9050297 C2.30162376,10.7218218 2.35081188,10.6044356 2.51334653,10.2166337 C2.78447525,9.57005941 3.34859406,8.22439604 3.36118812,7.06740594 C3.36546535,6.67556436 3.70217822,4.46732673 5.1980198,3.42986139 C5.77877228,3.02685149 6.7630099,2.65568317 8.18566337,3.12879208 C8.84910891,3.08815842 9.47049505,3.29512871 9.99659406,3.73354455 C10.951604,4.52958416 11.4589307,5.98716832 11.5261782,7.00491089 C11.6328713,8.62122772 12.1102574,9.52990099 12.3668911,10.0184554 C12.5035248,10.2791287 12.5940594,10.4514059 12.5940594,10.6678812 C12.5940594,12.0337426 11.184,12.4108515 10.506297,12.5921584 C10.425505,12.6137822 10.3207129,12.6415842 10.2605941,12.6613069 C10.0688317,12.8098218 9.79722772,12.8302574 9.57980198,12.6933861 C9.30249505,12.5182574 9.21980198,12.1511287 9.39516832,11.8738218 C9.55841584,11.6157624 9.82716832,11.5437624 10.1995248,11.444198 C10.9152475,11.2529109 11.3486733,11.0720792 11.4007129,10.7377426 C11.3781386,10.6916436 11.3441584,10.6267723 11.3149307,10.5711683 C11.0385743,10.0453069 10.4637624,8.9510495 10.3404356,7.08332673 C10.2995644,6.46312871 9.96356436,5.25291089 9.2359604,4.64649505 C8.91920792,4.38273267 8.57441584,4.27627723 8.17948515,4.32190099 C8.088,4.33283168 7.99556436,4.32166337 7.90906931,4.29053465 C7.08332673,3.99184158 6.41821782,4.02986139 5.8750099,4.40625743 C4.8280396,5.13243564 4.55168317,6.86019802 4.54930693,7.08047525 C4.53409901,8.46986139 3.90938614,9.96 3.6090297,10.6759604 C3.57885149,10.7479604 3.54629703,10.8254257 3.52229703,10.8853069 C3.70051485,11.3776634 4.91073267,11.6518812 5.32419802,11.745505 C5.6390495,11.8170297 5.78281188,11.8495842 5.92324752,11.9667327 C6.26613861,12.2511683 6.22859406,12.7247525 6.03849505,13.4989307 C5.9669703,13.7933465 5.62146535,14.7927921 4.19358416,15.2449901 C3.16324752,15.5707723 1.4920396,16.4190891 1.22471287,18.5199208 L5.74479208,18.5199208 C6.0729505,18.5199208 6.33885149,18.7858218 6.33885149,19.1139802 C6.33885149,19.4421386 6.0729505,19.7080396 5.74479208,19.7080396 Z M10.3993663,12.5085149 C10.3993663,12.5087525 10.3991287,12.5089901 10.3988911,12.5092277 C10.3991287,12.5089901 10.3991287,12.5087525 10.3993663,12.5085149 Z" id="Shape"></path>
            </g>
        </g>
    </g>
</svg>