<?xml version="1.0" encoding="UTF-8"?>
<svg width="80px" height="80px" viewBox="0 0 80 80" version="1.1" xmlns="http://www.w3.org/2000/svg" xmlns:xlink="http://www.w3.org/1999/xlink">
    <!-- Generator: Sketch 43.1 (39012) - http://www.bohemiancoding.com/sketch -->
    <title>1</title>
    <desc>Created with Sketch.</desc>
    <defs>
        <polygon id="path-1" points="79.7590909 39.850571 79.7590909 0.36243426 0 0.36243426 0 39.850571 0 79.3387077 79.7590909 79.3387077"></polygon>
    </defs>
    <g id="Page-1" stroke="none" stroke-width="1" fill="none" fill-rule="evenodd">
        <g id="tt_International_new" transform="translate(-179.000000, -1426.000000)">
            <g id="1" transform="translate(179.000000, 1426.000000)">
                <path d="M27.1333182,73.6162585 C27.1333182,73.6387979 27.0828636,73.6608866 26.9942273,73.6802705 L26.9942273,73.8682494 C27.0396818,73.8497671 27.0901364,73.8389482 27.1428636,73.8389482 C27.3565,73.8389482 27.5292273,74.0111495 27.5292273,74.2230203 L36.2092273,74.2230203 L36.2674091,72.637145 C36.2674091,72.637145 36.3005909,72.4879339 36.6015,72.4879339 L36.8024091,72.4879339 L36.8024091,70.2452592 L36.6855909,70.21145 L36.6855909,69.9797446 L37.2874091,69.9797446 L41.1237727,46.1523967 L40.8751364,46.1523967 L40.7583182,45.7773403 L39.7810455,45.7773403 L39.5133182,45.1696769 L37.3046818,45.1696769 L37.3046818,44.8590834 L37.3465,44.859985 L37.3465,41.1540496 C37.3465,40.8357926 37.3978636,40.585154 37.5196818,40.4039369 C37.6419545,40.2218182 37.8419545,40.1248986 38.0828636,40.1271525 L40.4369545,40.1271525 C40.6505909,40.1258002 40.8087727,40.1699775 40.8978636,40.301157 C40.9819545,40.4305334 40.9869545,40.5914651 40.9883182,40.81145 L40.9883182,42.4622389 L41.0837727,42.4622389 L41.0765,41.219414 C41.0878636,41.025124 41.0978636,40.7501427 41.2146818,40.5116754 C41.3310455,40.2705034 41.5792273,40.0775657 41.9974091,40.0807213 L42.1015,40.0807213 L42.1055909,40.0527724 L41.3969545,40.0527724 L41.3969545,39.6082945 L41.7705909,39.6082945 L41.7705909,39.5267017 C41.7705909,39.4987528 41.7942273,39.4762134 41.8219545,39.4762134 L41.9769545,39.4762134 C42.0051364,39.4762134 42.0278636,39.4987528 42.0278636,39.5267017 L42.0278636,39.6082945 L42.2251364,39.6082945 L42.2251364,39.5267017 C42.2251364,39.4987528 42.2478636,39.4762134 42.2769545,39.4762134 L42.4305909,39.4762134 C42.4587727,39.4762134 42.4824091,39.4987528 42.4824091,39.5267017 L42.4824091,39.6082945 L42.6542273,39.6082945 L42.8210455,38.877115 C42.6515,38.5557025 42.6196818,38.1644177 42.7687727,37.8015327 L43.2596818,36.605139 L33.2160455,32.5557025 L27.7110455,42.9364688 C27.5796818,43.173133 27.4415,43.1956724 27.2878636,43.1465364 L26.3287727,42.8030353 C26.3115,42.7980766 26.2933182,42.7904132 26.2737727,42.7827498 L26.2737727,45.489737 C26.4292273,45.4996544 26.5333182,45.517686 26.5333182,45.538873 L26.5333182,45.7705785 L26.6005909,45.7705785 C26.6592273,45.7705785 26.7051364,45.8156574 26.7051364,45.8724568 C26.7051364,45.929707 26.6592273,45.9761382 26.6005909,45.9761382 L26.5333182,45.9761382 C26.5333182,46.0144553 26.4292273,46.0324869 26.2737727,46.0415026 L26.2737727,46.2768144 C26.3660455,46.2849286 26.4233182,46.2966491 26.4233182,46.3110744 L26.4233182,46.6712547 C26.4233182,46.6847784 26.3660455,46.6969497 26.2737727,46.7050639 L26.2737727,47.1490909 C26.3169545,47.155402 26.3433182,47.1630654 26.3433182,47.1711796 L26.3433182,48.0700526 C26.3433182,48.0853794 26.2510455,48.0998047 26.1210455,48.1043125 L26.1210455,48.562314 L26.6005909,48.562314 C26.6592273,48.562314 26.7051364,48.6078437 26.7051364,48.6646431 C26.7051364,48.7218933 26.6592273,48.7678738 26.6005909,48.7678738 L26.1210455,48.7678738 L26.1210455,66.2909391 C26.2510455,66.2967994 26.3433182,66.3094215 26.3433182,66.3251991 L26.3433182,66.6159579 C26.3433182,66.6245229 26.3169545,66.6317355 26.2737727,66.6375958 L26.2737727,67.027979 C26.3169545,67.0338392 26.3433182,67.0419534 26.3433182,67.0500676 L26.3433182,67.3403757 C26.3433182,67.3493914 26.3169545,67.3561533 26.2737727,67.3629151 L26.2737727,68.1973253 C26.3646818,68.1251991 26.4805909,68.0828249 26.6051364,68.0828249 L26.6415,68.0837265 L26.6910455,67.8055898 C26.7051364,67.7469872 26.7651364,67.7109241 26.8251364,67.7262509 C26.8846818,67.7402254 26.9210455,67.8006311 26.9060455,67.8596844 L26.8192273,68.1265515 C27.0060455,68.208595 27.1383182,68.3947708 27.1383182,68.6111495 C27.1383182,68.7378212 27.0928636,68.8536739 27.0178636,68.9442825 L27.2187727,69.1448835 C27.2583182,69.1904132 27.2533182,69.2607363 27.2074091,69.3004057 C27.1610455,69.3400751 27.0905909,69.3346657 27.0510455,69.2886852 L26.8815,69.0632908 C26.8010455,69.1110744 26.7065,69.1390233 26.6051364,69.1390233 C26.4805909,69.1390233 26.3646818,69.0961983 26.2737727,69.0240721 L26.2737727,69.2170098 C26.3169545,69.22287 26.3433182,69.2305334 26.3433182,69.2386476 L26.3433182,70.1375207 C26.3433182,70.1487904 26.3010455,70.1578062 26.2333182,70.1650188 L26.2333182,70.8254245 L26.1578636,70.8912397 C26.3719545,70.9029602 26.5242273,70.9345154 26.5242273,70.9714801 L26.5242273,71.1139294 C26.5242273,71.127453 26.5037727,71.1405259 26.4674091,71.1513449 L26.4674091,71.349692 C26.8651364,71.3740346 27.1333182,71.4213674 27.1333182,71.4741097 L27.1333182,71.7161833 C27.1333182,71.7391736 27.0828636,71.7612622 26.9942273,71.7806461 L26.9942273,72.0100977 C27.0828636,72.0294816 27.1333182,72.0511195 27.1333182,72.0745605 L27.1333182,72.3166341 C27.1333182,72.3396243 27.0828636,72.361713 26.9942273,72.3801953 L26.9942273,72.8016829 C27.0828636,72.8215177 27.1333182,72.8431555 27.1333182,72.8661458 L27.1333182,73.1082194 C27.1333182,73.1312096 27.0828636,73.1532983 26.9942273,73.1726822 L26.9942273,73.3092712 C27.0828636,73.3286551 27.1333182,73.3507438 27.1333182,73.373734 L27.1333182,73.6162585 Z M24.6069545,73.6802705 C24.5178636,73.6608866 24.4687727,73.6387979 24.4687727,73.6162585 L24.4687727,73.373734 C24.4687727,73.3507438 24.5178636,73.3291059 24.6069545,73.3092712 L24.6069545,73.1722314 C24.5178636,73.1532983 24.4687727,73.1312096 24.4687727,73.1082194 L24.4687727,72.8661458 L24.1083182,72.6916905 C24.0578636,72.686281 24.0174091,72.6353418 23.9924091,72.5573554 L23.7892273,72.5384222 C23.7760455,72.5366191 23.7651364,72.5321112 23.7542273,72.5230954 C23.7310455,72.6470624 23.6987727,72.7570548 23.6610455,72.8481142 C23.5978636,72.9901127 23.5319545,73.1028099 23.4042273,73.1127273 C23.2837727,73.0960481 23.2333182,73.002284 23.1983182,72.8931931 C23.1637727,72.7809467 23.1455909,72.6326371 23.1455909,72.4653944 C23.1455909,72.410849 23.1474091,72.3545004 23.1515,72.2963486 L22.9346818,72.2756123 C22.9151364,72.27426 22.9028636,72.2395492 22.9074091,72.1980766 C22.9119545,72.1566041 22.9301364,72.124598 22.9496818,72.126852 L23.1655909,72.1475883 C23.1901364,71.9573554 23.2324091,71.787408 23.2869545,71.6566792 C23.3505909,71.5137791 23.4146818,71.4019835 23.5442273,71.3916153 C23.6665,71.4091961 23.7142273,71.5029602 23.7492273,71.6116003 C23.7837727,71.7242975 23.8019545,71.8712547 23.8019545,72.0393989 C23.8137727,72.0330879 23.8255909,72.0299324 23.8383182,72.0317355 L24.0419545,72.0511195 C24.0801364,71.979444 24.1310455,71.9370699 24.1815,71.9424793 L24.6069545,71.8288805 L24.6069545,71.7806461 C24.5178636,71.7612622 24.4687727,71.7391736 24.4687727,71.7161833 L24.4687727,71.4741097 C24.4687727,71.4069421 24.8974091,71.3501427 25.4755909,71.3348159 L25.4755909,71.1513449 C25.4378636,71.1405259 25.4174091,71.127453 25.4174091,71.1139294 L25.4174091,70.9714801 C25.4174091,70.9304583 25.6069545,70.8961983 25.8592273,70.8876334 L25.7837727,70.8254245 L25.7837727,70.1650188 C25.7165,70.1578062 25.6733182,70.1487904 25.6733182,70.1375207 L25.6733182,69.2386476 C25.6733182,69.2305334 25.6992273,69.22287 25.7428636,69.2170098 L25.7428636,68.9717806 C25.6119545,69.0502179 25.4883182,69.0723065 25.3710455,69.0556273 L25.3015,69.329707 C25.2833182,69.387408 25.2196818,69.4185124 25.1615,69.3995793 C25.1024091,69.3810969 25.0715,69.3188881 25.0910455,69.2607363 L25.1983182,69.0001803 C25.1142273,68.9573554 25.0410455,68.8910894 24.9896818,68.8054395 C24.8819545,68.6287303 24.8915,68.4150563 24.9946818,68.2518708 L24.7715,68.0778663 C24.7255909,68.0368445 24.7215,67.967423 24.7637727,67.9218933 C24.8046818,67.8768144 24.8746818,67.8736589 24.9210455,67.9146807 L25.1165,68.1175357 C25.1342273,68.1044628 25.1524091,68.0913899 25.1715,68.080571 C25.3542273,67.9710293 25.5765,67.9832006 25.7428636,68.0945455 L25.7428636,67.3629151 C25.6992273,67.3561533 25.6733182,67.3493914 25.6733182,67.3403757 L25.6733182,67.0500676 C25.6733182,67.0419534 25.6992273,67.0338392 25.7428636,67.027979 L25.7428636,66.6375958 C25.6992273,66.6317355 25.6733182,66.6245229 25.6733182,66.6159579 L25.6733182,66.3251991 C25.6733182,66.3094215 25.7655909,66.2967994 25.8946818,66.2918407 L25.8946818,48.7678738 L25.8292273,48.7678738 C25.7724091,48.7678738 25.7255909,48.7218933 25.7255909,48.6646431 C25.7255909,48.6078437 25.7724091,48.562314 25.8292273,48.562314 L25.8946818,48.562314 L25.8946818,48.1043125 C25.7655909,48.0998047 25.6733182,48.0853794 25.6733182,48.0700526 L25.6733182,47.1711796 C25.6733182,47.1630654 25.6992273,47.155402 25.7428636,47.1490909 L25.7428636,46.7050639 C25.6519545,46.6969497 25.5933182,46.6847784 25.5933182,46.6712547 L25.5933182,46.3110744 C25.5933182,46.2966491 25.6519545,46.2849286 25.7428636,46.2768144 L25.7428636,46.0415026 C25.5883182,46.0324869 25.4842273,46.0144553 25.4842273,45.9932682 L25.4842273,45.538873 C25.4842273,45.517686 25.5883182,45.4996544 25.7428636,45.489737 L25.7428636,40.984553 C25.1465,37.0901878 25.8592273,34.0518708 26.8310455,31.3304583 C27.9274091,28.2637415 29.9815,25.933163 30.9324091,24.8111495 C31.8837727,23.6895868 33.1837727,23.3100225 34.0533182,23.6318858 L35.6824091,24.2765139 C35.8105909,24.3170849 35.8278636,24.466296 35.8278636,24.466296 L36.0328636,27.2422539 L35.0074091,29.176589 L37.1424091,30.037145 L37.2433182,29.7905635 C37.3346818,29.567423 37.5505909,29.4326371 37.7783182,29.4326371 C37.8505909,29.4326371 37.9246818,29.4470624 37.9955909,29.4750113 L41.8955909,31.0464613 C42.1192273,31.1375207 42.2555909,31.3516454 42.2555909,31.5783922 C42.2555909,31.6496168 42.2410455,31.7230954 42.2124091,31.7943201 L42.1110455,32.0404508 L42.4424091,32.1743351 C42.6233182,31.8916905 42.8442273,31.7064162 43.0624091,31.700556 C43.1015,31.700556 43.1401364,31.7064162 43.1774091,31.7208415 C43.3533182,31.7961232 43.4196818,32.0003306 43.4205909,32.2396995 C43.4205909,32.3379715 43.4087727,32.4430053 43.3851364,32.5543501 L48.3510455,34.5567543 C48.5405909,34.2191134 48.7874091,33.9901127 49.0296818,33.9824493 C49.0692273,33.9824493 49.1078636,33.9901127 49.1451364,34.0049887 C49.3210455,34.0793689 49.3874091,34.2831255 49.3883182,34.5215928 C49.3874091,34.6527724 49.3665,34.7979264 49.3255909,34.9493914 L50.2965,35.3406762 L50.3978636,35.0940947 C50.4887727,34.871405 50.7046818,34.7361683 50.9328636,34.7361683 C51.0065,34.7361683 51.0792273,34.7501427 51.1510455,34.7789932 L55.0496818,36.3504433 C55.2742273,36.4410518 55.4096818,36.6556273 55.4096818,36.8819234 C55.4096818,36.9535988 55.3960455,37.0266266 55.3678636,37.0978512 L55.2660455,37.3444328 L59.5124091,39.0560781 L58.0705909,42.5767393 L57.8255909,42.4784673 L57.7151364,42.6272276 L57.4928636,42.5532983 C57.4660455,42.6898873 57.3446818,42.7922164 57.1987727,42.7922164 C57.0915,42.7922164 56.9969545,42.7372201 56.9446818,42.6533734 L56.2996818,43.3227949 L56.2801364,43.3732832 L56.8019545,44.2036364 C56.8019545,44.2036364 56.7578636,44.0715552 56.8910455,44.0129527 C57.0242273,43.9543501 57.0837727,44.1008565 57.0837727,44.1008565 L57.3196818,44.3064162 L58.2983182,44.277115 C58.2983182,44.277115 58.6674091,44.2622389 58.7719545,44.4236213 C58.8128636,44.4889857 58.9437727,44.6733584 59.0869545,44.8708039 L59.3083182,44.7585575 L59.3374091,44.7441322 C59.4378636,44.6990533 59.5501364,44.7094215 59.6415,44.7612622 C59.7265,44.7490909 59.8133182,44.7946206 59.8510455,44.8784673 C59.8855909,44.9537491 59.8705909,45.0375958 59.8201364,45.0934936 C59.8178636,45.1318107 59.8083182,45.1692261 59.7942273,45.2034861 L60.1187727,45.9810969 C60.2824091,46.3629151 60.0010455,46.5689256 60.0010455,46.5689256 L59.7578636,46.7519459 L62.2965,52.4129527 L63.2046818,52.9493914 C63.3205909,53.0061908 63.3919545,53.0652442 63.4369545,53.1288054 L64.0928636,51.9563035 C64.1615,51.8197145 64.2992273,51.8197145 64.2992273,51.8197145 L64.5901364,51.8197145 C64.7128636,51.8197145 64.7896818,51.8877836 64.7896818,51.8877836 L66.8178636,53.0877836 C67.0860455,53.21716 67.1087727,53.3605109 67.1428636,53.5358678 C67.4137727,55.7668219 67.3560455,57.5492412 67.1183182,58.9777911 C67.4646818,59.1567543 67.7042273,59.5435312 67.7042273,59.9911645 C67.7042273,60.2386476 67.6315,60.4676484 67.5074091,60.6524718 L68.3633182,62.0936439 C68.4392273,61.8538242 68.5146818,61.6933434 68.5910455,61.5833509 C68.7060455,61.4102479 68.8533182,61.3638167 68.9587727,61.367423 C69.0555909,61.3656198 69.2110455,61.3877085 69.3305909,61.5242975 C69.4487727,61.659985 69.5251364,61.8871826 69.5251364,62.2766642 L69.5251364,62.9023591 L71.7996818,64.3115252 C71.9124091,64.3813974 71.8978636,64.5076183 71.8978636,64.5076183 L70.8805909,66.3319609 L70.9210455,66.4018332 C71.2333182,66.1137791 71.6510455,65.938873 72.1110455,65.938873 L72.4024091,65.9618633 L72.4024091,65.8901878 C72.3124091,65.8374455 72.2533182,65.7315101 72.2524091,65.6192637 C72.2533182,65.4903381 72.3378636,65.3898122 72.4542273,65.3907137 C72.4678636,65.390263 72.4833182,65.3920661 72.4983182,65.3952216 C72.6274091,65.4249737 72.7174091,65.5538993 72.7192273,65.6918407 C72.7192273,65.7968745 72.6660455,65.8816228 72.5860455,65.9118257 L72.5860455,65.9771901 L73.4410455,66.0497671 C74.3396818,66.1218933 75.0455909,66.8665965 75.0455909,67.7771901 C75.0455909,68.1220436 74.9451364,68.4430053 74.7692273,68.7134786 L74.7692273,70.1789932 L75.5710455,70.1789932 L75.7219545,69.9797446 L77.7142273,69.9797446 L77.7142273,70.21145 L77.5974091,70.2452592 L77.5974091,72.4879339 L77.7983182,72.4879339 C78.1005909,72.4879339 78.1333182,72.637145 78.1333182,72.637145 L78.1915,74.2230203 L79.7587727,74.2230203 L79.7587727,75.2332382 L4.68968182,75.2332382 L4.68968182,74.2230203 L22.7528636,74.2230203 C22.7592273,74.2049887 22.7710455,74.1932682 22.7833182,74.1932682 L23.0383182,74.1932682 C23.0451364,73.9962735 23.0765,73.8191134 23.1251364,73.6820736 C23.1805909,73.5319609 23.2515,73.4116003 23.3883182,73.4039369 C23.5246818,73.4116003 23.5965,73.5319609 23.6524091,73.6820736 C23.6869545,73.7803456 23.7128636,73.8989031 23.7265,74.0300826 C23.7419545,74.0197145 23.7578636,74.0134035 23.7737727,74.0134035 L24.0060455,74.0134035 C24.0419545,73.9385725 24.0933182,73.8912397 24.1505909,73.8912397 L24.6069545,73.741127 L24.6069545,73.6802705 Z M23.1737727,74.1932682 L23.3065,74.1932682 C23.3178636,74.1121262 23.3496818,74.0458603 23.3892273,74.014305 L23.3096818,73.6058903 C23.2892273,73.6360932 23.2687727,73.6757626 23.2515,73.7267017 C23.2096818,73.8452592 23.1805909,74.0093464 23.1737727,74.1932682 L23.1737727,74.1932682 Z M23.5819545,74.1932682 C23.5965,74.0093464 23.5660455,73.8452592 23.5246818,73.7267017 C23.4783182,73.5878588 23.4087727,73.5306086 23.3883182,73.5378212 L23.4783182,74.0012322 C23.5278636,74.0255748 23.5674091,74.0986026 23.5819545,74.1932682 L23.5819545,74.1932682 Z M23.3942273,72.3197896 L23.2860455,72.3094215 C23.2815,72.3630654 23.2805909,72.4149061 23.2805909,72.4653944 C23.2792273,72.5149812 23.2815,72.5632156 23.2851364,72.6082945 L23.4065,72.4099474 C23.4001364,72.3833509 23.3955909,72.3517956 23.3942273,72.3197896 L23.3942273,72.3197896 Z M23.6355909,72.4288805 C23.5837727,72.4883847 23.5396818,72.5352667 23.4965,72.5307588 C23.4805909,72.5289557 23.4655909,72.5203907 23.4524091,72.506867 L23.3033182,72.7516454 C23.3201364,72.8494666 23.3474091,72.9220436 23.3742273,72.9558527 C23.3892273,72.9747859 23.3987727,72.9779414 23.4019545,72.978843 C23.4055909,72.9797446 23.4269545,72.9738843 23.4533182,72.9418783 C23.4792273,72.9121262 23.5096818,72.8616379 23.5365,72.7971751 C23.5765,72.701157 23.6105909,72.5735838 23.6355909,72.4288805 L23.6355909,72.4288805 Z M23.4942273,72.0037866 L23.4646818,71.6025845 C23.4751364,71.5863561 23.4851364,71.5732832 23.4942273,71.5620135 C23.5183182,71.5340646 23.5365,71.526852 23.5428636,71.5254996 L23.5846818,71.9988279 C23.6224091,72.0294816 23.6483182,72.1038618 23.6515,72.1944703 C23.6655909,72.141728 23.6674091,72.0894365 23.6665,72.0393989 C23.6687727,71.8036364 23.6233182,71.6097971 23.5728636,71.5493914 L23.5428636,71.5254996 C23.5365,71.526852 23.5183182,71.5340646 23.4942273,71.5620135 C23.4851364,71.5732832 23.4751364,71.5863561 23.4646818,71.6025845 C23.4474091,71.6309842 23.4287727,71.6661458 23.4115,71.7085199 C23.3633182,71.8225695 23.3237727,71.9812472 23.2996818,72.1606612 L23.4096818,72.1710293 C23.4269545,72.094846 23.4578636,72.0335387 23.4942273,72.0037866 L23.4942273,72.0037866 Z M26.2737727,68.3898122 L26.2737727,68.6323366 L26.4765,68.5872577 C26.4855909,68.5381217 26.5219545,68.4980015 26.5710455,68.4853794 L26.6255909,68.1725319 C26.4992273,68.1725319 26.4024091,68.2094966 26.3255909,68.2712547 C26.3365,68.3185875 26.3151364,68.3663711 26.2737727,68.3898122 L26.2737727,68.3898122 Z M25.7428636,68.7783922 L25.7428636,68.5173854 L25.5751364,68.5557025 C25.5692273,68.5917656 25.5474091,68.6242224 25.5142273,68.6445079 C25.5001364,68.6521713 25.4865,68.6584823 25.4715,68.6611871 L25.3937727,68.9677235 C25.4874091,68.9798948 25.5865,68.9609617 25.6746818,68.909121 C25.6924091,68.8978512 25.7096818,68.8883847 25.7255909,68.8757626 C25.7151364,68.8410518 25.7224091,68.8054395 25.7428636,68.7783922 L25.7428636,68.7783922 Z M25.7428636,68.3591585 L25.7428636,68.2076935 C25.6024091,68.0810218 25.3892273,68.0544252 25.2174091,68.1576559 L25.1787727,68.1824493 L25.3996818,68.4105485 C25.4465,68.3934185 25.5001364,68.4037866 25.5369545,68.4384974 L25.7428636,68.3591585 Z M25.3196818,68.5056649 L25.0660455,68.3073178 C24.9851364,68.4421037 24.9801364,68.6156574 25.0669545,68.7594591 C25.1092273,68.8275282 25.1660455,68.8807213 25.2324091,68.9172352 L25.3519545,68.6242224 C25.3151364,68.5705785 25.3124091,68.5367693 25.3196818,68.5056649 L25.3196818,68.5056649 Z M26.5174091,68.704012 L26.2737727,68.7955222 L26.2737727,68.9014576 C26.3546818,68.9920661 26.4733182,69.0497671 26.6051364,69.0497671 C26.6860455,69.0497671 26.7624091,69.02858 26.8265,68.990263 L26.6365,68.738272 C26.6269545,68.7405259 26.6160455,68.7418783 26.6051364,68.7418783 C26.5696818,68.7418783 26.5405909,68.7270023 26.5174091,68.704012 L26.5174091,68.704012 Z M26.7274091,68.6539745 L26.9546818,68.8802705 C27.0124091,68.8063411 27.0483182,68.712577 27.0483182,68.6111495 C27.0483182,68.4344403 26.9424091,68.2816228 26.7901364,68.2126521 L26.6919545,68.5133283 C26.7192273,68.5367693 26.7374091,68.5719309 26.7374091,68.6111495 C26.7374091,68.6269271 26.7319545,68.64 26.7274091,68.6539745 L26.7274091,68.6539745 Z M38.1319545,69.9797446 L38.6792273,69.9797446 L38.8296818,70.1789932 L39.3055909,70.1789932 L39.7601364,66.6569797 L39.3705909,66.6569797 L38.9910455,69.0150563 L38.6910455,68.9677235 L39.0628636,66.6569797 L38.6674091,66.6569797 L38.1319545,69.9797446 Z M40.1469545,70.1789932 L42.2328636,70.1789932 L42.2328636,66.6024343 L42.5896818,66.6024343 L40.6883182,65.9853043 L40.1469545,70.1789932 Z M42.5942273,70.1789932 L43.6451364,70.1789932 L42.5942273,68.0886852 L42.5942273,70.1789932 Z M43.8474091,70.1789932 L43.8969545,70.1789932 L43.8969545,67.0261758 L43.6915,66.9590083 L42.5942273,66.9590083 L42.5942273,67.689737 L43.8474091,70.1789932 Z M44.0774091,70.1789932 L45.9478636,70.1789932 L46.3915,69.1989782 L44.0774091,69.1989782 L44.0774091,70.1789932 Z M46.1451364,70.1789932 L47.0160455,70.1789932 L47.0160455,69.1989782 L46.5883182,69.1989782 L46.1451364,70.1789932 Z M47.3760455,70.1789932 L47.7555909,70.1789932 L47.7555909,69.1989782 L47.3760455,69.1989782 L47.3760455,70.1789932 Z M47.9355909,70.1789932 L48.8455909,70.1789932 L48.8455909,68.6309842 L47.9355909,68.3352667 L47.9355909,70.1789932 Z M49.0260455,70.1789932 L50.1383182,70.1789932 L50.1851364,69.4216679 L49.0260455,69.4216679 L49.0260455,70.1789932 Z M53.0324091,70.1789932 L53.8578636,70.1789932 L53.7015,69.5821488 L53.0324091,69.3644177 L53.0324091,70.1789932 Z M66.6960455,70.1789932 L67.6405909,70.1789932 L67.6405909,69.2134035 L66.6960455,69.2134035 L66.6960455,70.1789932 Z M67.8215,70.1789932 L67.8515,70.1789932 L67.8515,68.5484899 L67.8215,68.5484899 L67.8215,70.1789932 Z M68.0319545,70.1789932 L69.0028636,70.1789932 L69.0028636,68.5484899 L68.0319545,68.5484899 L68.0319545,70.1789932 Z M69.5251364,70.1789932 L69.6265,70.1789932 L69.6265,69.5938693 L69.5251364,69.5938693 L69.5251364,70.1789932 Z M69.9860455,70.1789932 L70.3469545,70.1789932 L70.0369545,69.5938693 L69.9860455,69.5938693 L69.9860455,70.1789932 Z M70.5519545,70.1789932 L70.6174091,70.1789932 L70.6174091,69.5938693 L70.2396818,69.5938693 L70.5519545,70.1789932 Z M51.5251364,66.1832006 L52.4410455,66.1832006 L52.5160455,66.0475131 L51.5501364,66.0475131 L51.4983182,66.0610368 L51.5251364,66.1832006 Z M52.1669545,66.6723065 L51.6315,66.6723065 L51.6983182,66.9729827 L51.9992273,66.9729827 L52.1669545,66.6723065 Z M49.2628636,55.8641923 L50.1142273,55.8641923 L48.8919545,51.1886101 L48.3015,51.4825244 L49.2628636,55.8641923 Z M50.2415,56.3523967 L49.3687727,56.3523967 L49.7565,58.1185875 L50.8137727,58.538272 L50.2415,56.3523967 Z M41.7933182,49.7023591 L41.3974091,49.7023591 L41.2474091,50.6372953 L41.6396818,50.6544252 L41.7933182,49.7023591 Z M39.8946818,59.0309842 L40.2915,59.0309842 L40.3787727,58.4850789 L39.9865,58.4683997 L39.8946818,59.0309842 Z M40.5987727,59.0309842 L40.7460455,59.0309842 L41.1428636,55.9566041 L41.0969545,55.9381217 L40.5987727,59.0309842 Z M40.6833182,59.5196394 L40.5192273,59.5196394 L39.9337727,63.1602104 L40.2260455,63.0497671 L40.6833182,59.5196394 Z M40.2128636,59.5196394 L39.8165,59.5196394 L39.7842273,59.7247483 L40.1765,59.7414275 L40.2128636,59.5196394 Z M42.0855909,47.883426 L41.6928636,47.8658452 L41.4910455,49.1226446 L41.8833182,49.1397746 L42.0855909,47.883426 Z M41.7342273,47.607994 L42.1274091,47.625124 L42.2715,46.7312096 L41.9083182,46.5270023 L41.7342273,47.607994 Z M41.5987727,50.9127273 L41.2051364,50.8955973 L41.0033182,52.1510443 L41.3969545,52.1686251 L41.5987727,50.9127273 Z M41.3546818,52.4273779 L40.9615,52.4097971 L40.8065,53.3717806 L41.2374091,53.1567543 L41.3546818,52.4273779 Z M40.6228636,56.970879 L40.2301364,56.9537491 L40.0274091,58.2100977 L40.4201364,58.2263261 L40.6228636,56.970879 Z M40.2710455,56.695447 L40.6651364,56.712577 L40.8074091,55.8236213 L40.4360455,55.6753118 L40.2710455,56.695447 Z M40.1351364,60.0001803 L39.7424091,59.9835011 L39.5401364,61.2389482 L39.9324091,61.2560781 L40.1351364,60.0001803 Z M39.8919545,61.5143802 L39.4983182,61.4972502 L39.2965,62.7535988 L39.6887727,62.770278 L39.8919545,61.5143802 Z M39.6474091,63.0290308 L39.2542273,63.0123516 L39.1860455,63.4410518 L39.6065,63.2837265 L39.6474091,63.0290308 Z M38.7460455,66.1687754 L39.1428636,66.1687754 L39.2465,65.518287 L38.8705909,65.3970248 L38.7460455,66.1687754 Z M39.4487727,66.1687754 L39.8242273,66.1687754 L39.8810455,65.7238467 L39.5392273,65.6129527 L39.4487727,66.1687754 Z M69.3451364,62.7905635 L69.3451364,62.2766642 C69.3451364,61.9079189 69.2701364,61.7262509 69.1951364,61.6419534 C69.1196818,61.5581067 69.0369545,61.5472878 68.9587727,61.5459354 C68.8896818,61.5504433 68.8383182,61.5504433 68.7392273,61.6852292 C68.6674091,61.7871074 68.5842273,61.9665214 68.4987727,62.266296 L69.3451364,62.7905635 Z M68.0319545,66.2377461 L68.0319545,66.6389482 L68.6515,66.6389482 L68.0319545,66.2377461 Z M68.0319545,67.0789181 L68.0319545,67.9178362 L69.0024091,67.9178362 L69.0024091,67.326852 L68.0319545,67.0789181 Z M68.0319545,68.3699775 L69.0028636,68.3699775 L69.0028636,68.0972502 L68.0319545,68.0972502 L68.0319545,68.3699775 Z M67.8215,68.3699775 L67.8515,68.3699775 L67.8515,68.0972502 L67.8215,68.0972502 L67.8215,68.3699775 Z M67.8515,67.9178362 L67.8515,67.0329376 L67.8215,67.0252742 L67.8215,67.9178362 L67.8515,67.9178362 Z M67.8515,66.6389482 L67.8515,66.1209917 L67.4615,65.8680992 L67.1205909,66.477115 L67.7546818,66.6389482 L67.8515,66.6389482 Z M69.5251364,67.3669722 L69.5251364,68.2527724 L69.5883182,68.3699775 L69.6260455,68.3699775 L69.6260455,67.3669722 L69.5251364,67.3669722 Z M69.5251364,68.6345905 L69.5251364,69.4158077 L69.6260455,69.4158077 L69.6260455,68.8234711 L69.5251364,68.6345905 Z M70.8233182,66.500556 L70.8042273,66.4680992 L70.7142273,66.6299324 C70.7483182,66.5844027 70.7846818,66.5415778 70.8233182,66.500556 L70.8233182,66.500556 Z M68.1987727,62.0796694 L67.4192273,60.767423 C67.2987727,60.9053644 67.1474091,61.008595 66.9760455,61.0644929 L67.1724091,61.3200902 C67.2237727,61.3841022 67.2692273,61.4539745 67.3065,61.5270023 L68.1987727,62.0796694 Z M69.9860455,69.1178362 L70.1451364,69.4158077 L70.6174091,69.4158077 L70.6174091,68.5750864 L70.6019545,68.5484899 L69.9860455,68.5484899 L69.9860455,69.1178362 Z M70.5096818,68.3699775 C70.4151364,68.1576559 70.3624091,67.9209917 70.3624091,67.6726071 C70.3624091,67.568024 70.3719545,67.4652442 70.3892273,67.3669722 L70.3019545,67.3669722 L70.2183182,67.5170849 L70.0060455,67.5170849 L69.9860455,68.3699775 L70.5096818,68.3699775 Z M72.4992273,65.8324869 L72.5355909,65.8324869 C72.5860455,65.8234711 72.6260455,65.7779414 72.6292273,65.6999549 C72.6305909,65.5949211 72.5560455,65.4966491 72.4787727,65.4826747 C72.3933182,65.4804207 72.3455909,65.5277536 72.3424091,65.6170098 C72.3433182,65.7224944 72.4165,65.81716 72.4915,65.8315853 L72.4992273,65.8324869 Z M72.4992273,65.8324869 L72.5355909,65.8324869 L72.4992273,65.8324869 Z M50.1951364,69.2431555 L50.2065,69.0718557 L49.0260455,68.689136 L49.0260455,69.2431555 L50.1951364,69.2431555 Z M52.0992273,68.3803456 L52.4810455,68.3803456 L51.8960455,67.8736589 L51.9992273,68.347438 L52.0992273,68.3803456 Z M44.0774091,69.0204658 L46.4724091,69.0204658 L46.8955909,68.0823742 L44.0774091,68.0823742 L44.0774091,69.0204658 Z M46.6692273,69.0204658 L47.0160455,69.0204658 L47.0160455,68.2536739 L46.6692273,69.0204658 Z M47.3760455,69.0204658 L47.7555909,69.0204658 L47.7555909,68.277115 L47.3760455,68.1545004 L47.3760455,69.0204658 Z M44.0774091,67.903411 L46.6024091,67.903411 L44.0774091,67.0847784 L44.0774091,67.903411 Z M66.6960455,69.0348911 L67.6405909,69.0348911 L67.6405909,68.5484899 L66.6960455,68.5484899 L66.6960455,69.0348911 Z M65.9337727,67.9178362 L67.6405909,67.9178362 L67.6405909,66.995973 L66.8315,66.995973 L66.5765,67.4530729 L66.3651364,67.4530729 L65.8328636,67.1077686 L65.9337727,67.9178362 Z M67.6405909,68.0972502 L65.9560455,68.0972502 L65.9737727,68.2356424 L66.6455909,68.2356424 C66.6733182,68.2356424 66.6960455,68.2590834 66.6960455,68.2874831 L66.6960455,68.3699775 L67.6405909,68.3699775 L67.6405909,68.0972502 Z M49.0260455,67.3300075 L49.0260455,67.3841022 L51.0801364,68.0499174 L50.9219545,67.3300075 L49.0260455,67.3300075 Z M47.7555909,66.9729827 L47.7133182,66.9590083 L47.7555909,66.9729827 Z M47.9355909,66.9590083 L50.8446818,66.9729827 L50.6905909,66.27426 L48.0928636,66.9590083 L47.9355909,66.9590083 Z M69.2028636,66.995973 L69.1528636,66.995973 L69.2055909,67.0094966 L69.2028636,66.995973 Z M46.6128636,66.6024343 L48.0451364,66.6024343 L50.6146818,65.9248986 L49.5569545,61.1046131 L40.8987727,64.3579564 L40.8510455,64.7330128 L46.6128636,66.6024343 Z M51.4219545,65.7116754 L51.5024091,65.6904884 L52.6837727,65.6904884 L51.3119545,60.4446582 L50.3455909,60.807994 L51.4219545,65.7116754 Z M51.7996818,67.3300075 L51.7828636,67.3593088 L51.7996818,67.3300075 Z M44.6955909,44.859985 L44.6955909,43.9895116 L43.4951364,44.859985 L44.6955909,44.859985 Z M44.6955909,43.1875582 L44.6955909,42.9752367 L43.5551364,43.8006311 L43.5251364,44.0354921 L44.6955909,43.1875582 Z M44.6955909,42.1732832 L44.6955909,41.1206912 L43.9015,41.1206912 L43.7278636,42.4622389 L44.2965,42.4622389 L44.6955909,42.1732832 Z M44.8760455,41.1206912 L44.8760455,42.0425545 L45.3078636,41.7292562 L45.1746818,41.1206912 L44.8760455,41.1206912 Z M44.8760455,42.8449587 L44.8760455,43.0568295 L45.4519545,42.6403005 L45.1578636,42.6403005 L44.8760455,42.8449587 Z M44.8760455,43.8596844 L44.8760455,44.859985 L45.9951364,44.859985 L45.6519545,43.2970999 L44.8760455,43.8596844 Z M49.0560455,44.859985 C49.0751364,44.5854545 49.1087727,44.1161833 49.1424091,43.6252742 C49.1655909,43.2889857 49.1883182,42.9409767 49.2065,42.6403005 L48.7796818,42.6403005 L48.7810455,44.859985 L49.0560455,44.859985 Z M49.2174091,42.4622389 C49.2355909,42.1642675 49.2460455,41.9343651 49.2460455,41.8415026 C49.2474091,41.6381968 49.2310455,41.501157 49.1892273,41.4344403 C49.1505909,41.3735838 49.0946818,41.3384222 48.9219545,41.3357175 L48.7796818,41.3357175 L48.7796818,42.4622389 L49.2174091,42.4622389 Z M48.6005909,41.3357175 L48.5019545,41.3357175 L48.4815,42.4622389 L48.6005909,42.4622389 L48.6005909,41.3357175 Z M48.5019545,41.1567543 L48.6005909,41.1567543 L48.6005909,40.81145 C48.6010455,40.5914651 48.6069545,40.4305334 48.6905909,40.301157 C48.7792273,40.1699775 48.9374091,40.1258002 49.1515,40.1271525 L51.5060455,40.1271525 C51.7465,40.1248986 51.9465,40.2218182 52.0678636,40.4039369 C52.1905909,40.585154 52.2419545,40.8357926 52.2419545,41.1540496 L52.2419545,44.859985 L52.2665,45.1696769 L50.0642273,45.1696769 L50.0642273,45.427979 L49.5433182,45.9067168 L48.7346818,45.9450338 L48.5787727,46.0739594 L48.5301364,46.5112246 L53.2815,64.6807213 L54.5596818,62.396574 C54.5983182,62.381698 54.6424091,62.373133 54.6919545,62.3758377 C54.8319545,62.3848535 55.1701364,62.3825995 55.4019545,62.379444 L55.0937727,60.150293 L54.8296818,59.9803456 L54.4887727,60.5258002 C54.4887727,60.5258002 54.4251364,60.5803456 54.3401364,60.5248986 C54.2565,60.4680992 54.2701364,60.3842524 54.2701364,60.3842524 L54.5951364,59.7545004 L53.7201364,59.208595 L54.1574091,58.4665965 L54.4251364,58.4246732 L54.8624091,58.6072427 L55.0746818,58.1722314 L54.4960455,57.8088956 L54.7787727,57.3049136 L55.2010455,57.2206161 L55.7624091,57.5514951 C56.2542273,56.9519459 56.9942273,56.5444328 57.9355909,56.3767393 L58.3269545,55.6753118 L54.4796818,47.0981518 C54.3546818,47.1333133 54.2951364,47.0995041 54.2951364,47.0995041 L53.9746818,47.1270023 C53.7524091,47.1130278 53.6546818,46.8231705 53.6546818,46.8231705 L53.2310455,46.0545755 L53.1751364,46.0545755 C53.0192273,46.0545755 52.8937727,45.8972502 52.8937727,45.7029602 C52.8937727,45.5086702 53.0192273,45.3513449 53.1751364,45.3513449 L53.7428636,45.3513449 L53.6769545,45.0993539 C53.6769545,45.0993539 53.5874091,44.9523967 53.8987727,44.7184373 L54.0769545,44.5854545 C54.0769545,44.5854545 54.2842273,44.4236213 54.6401364,44.4091961 L54.9210455,44.4091961 L54.8442273,44.0454095 C54.3728636,43.8975507 54.0296818,43.4593839 54.0296818,42.9409767 C54.0296818,42.6961983 54.1060455,42.4690008 54.2374091,42.2819234 L54.1801364,41.8162585 L53.8965,41.6345905 L53.8865,41.3167844 C53.7596818,41.2960481 53.6628636,41.1869572 53.6628636,41.0557776 C53.6628636,40.9683246 53.7051364,40.8907889 53.7705909,40.843456 L46.5660455,37.9385725 L46.0633182,39.1642675 L46.1655909,39.314831 L46.1655909,39.4762134 L46.1978636,39.4762134 C46.2274091,39.4762134 46.2501364,39.4987528 46.2501364,39.5267017 L46.2501364,39.6159579 L46.4474091,39.6186627 L46.4474091,39.5267017 C46.4474091,39.4987528 46.4701364,39.4762134 46.4983182,39.4762134 L46.6528636,39.4762134 C46.6810455,39.4762134 46.7037727,39.4987528 46.7037727,39.5267017 L46.7037727,39.6159579 L47.3687727,39.6186627 L47.3687727,40.0527724 L46.8415,40.0527724 L46.8492273,40.0807213 L47.6051364,40.0807213 C47.9401364,40.0789181 48.1815,40.2173103 48.3187727,40.4372953 C48.4437727,40.63429 48.4928636,40.8844778 48.5019545,41.1567543 L48.5019545,41.1567543 Z M48.7796818,41.1567543 L48.9219545,41.1567543 C49.1160455,41.1540496 49.2678636,41.2103982 49.3455909,41.3442825 C49.4192273,41.4732081 49.4260455,41.6323366 49.4269545,41.8415026 C49.4269545,41.9393238 49.4155909,42.1678738 49.3978636,42.4622389 L51.1705909,42.4622389 L51.2333182,42.0335387 C51.2796818,41.7301578 51.3496818,41.4912397 51.4951364,41.3199399 C51.6251364,41.1662209 51.8142273,41.0828249 52.0605909,41.0679489 C52.0519545,40.8119008 52.0015,40.6239219 51.9183182,40.504012 C51.8274091,40.3714801 51.7037727,40.3079189 51.5060455,40.3061157 L49.1515,40.3061157 C48.9510455,40.3065665 48.8778636,40.3430804 48.8401364,40.4003306 C48.7969545,40.4598347 48.7792273,40.5964237 48.7796818,40.81145 L48.7796818,41.1567543 Z M49.3874091,42.6403005 C49.3419545,43.3746356 49.2701364,44.3889106 49.2365,44.859985 L50.8219545,44.859985 L51.1442273,42.6403005 L49.3874091,42.6403005 Z M52.0624091,41.2469121 C51.8542273,41.2622389 51.7269545,41.3253494 51.6324091,41.4357926 C51.5242273,41.5620135 51.4555909,41.7698272 51.4101364,42.060586 L51.3519545,42.4622389 L52.0624091,42.4622389 L52.0624091,41.2469121 Z M51.3265,42.6403005 L51.0042273,44.859985 L52.0624091,44.859985 L52.0624091,42.6403005 L51.3265,42.6403005 Z M37.5255909,42.4622389 L38.2892273,42.4622389 L38.2374091,41.8239219 C38.2160455,41.4641923 38.1465,41.2865815 38.0374091,41.2004808 C37.9428636,41.1188881 37.7796818,41.0882344 37.5274091,41.0841773 L37.5255909,41.1540496 L37.5255909,42.4622389 Z M38.4696818,42.4622389 L40.1305909,42.4622389 L40.1305909,41.8640421 C40.1305909,41.5146807 40.1678636,41.2694515 40.2928636,41.0963486 C40.4055909,40.9421788 40.5828636,40.8741097 40.8087727,40.8619384 L40.8087727,40.81145 C40.8096818,40.5964237 40.7915,40.4602855 40.7483182,40.4003306 C40.7096818,40.3430804 40.6365,40.3065665 40.4369545,40.3061157 L38.0828636,40.3061157 C37.8851364,40.3079189 37.7615,40.3714801 37.6701364,40.504012 C37.6055909,40.5968745 37.5610455,40.7316604 37.5401364,40.9056649 C37.7983182,40.9110744 37.9987727,40.9385725 38.1524091,41.0625394 C38.3242273,41.2058903 38.3928636,41.4407513 38.4169545,41.810849 L38.4696818,42.4622389 Z M40.3096818,42.4622389 L40.8087727,42.4622389 L40.8087727,41.0413524 C40.6174091,41.0539745 40.5101364,41.1049136 40.4383182,41.2013824 C40.3528636,41.3145304 40.3087727,41.526852 40.3096818,41.8640421 L40.3096818,42.4622389 Z M41.2642273,42.4622389 L41.7178636,42.4622389 L42.0728636,40.2596844 L41.9974091,40.2596844 C41.6310455,40.2641923 41.4751364,40.4021337 41.3769545,40.5905635 C41.2819545,40.7812472 41.2665,41.0332382 41.2555909,41.227979 L41.2642273,42.4622389 Z M42.5624091,42.4622389 L42.8860455,42.4622389 L43.0346818,41.317686 L42.8996818,41.3695267 L42.7378636,41.3740346 L42.5624091,42.4622389 Z M45.4046818,42.4622389 L45.4696818,42.4622389 L45.4605909,42.4221187 L45.4046818,42.4622389 Z M47.4719545,42.4622389 L48.3005909,42.4622389 L48.3233182,41.2460105 C48.3237727,40.9575056 48.2769545,40.7032607 48.1669545,40.5324117 C48.0565,40.3633659 47.8942273,40.2623892 47.6051364,40.2596844 L46.8955909,40.2596844 L47.4719545,42.4622389 Z M48.6005909,42.6403005 L48.4774091,42.6403005 L48.4369545,44.859985 L48.6005909,44.859985 L48.6005909,42.6403005 Z M48.2974091,42.6403005 L47.5183182,42.6403005 L48.0983182,44.859985 L48.2565,44.859985 L48.2974091,42.6403005 Z M46.6560455,42.6403005 L46.5601364,42.6403005 L46.3892273,42.7638167 L46.8492273,44.859985 L47.2365,44.859985 L46.6560455,42.6403005 Z M44.0492273,42.6403005 L43.7042273,42.6403005 L43.6692273,42.9157325 L44.0492273,42.6403005 Z M42.8637727,42.6403005 L42.5342273,42.6403005 L42.3346818,43.8813223 L42.7415,43.5869572 L42.8637727,42.6403005 Z M41.6887727,42.6403005 L41.2655909,42.6403005 L41.2796818,44.859985 L41.3319545,44.859985 L41.6887727,42.6403005 Z M41.0846818,42.6403005 L40.9883182,42.6403005 L40.9883182,44.859985 L41.0992273,44.859985 L41.0846818,42.6403005 Z M40.3096818,44.859985 L40.8087727,44.859985 L40.8087727,42.6403005 L40.3096818,42.6403005 L40.3096818,44.859985 Z M40.1305909,42.6403005 L38.4842273,42.6403005 L38.6619545,44.859985 L40.1305909,44.859985 L40.1305909,42.6403005 Z M38.3028636,42.6403005 L37.5255909,42.6403005 L37.5255909,44.859985 L38.4819545,44.859985 L38.3028636,42.6403005 Z M54.4519545,68.9190383 L54.3965,68.9438317 L54.4274091,69.0632908 L54.4519545,68.9190383 Z M58.7996818,54.8264763 L60.4787727,51.8188129 C60.5478636,51.6822239 60.6851364,51.6817731 60.6851364,51.6817731 L60.9765,51.6817731 C61.0101364,51.6817731 61.0401364,51.6871826 61.0655909,51.6939444 L59.0565,47.2135537 C58.9224091,47.2509692 58.8601364,47.2144553 58.8601364,47.2144553 L58.5196818,47.2446582 C58.2828636,47.2293313 58.1787727,46.9209917 58.1787727,46.9209917 L57.9692273,46.5400751 L57.8528636,46.5391736 C57.5819545,46.5391736 56.3278636,46.5013073 55.3915,46.4711044 L55.1396818,46.6644929 L58.7996818,54.8264763 Z M43.5605909,45.1696769 L43.5605909,45.7381217 L43.3046818,45.7381217 L43.2669545,46.0315853 L46.6719545,47.9492412 L46.2219545,45.8936439 L45.8410455,45.8936439 L45.8410455,45.1696769 L43.5605909,45.1696769 Z M47.7305909,46.7483396 L47.2574091,46.7267017 L47.6469545,48.4978512 L48.2810455,48.854876 L47.7305909,46.7483396 Z M47.3533182,45.306266 L47.3533182,45.8936439 L47.5069545,45.8936439 L47.3533182,45.306266 Z M42.1769545,44.859985 L42.5769545,44.859985 L42.6265,44.4723065 L42.1887727,44.7896619 L42.1769545,44.859985 Z M54.3187727,46.4386476 L54.3646818,46.5328625 L54.5092273,46.4427047 L54.3283182,46.4363937 L54.3187727,46.4386476 Z M58.8515,46.446311 L58.9346818,46.6122014 L59.3778636,46.3336138 C59.5265,46.230834 59.4674091,46.0838768 59.4674091,46.0838768 C59.2301364,46.2182119 58.9774091,46.3705785 58.8515,46.446311 L58.8515,46.446311 Z M46.3033182,41.2906386 L46.0928636,41.4100977 L46.2378636,42.0718557 L46.4646818,41.9073178 L46.3033182,41.2906386 Z M49.4169545,60.4635913 L49.3819545,60.3031104 L41.0160455,63.4460105 L40.9924091,63.6290308 L49.4169545,60.4635913 Z M49.2410455,59.6629902 L49.1228636,59.1242975 L41.9433182,56.2739594 L41.1105909,62.7179865 L49.2410455,59.6629902 Z M48.8205909,57.7480391 L47.5319545,51.8670473 L42.1660455,54.5451841 L42.0974091,55.0789181 L48.8205909,57.7480391 Z M47.3878636,51.2129527 L47.3096818,50.8518708 L42.3219545,53.3402254 L42.2674091,53.770278 L47.3878636,51.2129527 Z M47.1651364,50.1973253 L46.9883182,49.3868069 L43.1151364,47.2058903 L42.4219545,52.5653193 L47.1651364,50.1973253 Z M47.8328636,49.3484899 L48.1578636,50.8284298 L48.7242273,50.5466867 L48.5101364,49.7294065 L47.8328636,49.3484899 Z M49.9674091,59.0837265 L50.2051364,60.1669722 L51.1465,59.8135537 L51.0165,59.3167844 L50.0310455,58.9254996 L49.9674091,59.0837265 Z M41.1096818,53.9460856 L40.6796818,54.1611119 L40.5410455,55.0198648 L40.9128636,55.1663711 L41.1096818,53.9460856 Z M38.9751364,64.7483396 L39.3510455,64.8709542 L39.4878636,64.0207663 L39.0665,64.1789932 L38.9751364,64.7483396 Z M39.6433182,64.965169 L39.9655909,65.0697521 L40.1328636,63.7786927 L39.8151364,63.897701 L39.6433182,64.965169 Z M41.2019545,55.2822239 L41.3442273,54.4049887 L41.2019545,55.2822239 Z M49.2001364,34.8984523 C49.2355909,34.7632156 49.2528636,34.63429 49.2528636,34.5215928 C49.2537727,34.3025094 49.1842273,34.1609617 49.0937727,34.1280541 C49.0746818,34.1203907 49.0528636,34.1167844 49.0296818,34.1167844 C48.8765,34.1163336 48.6496818,34.3052141 48.4755909,34.6063411 L49.2001364,34.8984523 Z M43.2583182,32.5029602 C43.2769545,32.4087453 43.2851364,32.3194891 43.2851364,32.2396995 C43.2860455,32.0206161 43.2160455,31.877716 43.1260455,31.8461608 C43.1069545,31.837145 43.0851364,31.8330879 43.0624091,31.8330879 C42.9246818,31.8330879 42.7324091,31.9818482 42.5692273,32.225725 L43.2583182,32.5029602 Z M50.5224091,35.1441322 L50.4210455,35.3911645 L55.1410455,37.2939444 L55.2424091,37.0473629 C55.2646818,36.9928174 55.2742273,36.9369196 55.2742273,36.8819234 C55.2742273,36.7083696 55.1701364,36.5442825 54.9983182,36.4744102 L51.0996818,34.9029602 C51.0446818,34.8804207 50.9883182,34.8705034 50.9328636,34.8705034 C50.7578636,34.8705034 50.5919545,34.973734 50.5224091,35.1441322 L50.5224091,35.1441322 Z M37.3678636,29.8415026 L37.2669545,30.0876334 L41.9865,31.9895116 L42.0874091,31.7433809 C42.1092273,31.6883847 42.1201364,31.6329376 42.1201364,31.5783922 C42.1201364,31.4048385 42.0155909,31.2407513 41.8437727,31.170879 L37.9451364,29.5989782 C37.8905909,29.5773403 37.8333182,29.5665214 37.7783182,29.5665214 C37.6033182,29.5665214 37.4378636,29.6702029 37.3678636,29.8415026 L37.3678636,29.8415026 Z" id="Fill-1" fill="#C5A687"></path>
                <g id="Group-5" transform="translate(0.000000, 0.088355)">
                    <mask id="mask-2" fill="white">
                        <use xlink:href="#path-1"></use>
                    </mask>
                    <g id="Clip-4"></g>
                    <path d="M0,0.362299023 L33.9718182,0.362299023 L0,34.028565 L0,0.362299023 Z M46.2877273,3.0471976 L2.71227273,47.0536589 L2.71227273,76.6529076 L77.0481818,76.6529076 L77.0481818,3.0471976 L46.2877273,3.0471976 Z M44.9809091,0.362299023 L79.7590909,0.362299023 L79.7590909,79.3387077 L0,79.3387077 L0,45.5070023 L44.9809091,0.362299023 Z" id="Fill-3" fill="#C6A17C" mask="url(#mask-2)"></path>
                </g>
            </g>
        </g>
    </g>
</svg>