<?xml version="1.0" encoding="UTF-8"?>
<svg width="80px" height="80px" viewBox="0 0 80 80" version="1.1" xmlns="http://www.w3.org/2000/svg" xmlns:xlink="http://www.w3.org/1999/xlink">
    <!-- Generator: Sketch 43.1 (39012) - http://www.bohemiancoding.com/sketch -->
    <title>2</title>
    <desc>Created with Sketch.</desc>
    <defs>
        <polygon id="path-1" points="79.7590909 39.8172045 79.7590909 0 0 0 0 39.8172045 0 79.6344091 79.7590909 79.6344091"></polygon>
    </defs>
    <g id="Page-1" stroke="none" stroke-width="1" fill="none" fill-rule="evenodd">
        <g id="tt_International_new" transform="translate(-380.000000, -1426.000000)">
            <g id="2" transform="translate(380.000000, 1426.000000)">
                <mask id="mask-2" fill="white">
                    <use xlink:href="#path-1"></use>
                </mask>
                <g id="Clip-2"></g>
                <path d="M53,39.3972727 L56.6268182,39.3972727 L56.6268182,38.4868182 L53,38.4868182 L53,39.3972727 Z M29.9472727,71.3159091 C29.1709091,71.3159091 28.5236364,70.8195455 28.2745455,70.1286364 L58.8236364,70.1286364 C58.5795455,70.8195455 57.9268182,71.3159091 57.1490909,71.3159091 L29.9472727,71.3159091 Z M57.2013636,57.3995455 L57.2013636,67.7540909 C57.955,67.7772727 58.5827273,68.2663636 58.8236364,68.9404545 L28.2745455,68.9404545 C28.5181818,68.2654545 29.1418182,67.7763636 29.8945455,67.7540909 L29.8945455,57.3995455 C29.2268182,57.3995455 28.5754545,56.8990909 28.3304545,56.2145455 L58.8772727,56.2145455 C58.6309091,56.8990909 57.9809091,57.3995455 57.2013636,57.3995455 L57.2013636,57.3995455 Z M57.1490909,39.9172727 C57.8863636,39.9172727 58.5127273,40.3640909 58.7854545,41.0009091 L28.3077273,41.0009091 C28.5831818,40.3640909 29.2118182,39.9172727 29.9472727,39.9172727 L57.1490909,39.9172727 Z M29.9472727,43.4831818 C29.1309091,43.4831818 28.4581818,42.9290909 28.2431818,42.1863636 L58.855,42.1863636 C58.6440909,42.9290909 57.9663636,43.4831818 57.1490909,43.4831818 L57.2563636,53.8381818 C58.0109091,53.8618182 58.6363636,54.3522727 58.8772727,55.0236364 L28.3304545,55.0236364 C28.57,54.3490909 29.1986364,53.8581818 29.9472727,53.8381818 L29.9472727,43.4831818 Z M57.5354545,37.3363636 C57.5354545,37.5886364 57.335,37.7936364 57.0831818,37.7936364 L52.6159091,37.7936364 C52.3663636,37.7936364 52.1690909,37.5886364 52.1690909,37.3363636 C52.1690909,37.0859091 52.3663636,36.8872727 52.6159091,36.8872727 L57.0831818,36.8872727 C57.335,36.8872727 57.5354545,37.0859091 57.5354545,37.3363636 L57.5354545,37.3363636 Z" id="Fill-1" fill="#C5A687" mask="url(#mask-2)"></path>
                <path d="M0,-0.000136363636 L33.9718182,-0.000136363636 L0,33.9466818 L0,-0.000136363636 Z M46.2877273,2.70713636 L2.71227273,47.0803182 L2.71227273,76.9262273 L77.0481818,76.9262273 L77.0481818,2.70713636 L46.2877273,2.70713636 Z M44.9809091,-0.000136363636 L79.7590909,-0.000136363636 L79.7590909,79.6344091 L0,79.6344091 L0,45.5207727 L44.9809091,-0.000136363636 Z" id="Fill-3" fill="#C5A687" mask="url(#mask-2)"></path>
                <path d="M0,-0.000136363636 L33.9718182,-0.000136363636 L0,33.9466818 L0,-0.000136363636 Z M46.2877273,2.70713636 L2.71227273,47.0803182 L2.71227273,76.9262273 L77.0481818,76.9262273 L77.0481818,2.70713636 L46.2877273,2.70713636 Z M44.9809091,-0.000136363636 L79.7590909,-0.000136363636 L79.7590909,79.6344091 L0,79.6344091 L0,45.5207727 L44.9809091,-0.000136363636 Z" id="Fill-4" fill="#C5A687" mask="url(#mask-2)"></path>
                <path d="M54.7971818,15.4078182 C54.6949091,15.4078182 54.5930909,15.5505455 54.5026364,15.8305455 C53.8412727,17.9078182 52.4012727,20.2364545 50.674,22.5978182 C47.3699091,27.1087273 49.4512727,30.9791818 52.0412727,32.4623636 C52.7935455,32.8937273 53.7953636,33.1091818 54.7980909,33.1091818 C55.7976364,33.1091818 56.7971818,32.8941818 57.549,32.4650909 C60.1412727,30.9823636 62.2235455,27.1087273 58.919,22.5978182 C57.189,20.2364545 55.7485455,17.9078182 55.0908182,15.8305455 C55.0003636,15.5473636 54.8994545,15.4078182 54.7971818,15.4078182 M56.0599091,24.3850909 C55.989,24.3850909 55.9180909,24.3596364 55.8635455,24.3082727 C55.4667273,23.9319091 54.9980909,23.5682727 54.4594545,23.2146364 C54.3003636,23.1128182 54.284,22.8846364 54.4326364,22.7587273 C54.7830909,22.4682727 55.1367273,22.1750909 55.4871818,21.8805455 C55.5749091,21.8087273 55.6817273,21.7723636 55.7880909,21.7723636 C55.8785455,21.7723636 55.9685455,21.7982727 56.0480909,21.851 C56.5308182,22.1646364 56.9867273,22.5019091 57.4099091,22.8882727 C57.5344545,23.0037273 57.5312727,23.1987273 57.4021818,23.311 C57.0167273,23.6473636 56.6330909,23.981 56.2467273,24.3150909 C56.1917273,24.3628182 56.1253636,24.3850909 56.0599091,24.3850909 M57.2435455,31.2537273 C57.1080909,31.2537273 57.0830909,31.0941818 57.1980909,30.7978182 C57.8849091,29.0141818 57.9121818,27.3528182 57.0821818,25.8505455 C56.9962727,25.6919091 57.0294545,25.5005455 57.1680909,25.3819091 C57.539,25.0578182 57.9121818,24.7341818 58.2849091,24.4100909 C58.3399091,24.3637273 58.4062727,24.341 58.4717273,24.341 C58.5676364,24.341 58.6621818,24.3896364 58.7180909,24.4800909 C60.0521818,26.7287273 59.6267273,29.5164545 57.5853636,31.0882727 C57.4385455,31.2000909 57.3221818,31.2537273 57.2435455,31.2537273" id="Fill-5" fill="#C5A687" mask="url(#mask-2)"></path>
            </g>
        </g>
    </g>
</svg>