<?xml version="1.0" encoding="UTF-8"?>
<svg width="80px" height="80px" viewBox="0 0 80 80" version="1.1" xmlns="http://www.w3.org/2000/svg" xmlns:xlink="http://www.w3.org/1999/xlink">
    <!-- Generator: Sketch 43.1 (39012) - http://www.bohemiancoding.com/sketch -->
    <title>3</title>
    <desc>Created with Sketch.</desc>
    <defs>
        <polygon id="path-1" points="79.7590909 39.850571 79.7590909 0.36243426 0 0.36243426 0 39.850571 0 79.3387077 79.7590909 79.3387077"></polygon>
    </defs>
    <g id="Page-1" stroke="none" stroke-width="1" fill="none" fill-rule="evenodd">
        <g id="tt_International_new" transform="translate(-580.000000, -1425.000000)">
            <g id="3" transform="translate(580.000000, 1425.000000)">
                <path d="M47.8546364,30.3493163 C47.9173636,30.1058903 47.9578182,29.8511946 47.9578182,29.5820736 C47.9578182,27.8501427 46.5414545,8.45269722 44.7905455,8.45269722 C43.0423636,8.45269722 41.6237273,27.8501427 41.6237273,29.5820736 C41.6237273,29.8511946 41.6682727,30.1058903 41.7332727,30.3493163 C42.561,29.6596093 43.6241818,29.2372201 44.7905455,29.2372201 C45.9532727,29.2372201 47.0291818,29.6596093 47.8546364,30.3493163" id="Fill-1" fill="#C5A687"></path>
                <path d="M50.2711818,33.1984373 C49.9966364,33.0352517 49.7057273,32.9275131 49.4157273,32.850879 C49.5007273,33.1984373 49.5498182,33.5784523 49.5498182,33.9580165 C49.5498182,35.9175958 48.3466364,37.597686 46.6316364,38.3162434 L46.9184545,38.5326221 C48.4075455,39.4481743 65.7498182,48.5212021 66.6784545,47.0421638 C67.6034545,45.5739444 51.753,34.1225545 50.2711818,33.1984373" id="Fill-3" fill="#C5A687"></path>
                <path d="M40.0315,33.9578362 C40.0315,33.544012 40.0965,33.1374005 40.1992273,32.7515252 C39.7401364,32.8060706 39.2855909,32.9431104 38.8692273,33.1982569 C37.3878636,34.1223742 21.5360455,45.5742149 22.4655909,47.0419835 C23.3942273,48.5214726 40.7337727,39.4484448 42.2233182,38.5324418 C42.3878636,38.4265064 42.5360455,38.3097521 42.6737727,38.1835312 C41.1119545,37.4117806 40.0315,35.8177911 40.0315,33.9578362" id="Fill-5" fill="#C5A687"></path>
                <path d="M43.8773636,38.5885199 L40.8250909,71.7774005 C40.8250909,72.2345004 43.9519091,72.7150413 44.7905455,72.7826597 C45.6296364,72.7150413 48.7555455,72.2345004 48.7555455,71.7774005 L45.7064545,38.5885199 C45.4128182,38.6408114 45.1050909,38.6804808 44.7905455,38.6804808 C44.4755455,38.6804808 44.1682727,38.6408114 43.8773636,38.5885199" id="Fill-7" fill="#C5A687"></path>
                <path d="M47.6269545,33.7967243 C47.6269545,35.3415778 46.3592273,36.6091961 44.7905909,36.6091961 C43.2365,36.6091961 41.9624091,35.3415778 41.9624091,33.7967243 C41.9624091,32.2424042 43.2365,30.9838017 44.7905909,30.9838017 C46.3592273,30.9838017 47.6269545,32.2424042 47.6269545,33.7967243" id="Fill-11" fill="#C5A687"></path>
                <g id="Group-15" transform="translate(0.000000, 0.088355)">
                    <mask id="mask-2" fill="white">
                        <use xlink:href="#path-1"></use>
                    </mask>
                    <g id="Clip-14"></g>
                    <path d="M0,0.362299023 L33.9718182,0.362299023 L0,34.028565 L0,0.362299023 Z M46.2877273,3.0471976 L2.71227273,47.0536589 L2.71227273,76.6529076 L77.0481818,76.6529076 L77.0481818,3.0471976 L46.2877273,3.0471976 Z M44.9804545,0.362299023 L79.7590909,0.362299023 L79.7590909,79.3387077 L0,79.3387077 L0,45.5070023 L44.9804545,0.362299023 Z" id="Fill-13" fill="#C6A17C" mask="url(#mask-2)"></path>
                </g>
            </g>
        </g>
    </g>
</svg>