<?xml version="1.0" encoding="UTF-8"?>
<svg width="80px" height="80px" viewBox="0 0 80 80" version="1.1" xmlns="http://www.w3.org/2000/svg" xmlns:xlink="http://www.w3.org/1999/xlink">
    <!-- Generator: Sketch 43.1 (39012) - http://www.bohemiancoding.com/sketch -->
    <title>4</title>
    <desc>Created with Sketch.</desc>
    <defs>
        <polygon id="path-1" points="79.7590909 39.850571 79.7590909 0.36243426 0 0.36243426 0 39.850571 0 79.3387077 79.7590909 79.3387077"></polygon>
    </defs>
    <g id="Page-1" stroke="none" stroke-width="1" fill="none" fill-rule="evenodd">
        <g id="tt_International_new" transform="translate(-780.000000, -1425.000000)">
            <g id="4" transform="translate(780.000000, 1425.000000)">
                <path d="M47.5004545,45.6250639 C47.5004545,48.6494065 45.0281818,51.1003456 41.9786364,51.1003456 C38.9295455,51.1003456 36.4568182,48.6494065 36.4568182,45.6250639 C36.4568182,42.6007213 38.9295455,40.1488805 41.9786364,40.1488805 C45.0281818,40.1488805 47.5004545,42.6007213 47.5004545,45.6250639 L47.5004545,45.6250639 Z M25.4136364,53.8388881 C25.4136364,54.3306987 25.2813636,54.7941097 25.0513636,55.1935086 C26.4563636,56.7018482 28.8622727,57.6264162 31.9609091,57.8288204 C31.4668182,56.5210819 31.0504545,55.1056048 30.7245455,53.6044778 C28.3818182,52.1520361 26.3477273,50.4913298 24.7436364,48.7021488 L24.4127273,48.3248385 C23.9709091,49.34858 23.7159091,50.3470774 23.67,51.2928325 C24.6913636,51.6944853 25.4136364,52.681713 25.4136364,53.8388881 L25.4136364,53.8388881 Z M23.4231818,56.4683396 C23.1786364,56.5391134 22.92,56.5769797 22.6527273,56.5769797 C21.1277273,56.5769797 19.8922727,55.3490308 19.8922727,53.8388881 C19.8922727,52.7019985 20.5895455,51.7273929 21.5827273,51.3135687 C21.6286364,49.7403156 22.1159091,48.0863711 22.9909091,46.4270173 C21.1495455,43.5766792 20.6336364,40.739414 21.5472727,38.2506086 C22.8436364,34.7213824 26.8809091,32.4814125 32.5059091,32.0950864 C34.1718182,28.3584974 36.5286364,25.6681893 39.2631818,24.5876484 C39.5009091,23.3141698 40.6263636,22.350834 41.9786364,22.350834 C43.3309091,22.350834 44.455,23.3141698 44.6927273,24.5876484 C47.2368182,25.5929076 49.4545455,27.9911044 51.0922727,31.3291961 C56.3259091,31.4252141 60.1731818,33.3004959 61.6831818,36.5114651 C62.8472727,38.98855 62.5081818,41.8970398 60.9659091,44.8231104 C62.4531818,47.1239369 63.0754545,49.4152968 62.7795455,51.5236364 C63.5522727,52.0082344 64.065,52.8642825 64.065,53.8388881 C64.065,55.3490308 62.8295455,56.5769797 61.305,56.5769797 C60.8418182,56.5769797 60.4054545,56.4638317 60.0213636,56.2636814 C58.0245455,57.8928325 55.0645455,58.9057551 51.45,59.1541397 C49.2554545,64.0794591 45.8581818,67.1867468 41.9786364,67.1867468 C38.3045455,67.1867468 35.0631818,64.4004207 32.865,59.9200301 C28.6568182,59.8438467 25.3445455,58.615447 23.4231818,56.4683396 L23.4231818,56.4683396 Z M58.6854545,54.7062059 C58.5927273,54.4330278 58.5436364,54.142269 58.5436364,53.8388881 C58.5436364,52.5180766 59.485,51.417701 60.7377273,51.1584974 C60.9036364,49.8133434 60.5618182,48.3352066 59.7409091,46.8025244 C58.1995455,48.9703681 56.0304545,51.0958377 53.3577273,53.0053794 C53.0768182,54.4208565 52.7168182,55.7642074 52.2863636,57.0187528 C55.0072727,56.7113148 57.2068182,55.9098122 58.6854545,54.7062059 L58.6854545,54.7062059 Z M34.2827273,34.0898272 L33.9686364,34.0916304 C33.6659091,34.8791585 33.3931818,35.7104132 33.1531818,36.5790834 C34.3063636,35.8920811 35.5304545,35.2465515 36.8181818,34.6510594 L37.6172727,34.2917806 C36.4818182,34.1583471 35.3659091,34.0898272 34.2827273,34.0898272 L34.2827273,34.0898272 Z M31.6695455,34.2309241 C27.4122727,34.7123666 24.4304545,36.4019234 23.4940909,38.9533884 C22.895,40.5811871 23.1540909,42.4690909 24.215,44.4471525 C25.7563636,42.278858 27.9259091,40.1529376 30.6,38.2429452 C30.8804545,36.8283696 31.24,35.4850188 31.6695455,34.2309241 L31.6695455,34.2309241 Z M25.4718182,46.3593989 C25.7245455,46.6853193 25.9972727,47.0116905 26.2909091,47.3385124 C27.3959091,48.5709692 28.7268182,49.7398648 30.2377273,50.8149962 C30.0159091,49.1578963 29.8995455,47.4196544 29.8995455,45.6250639 C29.8995455,44.1171751 29.9818182,42.6512096 30.14,41.2388881 C28.1759091,42.8734485 26.585,44.6247633 25.4718182,46.3593989 L25.4718182,46.3593989 Z M32.6054545,52.3368595 C34.4122727,53.3876484 36.4009091,54.3122164 38.5109091,55.0740496 C39.8172727,55.545124 41.1327273,55.9395642 42.4395455,56.2537641 C43.7213636,55.8273178 45.0022727,55.3206311 46.2640909,54.7368595 C48.1354545,53.8713449 49.8768182,52.8746506 51.4522727,51.7950113 C51.7977273,49.8462509 51.9868182,47.7694666 51.9868182,45.6250639 C51.9868182,43.2805109 51.7613636,41.0166491 51.3518182,38.913719 C49.5445455,37.8629301 47.5559091,36.9379113 45.4440909,36.1751766 C44.1381818,35.7041022 42.8222727,35.3096619 41.5145455,34.9945605 C40.2354545,35.4214576 38.955,35.9290458 37.6940909,36.5114651 C35.8222727,37.3774305 34.0804545,38.3736739 32.5045455,39.4542149 C32.1581818,41.4025244 31.9704545,43.4797596 31.9704545,45.6250639 C31.9704545,47.9687153 32.1954545,50.2330278 32.6054545,52.3368595 L32.6054545,52.3368595 Z M46.3395455,56.9574455 C47.4754545,57.0913298 48.5909091,57.1598497 49.6745455,57.1598497 L49.9886364,57.1580466 C50.2909091,56.3700676 50.5636364,55.5388129 50.8045455,54.669692 C49.65,55.3566942 48.4268182,56.0026747 47.1390909,56.5981668 L46.3395455,56.9574455 Z M58.4840909,44.890278 C58.2313636,44.5639068 57.9586364,44.2379865 57.6663636,43.9107137 C56.5618182,42.6782569 55.2295455,41.5107137 53.72,40.4355823 C53.94,42.093133 54.0572727,43.8300225 54.0572727,45.6250639 C54.0572727,47.1311495 53.9740909,48.5980165 53.8168182,50.0098873 C55.7813636,48.3753268 57.3709091,46.6253644 58.4840909,44.890278 L58.4840909,44.890278 Z M49.0868182,59.2073328 C46.9772727,59.1627047 44.7654545,58.8836664 42.5322727,58.3846431 C40.0422727,59.1703681 37.5563636,59.6693914 35.2086364,59.849707 C37.0054545,63.1098122 39.3968182,65.1329527 41.9786364,65.1329527 C44.7259091,65.1329527 47.2572727,62.8420436 49.0868182,59.2073328 L49.0868182,59.2073328 Z M38.6190909,57.2892261 L37.8022727,57.0043276 C36.2163636,56.4318257 34.6931818,55.7700676 33.2559091,55.0334786 C33.5440909,56.0265665 33.8759091,56.9696168 34.2463636,57.8500075 C35.6509091,57.7900526 37.12,57.6002705 38.6190909,57.2892261 L38.6190909,57.2892261 Z M34.8704545,32.0418933 C36.98,32.0865214 39.1904545,32.3651089 41.4227273,32.8654846 C43.9131818,32.078858 46.3995455,31.5793839 48.7481818,31.4004207 C47.4927273,29.1221337 45.9472727,27.4483546 44.25,26.6459504 C43.7509091,27.3595492 42.9204545,27.8274681 41.9786364,27.8274681 C41.0368182,27.8274681 40.2059091,27.3595492 39.7072727,26.6459504 C37.8536364,27.5218332 36.1822727,29.4367844 34.8704545,32.0418933 L34.8704545,32.0418933 Z M45.3313636,33.9609016 L46.1536364,34.2476033 C47.7395455,34.8201052 49.2631818,35.4814125 50.7013636,36.2180015 C50.4131818,35.224012 50.0809091,34.2805109 49.71,33.3992186 C48.3045455,33.4591736 46.8327273,33.6489557 45.3313636,33.9609016 L45.3313636,33.9609016 Z M53.2322727,37.6451991 C55.5759091,39.0980917 57.6095455,40.7574455 59.2131818,42.5470774 L59.5431818,42.9239369 C60.415,40.9066566 60.5609091,38.9840421 59.8063636,37.3778813 C58.7295455,35.0865214 55.9168182,33.6764538 51.9954545,33.4204057 C52.4909091,34.7290458 52.9068182,36.1445229 53.2322727,37.6451991 L53.2322727,37.6451991 Z" id="Fill-1" fill="#C5A687"></path>
                <g id="Group-5" transform="translate(0.000000, 0.088355)">
                    <mask id="mask-2" fill="white">
                        <use xlink:href="#path-1"></use>
                    </mask>
                    <g id="Clip-4"></g>
                    <path d="M0,0.362299023 L33.9709091,0.362299023 L0,34.028565 L0,0.362299023 Z M46.2868182,3.0471976 L2.71181818,47.0536589 L2.71181818,76.6529076 L77.0481818,76.6529076 L77.0481818,3.0471976 L46.2868182,3.0471976 Z M44.98,0.362299023 L79.7590909,0.362299023 L79.7590909,79.3387077 L0,79.3387077 L0,45.5070023 L44.98,0.362299023 Z" id="Fill-3" fill="#C6A17C" mask="url(#mask-2)"></path>
                </g>
            </g>
        </g>
    </g>
</svg>