<?xml version="1.0" encoding="UTF-8"?>
<svg width="80px" height="80px" viewBox="0 0 80 80" version="1.1" xmlns="http://www.w3.org/2000/svg" xmlns:xlink="http://www.w3.org/1999/xlink">
    <!-- Generator: Sketch 43.1 (39012) - http://www.bohemiancoding.com/sketch -->
    <title>5</title>
    <desc>Created with Sketch.</desc>
    <defs>
        <polygon id="path-1" points="79.7595455 39.850571 79.7595455 0.36243426 0 0.36243426 0 39.850571 0 79.3387077 79.7595455 79.3387077"></polygon>
    </defs>
    <g id="Page-1" stroke="none" stroke-width="1" fill="none" fill-rule="evenodd">
        <g id="tt_International_new" transform="translate(-980.000000, -1425.000000)">
            <g id="5" transform="translate(980.000000, 1425.000000)">
                <path d="M50.9330455,55.650293 C50.9330455,53.9034861 52.3616818,52.4898122 54.1235,52.4898122 C55.8825909,52.4898122 57.3112273,53.9034861 57.3112273,55.650293 C57.3112273,57.3966491 55.8825909,58.8134786 54.1235,58.8134786 C52.3616818,58.8134786 50.9330455,57.3966491 50.9330455,55.650293 L50.9330455,55.650293 Z M51.3798636,55.650293 C51.3798636,57.1518708 52.6075909,58.3721563 54.1235,58.3721563 C55.6389545,58.3721563 56.8666818,57.1518708 56.8666818,55.650293 C56.8666818,54.1482645 55.6389545,52.9311345 54.1235,52.9311345 C52.6075909,52.9311345 51.3798636,54.1482645 51.3798636,55.650293 L51.3798636,55.650293 Z M58.0116818,55.650293 C58.0116818,53.5180616 56.2716818,51.791991 54.1235,51.791991 C51.9744091,51.791991 50.2321364,53.5180616 50.2321364,55.650293 C50.2321364,57.7798197 51.9744091,59.508595 54.1235,59.508595 C56.2716818,59.508595 58.0116818,57.7798197 58.0116818,55.650293 L58.0116818,55.650293 Z M60.0539545,54.9240721 L60.0539545,56.3967994 L59.0535,56.3967994 L58.7398636,57.4520962 L59.6071364,58.0223441 L58.8407727,59.201157 L58.0116818,58.7580316 L57.1612273,59.508595 L57.7175909,60.4241473 L56.5253182,61.1215177 L55.8875909,60.1937941 L54.8075909,60.5512697 L54.8075909,61.5623892 L53.3621364,61.5623892 L53.3621364,60.5296319 L52.3180455,60.2348159 L51.7885,61.1003306 L50.5098636,60.4696769 L51.0412273,59.508595 L50.2321364,58.7390984 L49.3648636,59.2877085 L48.5957727,58.0223441 L49.5139545,57.4732832 L49.2335,56.3134035 L48.1103182,56.3134035 L48.1103182,54.9659955 L49.2139545,54.9659955 L49.5139545,53.8886101 L48.5785,53.2976258 L49.3185,52.0782419 L50.2321364,52.6241473 L51.0635,51.791991 L50.4685,50.9386476 L51.7421364,50.1772652 L52.2766818,51.1478137 L53.3621364,50.8313599 L53.3621364,49.6944703 L54.8721364,49.6944703 L54.8721364,50.8313599 L55.9307727,51.0644177 L56.4848636,50.1569797 L57.7585,50.8971751 L57.2075909,51.791991 L58.0116818,52.6241473 L58.9089545,52.0782419 L59.6289545,53.3210669 L58.7398636,53.8886101 L59.0535,54.9240721 L60.0539545,54.9240721 Z M64.7485,40.6286551 C64.7485,43.5443576 62.3598636,45.9100977 59.4189545,45.9100977 C56.4775909,45.9100977 54.0994091,43.5443576 54.0994091,40.6286551 C54.0994091,37.7097971 56.4775909,35.3476634 59.4189545,35.3476634 C62.3598636,35.3476634 64.7485,37.7097971 64.7485,40.6286551 L64.7485,40.6286551 Z M54.8412273,40.6286551 C54.8412273,43.1350413 56.8907727,45.1694515 59.4189545,45.1694515 C61.9521364,45.1694515 63.9989545,43.1350413 63.9989545,40.6286551 C63.9989545,38.1177611 61.9521364,36.0878588 59.4189545,36.0878588 C56.8907727,36.0878588 54.8412273,38.1177611 54.8412273,40.6286551 L54.8412273,40.6286551 Z M65.9175909,40.6286551 C65.9175909,37.0683246 63.0062273,34.1859805 59.4189545,34.1859805 C55.8321364,34.1859805 52.9221364,37.0683246 52.9221364,40.6286551 C52.9221364,44.1853794 55.8321364,47.0726822 59.4189545,47.0726822 C63.0062273,47.0726822 65.9175909,44.1853794 65.9175909,40.6286551 L65.9175909,40.6286551 Z M69.3303182,39.4124267 L69.3303182,41.8768896 L67.6657727,41.8768896 L67.1271364,43.6363186 L68.5889545,44.5874831 L67.3075909,46.560586 L65.9175909,45.8212923 L64.5021364,47.0726822 L65.4257727,48.5990533 L63.4380455,49.7625394 L62.3730455,48.2163336 L60.5644091,48.8127273 L60.5644091,50.5027348 L58.1475909,50.5027348 L58.1475909,48.777115 L56.4125909,48.2835011 L55.5185,49.7273779 L53.3880455,48.6711796 L54.2775909,47.0726822 L52.9221364,45.7852292 L51.4721364,46.7003306 L50.1953182,44.5874831 L51.7203182,43.673734 L51.2594091,41.7366942 L49.3762273,41.7366942 L49.3762273,39.4827498 L51.2230455,39.4827498 L51.7203182,37.6868069 L50.1566818,36.7013824 L51.4048636,34.6597596 L52.9221364,35.5753118 L54.3121364,34.1859805 L53.3157727,32.7551766 L55.4480455,31.4875582 L56.3353182,33.1072427 L58.1475909,32.5811721 L58.1475909,30.6806461 L60.6657727,30.6806461 L60.6657727,32.5811721 L62.4403182,32.9674981 L63.3639545,31.4551014 L65.4953182,32.6866566 L64.5762273,34.1859805 L65.9175909,35.5753118 L67.4116818,34.6597596 L68.6175909,36.7338392 L67.1271364,37.6868069 L67.6657727,39.4124267 L69.3303182,39.4124267 Z M33.0716818,47.6609617 L34.2344091,47.664568 C34.9321364,47.664568 35.4116818,47.4436814 35.6698636,47.0032607 C35.9285,46.5619384 35.9985,45.9123516 35.9985,44.688009 C35.9985,43.462314 35.8675909,42.6270023 35.6094091,42.1829752 C35.3503182,41.7366942 34.7966818,41.7191134 34.1566818,41.6970248 L35.5998636,40.0444328 C35.9648636,40.0548009 36.7112273,40.2481893 37.2989545,40.9324869 C37.8839545,41.6167844 38.1762273,42.8686251 38.1762273,44.688009 C38.1762273,46.5042374 37.8839545,47.7565289 37.2989545,48.4408264 C36.7112273,49.1242224 36.1289545,49.3631405 34.6303182,49.3631405 L31.3703182,49.3586326 L33.0716818,47.6609617 Z M33.5671364,41.7019835 L32.6048636,41.7019835 L32.6048636,47.6609617 L30.9135,49.3446582 L30.5221364,49.3446582 L30.5221364,41.7019835 L27.5394091,41.7019835 L29.1921364,40.0286551 L35.1621364,40.0286551 L33.5671364,41.7019835 Z M40.6966818,44.7592337 C40.6966818,40.5258753 37.2380455,37.0958227 32.9725909,37.0958227 C28.7044091,37.0958227 25.2453182,40.5258753 25.2453182,44.7592337 C25.2453182,48.9912397 28.7044091,52.4208415 32.9725909,52.4208415 C37.2380455,52.4208415 40.6966818,48.9912397 40.6966818,44.7592337 L40.6966818,44.7592337 Z M32.9725909,35.8457851 C37.9321364,35.8457851 41.9566818,39.838873 41.9566818,44.7592337 C41.9566818,49.6804959 37.9321364,53.6677235 32.9725909,53.6677235 C28.0075909,53.6677235 23.9857727,49.6804959 23.9857727,44.7592337 C23.9857727,39.838873 28.0075909,35.8457851 32.9725909,35.8457851 L32.9725909,35.8457851 Z M43.9312273,44.7592337 C43.9312273,38.7538242 39.0271364,33.8866566 32.9725909,33.8866566 C26.9180455,33.8866566 22.0089545,38.7538242 22.0089545,44.7592337 C22.0089545,50.76284 26.9180455,55.6300075 32.9725909,55.6300075 C39.0271364,55.6300075 43.9312273,50.76284 43.9312273,44.7592337 L43.9312273,44.7592337 Z M49.6885,42.7058903 L49.6885,46.8639669 L46.8771364,46.8639669 L45.9785,49.8351165 L48.4362273,51.4372201 L46.2807727,54.7644929 L43.9312273,53.5180616 L41.5407727,55.6300075 L43.0994091,58.2112246 L39.7471364,60.1694515 L37.9512273,57.5566792 L34.8994091,58.5637415 L34.8994091,61.4163336 L30.8212273,61.4163336 L30.8212273,58.5060406 L27.8844091,57.6770398 L26.3885,60.1103982 L22.7948636,58.3288805 L24.2907727,55.6300075 L22.0089545,53.4594591 L19.5603182,55.0007062 L17.4066818,51.4372201 L19.9812273,49.8941698 L19.2080455,46.6254996 L16.0271364,46.6254996 L16.0271364,42.8248986 L19.1421364,42.8248986 L19.9812273,39.7960481 L17.3466818,38.1303832 L19.4398636,34.6863561 L22.0089545,36.2307588 L24.3512273,33.8866566 L22.6762273,31.4798948 L26.2730455,29.3409016 L27.7685,32.0744853 L30.8212273,31.1819234 L30.8212273,27.9750113 L35.0725909,27.9750113 L35.0725909,31.1819234 L38.0675909,31.8328625 L39.6262273,29.2818482 L43.2203182,31.359985 L41.6662273,33.8866566 L43.9312273,36.2307588 L46.4521364,34.6863561 L48.4916818,38.1916905 L45.9785,39.7960481 L46.8771364,42.7058903 L49.6885,42.7058903 Z" id="Fill-1" fill="#C5A687"></path>
                <g id="Group-5" transform="translate(0.000000, 0.088355)">
                    <mask id="mask-2" fill="white">
                        <use xlink:href="#path-1"></use>
                    </mask>
                    <g id="Clip-4"></g>
                    <path d="M0,0.362299023 L33.9718182,0.362299023 L0,34.028565 L0,0.362299023 Z M46.2877273,3.0471976 L2.71227273,47.0536589 L2.71227273,76.6529076 L77.0481818,76.6529076 L77.0481818,3.0471976 L46.2877273,3.0471976 Z M44.9804545,0.362299023 L79.7595455,0.362299023 L79.7595455,79.3387077 L0,79.3387077 L0,45.5070023 L44.9804545,0.362299023 Z" id="Fill-3" fill="#C6A17C" mask="url(#mask-2)"></path>
                </g>
            </g>
        </g>
    </g>
</svg>