<?xml version="1.0" encoding="UTF-8"?>
<svg width="80px" height="80px" viewBox="0 0 80 80" version="1.1" xmlns="http://www.w3.org/2000/svg" xmlns:xlink="http://www.w3.org/1999/xlink">
    <!-- Generator: Sketch 43.1 (39012) - http://www.bohemiancoding.com/sketch -->
    <title>6</title>
    <desc>Created with Sketch.</desc>
    <defs>
        <polygon id="path-1" points="79.7595455 39.850571 79.7595455 0.36243426 0 0.36243426 0 39.850571 0 79.3387077 79.7595455 79.3387077"></polygon>
    </defs>
    <g id="Page-1" stroke="none" stroke-width="1" fill="none" fill-rule="evenodd">
        <g id="tt_International_new" transform="translate(-1180.000000, -1425.000000)">
            <g id="6" transform="translate(1180.000000, 1425.000000)">
                <path d="M42.2825,15.0871826 C43.1634091,14.1973253 44.6043182,14.1847032 45.5011364,15.0587829 C46.3979545,15.9324117 46.4102273,17.3614125 45.5297727,18.2512697 C44.6484091,19.1402254 43.2070455,19.1523967 42.3106818,18.2783171 C41.4138636,17.405139 41.4015909,15.9761382 42.2825,15.0871826" id="Fill-1" fill="#C5A687"></path>
                <path d="M42.2825,15.0871826 C43.1634091,14.1973253 44.6043182,14.1847032 45.5011364,15.0587829 C46.3979545,15.9324117 46.4102273,17.3614125 45.5297727,18.2512697 C44.6484091,19.1402254 43.2070455,19.1523967 42.3106818,18.2783171 C41.4138636,17.405139 41.4015909,15.9761382 42.2825,15.0871826" id="Fill-3" fill="#C5A687"></path>
                <path d="M39.9866818,28.4466717 C40.8675909,27.557716 42.3080455,27.5446431 43.2053182,28.4187228 C44.1021364,29.2928024 44.1139545,30.7218032 43.2330455,31.6112096 C42.3516818,32.5006161 40.9107727,32.5127874 40.0139545,31.6387077 C39.1171364,30.7650789 39.1053182,29.3365289 39.9866818,28.4466717" id="Fill-5" fill="#C5A687"></path>
                <path d="M39.9866818,28.4466717 C40.8675909,27.557716 42.3080455,27.5446431 43.2053182,28.4187228 C44.1021364,29.2928024 44.1139545,30.7218032 43.2330455,31.6112096 C42.3516818,32.5006161 40.9107727,32.5127874 40.0139545,31.6387077 C39.1171364,30.7650789 39.1053182,29.3365289 39.9866818,28.4466717" id="Fill-7" fill="#C5A687"></path>
                <path d="M29.1357273,23.5241022 C30.0170909,22.6346957 31.458,22.6220736 32.3552727,23.4961533 C33.2516364,24.3702329 33.2643636,25.7996844 32.383,26.6886401 C31.5020909,27.5780466 30.0607273,27.5906687 29.1639091,26.7161382 C28.2670909,25.8429602 28.2552727,24.4139594 29.1357273,23.5241022" id="Fill-9" fill="#C5A687"></path>
                <path d="M29.1357273,23.5241022 C30.0170909,22.6346957 31.458,22.6220736 32.3552727,23.4961533 C33.2516364,24.3702329 33.2643636,25.7996844 32.383,26.6886401 C31.5020909,27.5780466 30.0607273,27.5906687 29.1639091,26.7161382 C28.2670909,25.8429602 28.2552727,24.4139594 29.1357273,23.5241022" id="Fill-11" fill="#C5A687"></path>
                <path d="M49.0371818,24.8333283 C49.9176364,23.9443727 51.359,23.9322014 52.2558182,24.8058302 C53.1526364,25.6799098 53.1649091,27.1093614 52.2844545,27.9978663 C51.4026364,28.8877235 49.9612727,28.8998948 49.0653636,28.026266 C48.1680909,27.1526371 48.1553636,25.7231856 49.0371818,24.8333283" id="Fill-13" fill="#C5A687"></path>
                <path d="M49.0371818,24.8333283 C49.9176364,23.9443727 51.359,23.9322014 52.2558182,24.8058302 C53.1526364,25.6799098 53.1649091,27.1093614 52.2844545,27.9978663 C51.4026364,28.8877235 49.9612727,28.8998948 49.0653636,28.026266 C48.1680909,27.1526371 48.1553636,25.7231856 49.0371818,24.8333283" id="Fill-15" fill="#C5A687"></path>
                <path d="M39.6293636,40.08 C40.5102727,39.1905935 41.9507273,39.1775207 42.848,40.0520511 C43.7448182,40.9261307 43.7570909,42.3542299 42.8761818,43.2445379 C41.9952727,44.1334936 40.5539091,44.1461157 39.6575455,43.2720361 C38.7602727,42.3984072 38.7484545,40.9689557 39.6293636,40.08" id="Fill-17" fill="#C5A687"></path>
                <path d="M39.6293636,40.08 C40.5102727,39.1905935 41.9507273,39.1775207 42.848,40.0520511 C43.7448182,40.9261307 43.7570909,42.3542299 42.8761818,43.2445379 C41.9952727,44.1334936 40.5539091,44.1461157 39.6575455,43.2720361 C38.7602727,42.3984072 38.7484545,40.9689557 39.6293636,40.08" id="Fill-19" fill="#C5A687"></path>
                <path d="M28.7904091,36.5256649 C29.6717727,35.6362585 31.1126818,35.6231856 32.0099545,36.497716 C32.9063182,37.3708941 32.9185909,38.8003456 32.0372273,39.6897521 C31.1563182,40.5782569 29.7149545,40.5913298 28.8190455,39.717701 C27.9217727,38.8436213 27.9099545,37.4150714 28.7904091,36.5256649" id="Fill-21" fill="#C5A687"></path>
                <path d="M28.7904091,36.5256649 C29.6717727,35.6362585 31.1126818,35.6231856 32.0099545,36.497716 C32.9063182,37.3708941 32.9185909,38.8003456 32.0372273,39.6897521 C31.1563182,40.5782569 29.7149545,40.5913298 28.8190455,39.717701 C27.9217727,38.8436213 27.9099545,37.4150714 28.7904091,36.5256649" id="Fill-23" fill="#C5A687"></path>
                <path d="M22.2225455,34.8721713 C23.1039091,33.982314 24.5448182,33.9705935 25.4416364,34.8442224 C26.3384545,35.718302 26.3511818,37.1473028 25.4698182,38.03716 C24.5889091,38.9261157 23.1475455,38.9387378 22.2507273,38.0651089 C21.3543636,37.1914801 21.3416364,35.761127 22.2225455,34.8721713" id="Fill-25" fill="#C5A687"></path>
                <path d="M22.2225455,34.8721713 C23.1039091,33.982314 24.5448182,33.9705935 25.4416364,34.8442224 C26.3384545,35.718302 26.3511818,37.1473028 25.4698182,38.03716 C24.5889091,38.9261157 23.1475455,38.9387378 22.2507273,38.0651089 C21.3543636,37.1914801 21.3416364,35.761127 22.2225455,34.8721713" id="Fill-27" fill="#C5A687"></path>
                <path d="M14.2591364,44.2903231 C15.1395909,43.4018182 16.5795909,43.3882945 17.4773182,44.2628249 C18.3741364,45.1364538 18.3859545,46.5659053 17.5055,47.454861 C16.6241364,48.3442675 15.1827727,48.3568896 14.2868636,47.4832607 C13.3891364,46.6091811 13.3777727,45.1806311 14.2591364,44.2903231" id="Fill-29" fill="#C5A687"></path>
                <path d="M14.2591364,44.2903231 C15.1395909,43.4018182 16.5795909,43.3882945 17.4773182,44.2628249 C18.3741364,45.1364538 18.3859545,46.5659053 17.5055,47.454861 C16.6241364,48.3442675 15.1827727,48.3568896 14.2868636,47.4832607 C13.3891364,46.6091811 13.3777727,45.1806311 14.2591364,44.2903231" id="Fill-31" fill="#C5A687"></path>
                <path d="M27.2083636,52.6162585 C28.0888182,51.7264012 29.5297273,51.7133283 30.427,52.5883095 C31.3238182,53.4619384 31.3360909,54.8909391 30.4556364,55.7803456 C29.5742727,56.6693013 28.1329091,56.6819234 27.2365455,55.8078437 C26.3392727,54.9342149 26.3274545,53.5052141 27.2083636,52.6162585" id="Fill-33" fill="#C5A687"></path>
                <path d="M27.2083636,52.6162585 C28.0888182,51.7264012 29.5297273,51.7133283 30.427,52.5883095 C31.3238182,53.4619384 31.3360909,54.8909391 30.4556364,55.7803456 C29.5742727,56.6693013 28.1329091,56.6819234 27.2365455,55.8078437 C26.3392727,54.9342149 26.3274545,53.5052141 27.2083636,52.6162585" id="Fill-35" fill="#C5A687"></path>
                <path d="M41.0160455,53.8647183 C41.8965,52.974861 43.3374091,52.9617881 44.2337727,53.835417 C45.1310455,54.7094966 45.1433182,56.1393989 44.2624091,57.0288054 C43.3815,57.9168595 41.9401364,57.9299324 41.0433182,57.0558527 C40.1469545,56.1822239 40.1346818,54.7536739 41.0160455,53.8647183" id="Fill-37" fill="#C5A687"></path>
                <path d="M41.0160455,53.8647183 C41.8965,52.974861 43.3374091,52.9617881 44.2337727,53.835417 C45.1310455,54.7094966 45.1433182,56.1393989 44.2624091,57.0288054 C43.3815,57.9168595 41.9401364,57.9299324 41.0433182,57.0558527 C40.1469545,56.1822239 40.1346818,54.7536739 41.0160455,53.8647183" id="Fill-39" fill="#C5A687"></path>
                <path d="M55.8864545,32.4135237 C56.7678182,31.5232156 58.2087273,31.5114951 59.1055455,32.3855748 C60.0023636,33.2596544 60.0155455,34.6882044 59.1341818,35.5785124 C58.2532727,36.4674681 56.8114545,36.4800902 55.9146364,35.6055597 C55.0182727,34.7323817 55.006,33.3029301 55.8864545,32.4135237" id="Fill-41" fill="#C5A687"></path>
                <path d="M55.8864545,32.4135237 C56.7678182,31.5232156 58.2087273,31.5114951 59.1055455,32.3855748 C60.0023636,33.2596544 60.0155455,34.6882044 59.1341818,35.5785124 C58.2532727,36.4674681 56.8114545,36.4800902 55.9146364,35.6055597 C55.0182727,34.7323817 55.006,33.3029301 55.8864545,32.4135237" id="Fill-43" fill="#C5A687"></path>
                <path d="M67.5536818,38.5823892 C68.4341364,37.6929827 69.8755,37.6808114 70.7723182,38.5544403 C71.6691364,39.4280691 71.6814091,40.8584222 70.8014091,41.7469271 C69.9186818,42.6367844 68.4777727,42.6489557 67.5814091,41.774876 C66.6855,40.9012472 66.6723182,39.4726972 67.5536818,38.5823892" id="Fill-45" fill="#C5A687"></path>
                <path d="M67.5536818,38.5823892 C68.4341364,37.6929827 69.8755,37.6808114 70.7723182,38.5544403 C71.6691364,39.4280691 71.6814091,40.8584222 70.8014091,41.7469271 C69.9186818,42.6367844 68.4777727,42.6489557 67.5814091,41.774876 C66.6855,40.9012472 66.6723182,39.4726972 67.5536818,38.5823892" id="Fill-47" fill="#C5A687"></path>
                <path d="M56.3378636,44.3814275 C57.2183182,43.4924718 58.6592273,43.4789482 59.5560455,44.3534786 C60.4533182,45.2275582 60.4655909,46.656559 59.5851364,47.5455147 C58.7033182,48.4349211 57.2624091,48.447994 56.3651364,47.5734636 C55.4687727,46.7002855 55.4560455,45.2712847 56.3378636,44.3814275" id="Fill-49" fill="#C5A687"></path>
                <path d="M56.3378636,44.3814275 C57.2183182,43.4924718 58.6592273,43.4789482 59.5560455,44.3534786 C60.4533182,45.2275582 60.4655909,46.656559 59.5851364,47.5455147 C58.7033182,48.4349211 57.2624091,48.447994 56.3651364,47.5734636 C55.4687727,46.7002855 55.4560455,45.2712847 56.3378636,44.3814275" id="Fill-51" fill="#C5A687"></path>
                <path d="M53.9919091,52.2693764 C54.8732727,51.3795192 56.3146364,51.3673479 57.2114545,52.2414275 C58.1082727,53.1150563 58.1214545,54.5440571 57.2396364,55.4339144 C56.3587273,56.3224192 54.9178182,56.3350413 54.021,55.4609617 C53.1246364,54.5877836 53.1119091,53.1583321 53.9919091,52.2693764" id="Fill-53" fill="#C5A687"></path>
                <path d="M53.9919091,52.2693764 C54.8732727,51.3795192 56.3146364,51.3673479 57.2114545,52.2414275 C58.1082727,53.1150563 58.1214545,54.5440571 57.2396364,55.4339144 C56.3587273,56.3224192 54.9178182,56.3350413 54.021,55.4609617 C53.1246364,54.5877836 53.1119091,53.1583321 53.9919091,52.2693764" id="Fill-55" fill="#C5A687"></path>
                <path d="M46.1279091,59.9767844 C47.0088182,59.0873779 48.4492727,59.0738542 49.347,59.9488355 C50.2438182,60.8224643 50.2556364,62.2514651 49.3751818,63.1413223 C48.4938182,64.0298272 47.0529091,64.0433509 46.1560909,63.1688204 C45.2588182,62.29429 45.247,60.86574 46.1279091,59.9767844" id="Fill-57" fill="#C5A687"></path>
                <path d="M46.1279091,59.9767844 C47.0088182,59.0873779 48.4492727,59.0738542 49.347,59.9488355 C50.2438182,60.8224643 50.2556364,62.2514651 49.3751818,63.1413223 C48.4938182,64.0298272 47.0529091,64.0433509 46.1560909,63.1688204 C45.2588182,62.29429 45.247,60.86574 46.1279091,59.9767844" id="Fill-59" fill="#C5A687"></path>
                <path d="M43.5418182,66.4974005 C44.4218182,65.6088956 45.8631818,65.5967243 46.7595455,66.4703531 C47.6563636,67.343982 47.6690909,68.7738843 46.7895455,69.6623892 C45.9068182,70.5517956 44.4659091,70.5639669 43.5695455,69.6903381 C42.6736364,68.8167092 42.66,67.3877085 43.5418182,66.4974005" id="Fill-61" fill="#C5A687"></path>
                <path d="M43.5418182,66.4974005 C44.4218182,65.6088956 45.8631818,65.5967243 46.7595455,66.4703531 C47.6563636,67.343982 47.6690909,68.7738843 46.7895455,69.6623892 C45.9068182,70.5517956 44.4659091,70.5639669 43.5695455,69.6903381 C42.6736364,68.8167092 42.66,67.3877085 43.5418182,66.4974005" id="Fill-63" fill="#C5A687"></path>
                <polygon id="Fill-65" fill="#C5A687" points="58.5382727 46.1867919 58.1964545 46.5316454 40.2214545 29.0148911 40.5632727 28.6700376"></polygon>
                <polygon id="Fill-67" fill="#C5A687" points="57.9945 46.6300977 57.5076818 46.6517355 57.2208636 33.0902029 57.7081364 33.068565"></polygon>
                <polygon id="Fill-69" fill="#C5A687" points="57.8901818 46.2281743 57.672 45.7958678 69.182 39.7715252 69.4001818 40.2047333"></polygon>
                <polygon id="Fill-71" fill="#C5A687" points="58.0757273 45.9631555 57.858 45.5299474 69.1820909 39.7715702 69.4002727 40.2047784"></polygon>
                <polygon id="Fill-73" fill="#C5A687" points="55.9077727 54.2477085 55.4377727 54.1178813 57.7232273 46.0600301 58.1927727 46.1894065"></polygon>
                <polygon id="Fill-75" fill="#C5A687" points="42.243 30.0803306 42.0634545 30.5302179 30.0220909 25.2158678 30.2011818 24.7659805"></polygon>
                <polygon id="Fill-77" fill="#C5A687" points="41.0573636 30.535988 40.8632727 30.0924117 51.636 25.4632607 51.8300909 25.906837"></polygon>
                <polygon id="Fill-79" fill="#C5A687" points="41.8465909 29.8184222 41.3765909 29.688595 43.7352273 17.7327724 44.2047727 17.8630503"></polygon>
                <polygon id="Fill-81" fill="#C5A687" points="29.4215909 53.0956724 28.9934091 52.8653193 41.0179545 30.9015327 41.4465909 31.1327874"></polygon>
                <polygon id="Fill-83" fill="#C5A687" points="28.9701818 54.6615327 28.8310909 54.1981217 57.8565455 46.1659654 57.9947273 46.630278"></polygon>
                <polygon id="Fill-85" fill="#C5A687" points="29.2995455 55.1048385 28.8327273 55.2436814 23.8286364 37.6205409 24.295 37.4835011"></polygon>
                <polygon id="Fill-87" fill="#C5A687" points="29.0726818 55.4499624 28.5867727 55.412547 29.7835909 39.2111946 30.2713182 39.2490609"></polygon>
                <polygon id="Fill-89" fill="#C5A687" points="29.3496818 54.2503681 29.0733182 54.6497671 16.4010455 46.0248234 16.6774091 45.6258753"></polygon>
                <polygon id="Fill-91" fill="#C5A687" points="39.8490909 64.6625545 39.545 65.0412171 29.7568182 55.4966642 30.0604545 55.1180015"></polygon>
                <polygon id="Fill-93" fill="#C5A687" points="47.417 61.7460406 47.5724545 62.2040421 39.617 64.8222239 39.2692727 64.4827799"></polygon>
                <polygon id="Fill-95" fill="#C5A687" points="39.4975 64.7677686 39.0961364 64.3706236 42.6697727 55.0947408 43.1261364 55.2646882"></polygon>
                <polygon id="Fill-97" fill="#C5A687" points="41.1416818 41.1119008 40.6721364 40.9825244 41.4635 30.493118 41.9335 30.6215928"></polygon>
                <polygon id="Fill-99" fill="#C5A687" points="44.5379091 67.5833959 44.2156364 67.9453794 39.4033636 64.8511645 39.727 64.4887303"></polygon>
                <g id="Group-103" transform="translate(0.000000, 0.088355)">
                    <mask id="mask-2" fill="white">
                        <use xlink:href="#path-1"></use>
                    </mask>
                    <g id="Clip-102"></g>
                    <path d="M0,0.362299023 L33.9718182,0.362299023 L0,34.028565 L0,0.362299023 Z M46.2877273,3.0471976 L2.71227273,47.0536589 L2.71227273,76.6529076 L77.0481818,76.6529076 L77.0481818,3.0471976 L46.2877273,3.0471976 Z M44.9804545,0.362299023 L79.7595455,0.362299023 L79.7595455,79.3387077 L0,79.3387077 L0,45.5070023 L44.9804545,0.362299023 Z" id="Fill-101" fill="#C6A17C" mask="url(#mask-2)"></path>
                </g>
            </g>
        </g>
    </g>
</svg>