<?xml version="1.0" encoding="UTF-8" standalone="no"?>
<svg width="70px" height="89px" viewBox="0 0 70 89" version="1.1" xmlns="http://www.w3.org/2000/svg" xmlns:xlink="http://www.w3.org/1999/xlink">
    <!-- Generator: Sketch 41.2 (35397) - http://www.bohemiancoding.com/sketch -->
    <title>logo</title>
    <desc>Created with Sketch.</desc>
    <defs>
        <path d="M39.0969696,0 L70,0 L70,69.6517413 L0,69.6517413 L0,39.0969696 L39.0969696,8.8817842e-16 Z" id="path-1"></path>
        <mask id="mask-2" maskContentUnits="userSpaceOnUse" maskUnits="objectBoundingBox" x="0" y="0" width="70" height="69.6517413" fill="white">
            <use xlink:href="#path-1"></use>
        </mask>
    </defs>
    <g id="Page-1" stroke="none" stroke-width="1" fill="none" fill-rule="evenodd">
        <g id="technotec-main" transform="translate(-731.000000, -40.000000)">
            <g id="logo" transform="translate(731.000000, 40.000000)">
                <path d="M29.1974747,0 L0,0 L0,29.1974747 L29.1974747,-8.8817842e-16 Z" id="Combined-Shape" fill="#C6A17C"></path>
                <use id="Combined-Shape" stroke="#AFA9A5" mask="url(#mask-2)" stroke-width="4" xlink:href="#path-1"></use>
                <path d="M8.852,81.004 L6.296,81.004 L6.296,88 L4.784,88 L4.784,81.004 L2.252,81.004 L2.252,79.72 L8.852,79.72 L8.852,81.004 Z M15.308,86.788 L15.38,87.928 C14.6519964,87.9920003 13.4360085,88.024 11.732,88.024 C11.1879973,88.024 10.7580016,87.8840014 10.442,87.604 C10.1259984,87.3239986 9.96400004,86.9400024 9.956,86.452 L9.956,81.268 C9.96400004,80.7799976 10.1259984,80.3960014 10.442,80.116 C10.7580016,79.8359986 11.1879973,79.696 11.732,79.696 C13.4360085,79.696 14.6519964,79.7279997 15.38,79.792 L15.308,80.944 L12.068,80.944 C11.8519989,80.944 11.6980005,80.9959995 11.606,81.1 C11.5139995,81.2040005 11.468,81.3839987 11.468,81.64 L11.468,83.092 L14.864,83.092 L14.864,84.244 L11.468,84.244 L11.468,86.092 C11.468,86.3480013 11.5139995,86.5279995 11.606,86.632 C11.6980005,86.7360005 11.8519989,86.788 12.068,86.788 L15.308,86.788 Z M22.34,86.704 L22.472,87.832 C21.8079967,88.040001 20.9600052,88.144 19.928,88.144 C18.6879938,88.144 17.8160025,87.8240032 17.312,87.184 C16.8079975,86.5439968 16.556,85.4360079 16.556,83.86 C16.556,82.2839921 16.8079975,81.1760032 17.312,80.536 C17.8160025,79.8959968 18.6879938,79.576 19.928,79.576 C20.8480046,79.576 21.6399967,79.6639991 22.304,79.84 L22.16,80.98 C21.4639965,80.9239997 20.720004,80.896 19.928,80.896 C19.2399966,80.896 18.7700013,81.1059979 18.518,81.526 C18.2659987,81.9460021 18.14,82.7239943 18.14,83.86 C18.14,84.9960057 18.2659987,85.7739979 18.518,86.194 C18.7700013,86.6140021 19.2399966,86.824 19.928,86.824 C20.9440051,86.824 21.747997,86.7840004 22.34,86.704 Z M30.056,79.72 L30.056,88 L28.556,88 L28.556,84.208 L25.28,84.208 L25.28,88 L23.78,88 L23.78,79.72 L25.28,79.72 L25.28,82.972 L28.556,82.972 L28.556,79.72 L30.056,79.72 Z M38.648,79.72 L38.648,87.448 C38.648,87.8160018 38.4640018,88 38.096,88 L36.908,88 C36.6199986,88 36.4120006,87.8480015 36.284,87.544 L33.956,82.468 C33.6759986,81.867997 33.5120002,81.4560011 33.464,81.232 L33.32,81.232 C33.3680002,81.5680017 33.392,81.9839975 33.392,82.48 L33.392,88 L31.916,88 L31.916,80.272 C31.916,79.9039982 32.1039981,79.72 32.48,79.72 L33.644,79.72 C33.8040008,79.72 33.9299995,79.7559996 34.022,79.828 C34.1140005,79.9000004 34.1959996,80.0159992 34.268,80.176 L36.524,85.108 C36.5480001,85.1640003 36.6319993,85.3519984 36.776,85.672 C36.9200007,85.9920016 37.0279996,86.2399991 37.1,86.416 L37.244,86.416 C37.2039998,85.9119975 37.184,85.464002 37.184,85.072 L37.184,79.72 L38.648,79.72 Z M43.616,79.564 C44.8960064,79.564 45.7859975,79.8719969 46.286,80.488 C46.7860025,81.1040031 47.036,82.2279918 47.036,83.86 C47.036,85.4920082 46.7860025,86.6159969 46.286,87.232 C45.7859975,87.8480031 44.8960064,88.156 43.616,88.156 C42.3439936,88.156 41.4580025,87.8480031 40.958,87.232 C40.4579975,86.6159969 40.208,85.4920082 40.208,83.86 C40.208,82.2279918 40.4579975,81.1040031 40.958,80.488 C41.4580025,79.8719969 42.3439936,79.564 43.616,79.564 Z M43.616,80.848 C42.9199965,80.848 42.4420013,81.0619979 42.182,81.49 C41.9219987,81.9180021 41.792,82.7079942 41.792,83.86 C41.792,85.0120058 41.9219987,85.8019979 42.182,86.23 C42.4420013,86.6580021 42.9199965,86.872 43.616,86.872 C44.3200035,86.872 44.8019987,86.6580021 45.062,86.23 C45.3220013,85.8019979 45.452,85.0120058 45.452,83.86 C45.452,82.7079942 45.3220013,81.9180021 45.062,81.49 C44.8019987,81.0619979 44.3200035,80.848 43.616,80.848 Z M54.524,81.004 L51.968,81.004 L51.968,88 L50.456,88 L50.456,81.004 L47.924,81.004 L47.924,79.72 L54.524,79.72 L54.524,81.004 Z M60.98,86.788 L61.052,87.928 C60.3239964,87.9920003 59.1080085,88.024 57.404,88.024 C56.8599973,88.024 56.4300016,87.8840014 56.114,87.604 C55.7979984,87.3239986 55.636,86.9400024 55.628,86.452 L55.628,81.268 C55.636,80.7799976 55.7979984,80.3960014 56.114,80.116 C56.4300016,79.8359986 56.8599973,79.696 57.404,79.696 C59.1080085,79.696 60.3239964,79.7279997 61.052,79.792 L60.98,80.944 L57.74,80.944 C57.5239989,80.944 57.3700005,80.9959995 57.278,81.1 C57.1859995,81.2040005 57.14,81.3839987 57.14,81.64 L57.14,83.092 L60.536,83.092 L60.536,84.244 L57.14,84.244 L57.14,86.092 C57.14,86.3480013 57.1859995,86.5279995 57.278,86.632 C57.3700005,86.7360005 57.5239989,86.788 57.74,86.788 L60.98,86.788 Z M68.012,86.704 L68.144,87.832 C67.4799967,88.040001 66.6320052,88.144 65.6,88.144 C64.3599938,88.144 63.4880025,87.8240032 62.984,87.184 C62.4799975,86.5439968 62.228,85.4360079 62.228,83.86 C62.228,82.2839921 62.4799975,81.1760032 62.984,80.536 C63.4880025,79.8959968 64.3599938,79.576 65.6,79.576 C66.5200046,79.576 67.3119967,79.6639991 67.976,79.84 L67.832,80.98 C67.1359965,80.9239997 66.392004,80.896 65.6,80.896 C64.9119966,80.896 64.4420013,81.1059979 64.19,81.526 C63.9379987,81.9460021 63.812,82.7239943 63.812,83.86 C63.812,84.9960057 63.9379987,85.7739979 64.19,86.194 C64.4420013,86.6140021 64.9119966,86.824 65.6,86.824 C66.6160051,86.824 67.419997,86.7840004 68.012,86.704 Z" id="technotec" fill="#D2B191"></path>
            </g>
        </g>
    </g>
</svg>