<?xml version="1.0" encoding="UTF-8"?>
<svg width="40px" height="38px" viewBox="0 0 40 38" version="1.1" xmlns="http://www.w3.org/2000/svg" xmlns:xlink="http://www.w3.org/1999/xlink">
    <!-- Generator: Sketch 43.1 (39012) - http://www.bohemiancoding.com/sketch -->
    <title>physics</title>
    <desc>Created with Sketch.</desc>
    <defs></defs>
    <g id="Page-1" stroke="none" stroke-width="1" fill="none" fill-rule="evenodd">
        <g id="tt_International_new" transform="translate(-1241.000000, -3224.000000)" fill="#FFFFFF">
            <g id="physics" transform="translate(1241.000000, 3224.000000)">
                <g id="Layer_1">
                    <path d="M40,18.671875 C40,15.6885156 37.1426563,13.0752344 32.6107031,11.3785156 C32.69,10.8998438 32.7586719,10.4271875 32.8060156,9.96515625 C33.2426563,5.7071875 32.2460156,2.64851563 30,1.35179688 C29.2586719,0.923828125 28.4079688,0.706484375 27.4733594,0.706484375 C25.2580469,0.706484375 22.6407031,1.96515625 20.0180469,4.12179688 C17.8940625,2.36914063 15.7646875,1.21109375 13.8246875,0.839765625 C13.4620312,0.7690625 13.1133594,1.00710938 13.0439844,1.36914063 C12.9753125,1.73046875 13.2119531,2.07976563 13.5732813,2.1484375 C15.2359375,2.46710938 17.100625,3.48507813 18.9879688,5.01578125 C17.56,6.32109375 16.1459375,7.87914063 14.8092969,9.64507813 C12.5779688,9.914375 10.51,10.3550781 8.66929688,10.9364063 C8.3259375,8.75570313 8.34664063,6.81039063 8.77328125,5.27710938 C8.95460938,5.31578125 9.14125,5.3384375 9.33328125,5.3384375 C10.8039844,5.3384375 11.9999219,4.14242188 11.9999219,2.67179688 C11.9999219,1.20179688 10.8039063,0.00515625 9.33328125,0.00515625 C7.86265625,0.00515625 6.66664062,1.201875 6.66664062,2.671875 C6.66664062,3.46453125 7.020625,4.16921875 7.57132812,4.65851563 C7.000625,6.4825 6.94664063,8.7925 7.37796875,11.3825 C2.85265625,13.0792188 0,15.6905469 0,18.671875 C0,21.571875 2.71601562,24.201875 7.37867188,25.9452344 C6.58203125,30.7192188 7.41664063,34.5011719 10,35.9932031 C10.7413281,36.4211719 11.5920312,36.6378906 12.5273438,36.6378906 C14.7446875,36.6378906 17.3646875,35.3772656 19.9886719,33.2171875 C22.1346875,34.9892188 24.2646875,36.1378906 26.1766406,36.5045313 C26.2186719,36.5125 26.2613281,36.5165625 26.3026562,36.5165625 C26.6160156,36.5165625 26.8960156,36.2945313 26.9573437,35.9758594 C27.0260156,35.6138281 26.789375,35.2645313 26.4279687,35.1952344 C24.7992969,34.8832031 22.9246094,33.8739063 21.0132812,32.3278906 C22.4419531,31.0225781 23.8553125,29.4645313 25.1919531,27.6985938 C27.4246094,27.4285938 29.4939844,26.9885938 31.3346094,26.4065625 C31.6779687,28.5852344 31.6566406,30.5305469 31.2279687,32.0672656 C31.0459375,32.0279688 30.8592969,32.0052344 30.6666406,32.0052344 C29.1959375,32.0052344 28,33.201875 28,34.671875 C28,36.1425 29.1960156,37.3385156 30.6666406,37.3385156 C32.1372656,37.3385156 33.3332812,36.1425 33.3332812,34.671875 C33.3332812,33.8798438 32.9799219,33.1758594 32.4299219,32.6865625 C33.0032812,30.8578906 33.0585938,28.5485938 32.6272656,25.9599219 C37.15,24.2625781 40,21.651875 40,18.671875 Z M27.4733594,2.03984375 C28.1713281,2.03984375 28.7973437,2.1971875 29.3333594,2.50648438 C31.0713281,3.50984375 31.8540625,6.17914063 31.48,9.82914063 C31.4426562,10.1904688 31.3846875,10.563125 31.3266406,10.9351563 C29.4892969,10.3551563 27.4253125,9.91585938 25.1986719,9.64648438 C23.8673437,7.87984375 22.4620312,6.3125 21.0386719,5.0071875 C23.3473437,3.1365625 25.6086719,2.03984375 27.4733594,2.03984375 Z M31.0753125,12.281875 C30.7519531,13.7971875 30.2732813,15.3758594 29.6532813,16.9839063 C29.1772656,15.9925781 28.6559375,14.9972656 28.0839844,14.0052344 C27.5126563,13.0145313 26.9092969,12.0665625 26.2873438,11.1585938 C28.0092969,11.431875 29.6213281,11.8132031 31.0753125,12.281875 Z M20.009375,5.89117188 C21.1427344,6.91914063 22.2707031,8.12179688 23.3586719,9.46648438 C22.2686719,9.38382813 21.1479687,9.33851563 20,9.33851563 C18.8539844,9.33851563 17.7353125,9.38382813 16.6473437,9.46585938 C17.7392969,8.11984375 18.8733594,6.91984375 20.009375,5.89117188 Z M13.7126562,11.1585156 C13.09,12.0658594 12.4879687,13.0164844 11.9173437,14.0058594 C11.3426562,15.0011719 10.8207031,15.9958594 10.3473437,16.9825 C9.72335937,15.3632031 9.24203125,13.7804688 8.919375,12.2838281 C10.3753125,11.8139063 11.9886719,11.4325781 13.7126562,11.1585156 Z M9.33335938,1.33851563 C10.0686719,1.33851563 10.6667188,1.93648438 10.6667188,2.671875 C10.6667188,3.4071875 10.06875,4.00523438 9.33335938,4.00523438 C8.59867188,4.00523438 8,3.40726563 8,2.671875 C8,1.9365625 8.59867188,1.33851563 9.33335938,1.33851563 Z M1.33335938,18.671875 C1.33335938,16.3445313 3.79804688,14.211875 7.6440625,12.7345313 C8.06273438,14.6205469 8.71609375,16.621875 9.5840625,18.6632031 C8.7040625,20.7271875 8.05203125,22.7345313 7.63609375,24.6158594 C3.69398438,23.0952344 1.33335938,20.9198438 1.33335938,18.671875 Z M19.9939844,31.45125 C18.9413281,30.5005469 17.890625,29.3972656 16.8746875,28.1659375 C16.9320312,28.080625 16.9746875,27.9866406 17.0220312,27.8952344 C18.019375,27.9639062 19.0186719,28.0052344 20,28.0052344 C21.1466406,28.0052344 22.2653125,27.9605469 23.3539844,27.8778906 C22.2626562,29.2232031 21.1286719,30.4232031 19.9939844,31.45125 Z M24.4739844,26.4278906 C23.0353125,26.5865625 21.5360156,26.671875 20,26.671875 C19.1179688,26.671875 18.2207031,26.6352344 17.3233594,26.5778906 C17.2727344,25.151875 16.1053906,24.0052344 14.6667188,24.0052344 C13.1960156,24.0052344 12.0000781,25.201875 12.0000781,26.671875 C12.0000781,28.1425781 13.1960938,29.3385156 14.6667188,29.3385156 C15.1000781,29.3385156 15.5046875,29.2245313 15.8667188,29.0398438 C16.8820313,30.2691406 17.9240625,31.3725 18.969375,32.3311719 C16.6580469,34.2058594 14.3933594,35.3045313 12.5273438,35.3045313 C11.8286719,35.3045313 11.2033594,35.1478906 10.6666406,34.8378906 C8.65,33.6739063 8.0359375,30.4699219 8.68195313,26.3971875 C9.0459375,26.511875 9.420625,26.621875 9.80460938,26.7264844 C10.1579688,26.823125 10.5259375,26.613125 10.6232813,26.2585156 C10.7199219,25.9032031 10.510625,25.5371875 10.1546094,25.4405469 C9.73195313,25.3252344 9.3253125,25.2005469 8.92796875,25.0725781 C9.24867188,23.5785938 9.72460938,21.9925781 10.3486719,20.3646094 C10.7907031,21.2866406 11.2739844,22.2119531 11.8,23.1339063 C11.9226563,23.3492188 12.1479688,23.4699219 12.3792969,23.4699219 C12.4913281,23.4699219 12.6046094,23.4419531 12.7092969,23.3825781 C13.0292969,23.2005469 13.140625,22.7932813 12.9579688,22.4732813 C12.2386719,21.2132813 11.5992969,19.940625 11.0426563,18.6779688 C11.6260156,17.3492969 12.3026563,16.0053125 13.0719531,14.6726563 C13.8372656,13.3466406 14.6639844,12.09 15.5266406,10.9160156 C16.9659375,10.7580469 18.4639844,10.6720313 20,10.6720313 C21.5379688,10.6720313 23.0379688,10.7580469 24.4786719,10.9167188 C25.339375,12.0914063 26.1639844,13.3473438 26.929375,14.6720313 C27.6946875,15.9973438 28.3714063,17.3373438 28.9580469,18.6646875 C28.3673438,20.0007031 27.6953906,21.3439844 26.92875,22.6726563 C26.1633594,23.9971875 25.3373438,25.2539063 24.4739844,26.4278906 Z M16,26.671875 C16,27.0465625 15.8439844,27.3845313 15.5939844,27.6265625 C15.590625,27.6292188 15.5866406,27.6299219 15.5832813,27.6325781 C15.5792969,27.6352344 15.5779688,27.6399219 15.5739844,27.6432813 C15.3360156,27.8659375 15.0179688,28.0053125 14.6666406,28.0053125 C13.9319531,28.0053125 13.3332813,27.4073438 13.3332813,26.6719531 C13.3332813,25.9366406 13.9319531,25.3385938 14.6666406,25.3385938 C15.4020313,25.3385156 16,25.9365625 16,26.671875 Z M26.2879687,26.1852344 C26.9113281,25.2778906 27.5126562,24.3278906 28.0832812,23.3392188 C28.6546094,22.3492188 29.1725781,21.3492188 29.650625,20.3499219 C30.2772656,21.9732813 30.760625,23.5592188 31.0839844,25.0592188 C29.6273437,25.5292188 28.0133594,25.9111719 26.2879687,26.1852344 Z M30.6666406,36.0052344 C29.9319531,36.0052344 29.3332813,35.4072656 29.3332813,34.671875 C29.3332813,33.9365625 29.9319531,33.3385156 30.6666406,33.3385156 C31.4019531,33.3385156 32,33.9364844 32,34.671875 C32,35.4071875 31.4020313,36.0052344 30.6666406,36.0052344 Z M32.3626563,24.6071875 C31.9426563,22.7171875 31.2833594,20.7105469 30.4113281,18.6638281 C31.27,16.6404688 31.9233594,14.6391406 32.3439844,12.7298438 C36.1966406,14.2071875 38.6666406,16.341875 38.6666406,18.671875 C38.6666406,20.9978906 36.2053125,23.1298438 32.3626563,24.6071875 Z" id="Shape"></path>
                </g>
            </g>
        </g>
    </g>
</svg>