<?xml version="1.0" encoding="UTF-8"?>
<svg width="40px" height="40px" viewBox="0 0 40 40" version="1.1" xmlns="http://www.w3.org/2000/svg" xmlns:xlink="http://www.w3.org/1999/xlink">
    <!-- Generator: Sketch 43.1 (39012) - http://www.bohemiancoding.com/sketch -->
    <title>pumpjack</title>
    <desc>Created with Sketch.</desc>
    <defs></defs>
    <g id="Page-1" stroke="none" stroke-width="1" fill="none" fill-rule="evenodd">
        <g id="tt_International_new" transform="translate(-440.000000, -3223.000000)" fill="#FFFFFF">
            <g id="pumpjack" transform="translate(440.000000, 3223.000000)">
                <path d="M35.76,0.154453125 C35.6146875,0.033125 35.4246875,-0.01890625 35.2373438,0.006484375 C35.0507031,0.033828125 34.8833594,0.139140625 34.7786719,0.296484375 L32.1120313,4.29648437 C32.039375,4.40578125 32,4.53515625 32,4.66648437 L32,10.6664844 L2.66664062,10.6664844 C1.19601562,10.6664844 0,11.8625 0,13.333125 C0,14.8038281 1.19601562,15.9997656 2.66664062,15.9997656 L4,15.9997656 L4,21.333125 L0.666640625,21.333125 C0.298671875,21.333125 0,21.6317969 0,21.9997656 L0,25.9997656 C0,26.3677344 0.298671875,26.6664062 0.666640625,26.6664062 L8.66664062,26.6664062 C9.03460938,26.6664062 9.33328125,26.3677344 9.33328125,25.9997656 L9.33328125,21.9997656 C9.33328125,21.6317969 9.03460938,21.333125 8.66664062,21.333125 L7.33335937,21.333125 C6.96539062,21.333125 6.66671875,21.6317969 6.66671875,21.9997656 C6.66671875,22.3677344 6.96539062,22.6664062 7.33335937,22.6664062 L8,22.6664062 L8,25.3330469 L1.33335937,25.3330469 L1.33335937,22.6664062 L4.66671875,22.6664062 C5.0346875,22.6664062 5.33335937,22.3677344 5.33335937,21.9997656 L5.33335937,15.9997656 L16,15.9997656 L16,19.2397656 L10.8307031,37.333125 L8.66671875,37.333125 C8.29875,37.333125 8.00007812,37.6317969 8.00007812,37.9997656 L8.00007812,39.333125 C8.00007812,39.7010937 8.29875,39.9997656 8.66671875,39.9997656 C9.0346875,39.9997656 9.33335938,39.7010937 9.33335938,39.333125 L9.33335938,38.6664844 L11.3313281,38.6664844 L11.3333594,38.6664844 L11.3353906,38.6664844 L28.6646875,38.6664844 L28.6667187,38.6664844 L28.66875,38.6664844 L30.6667188,38.6664844 L30.6667188,39.333125 C30.6667188,39.7010937 30.9653906,39.9997656 31.3333594,39.9997656 C31.7013281,39.9997656 32,39.7010937 32,39.333125 L32,37.9997656 C32,37.6317969 31.7013281,37.333125 31.3333594,37.333125 L29.169375,37.333125 L24,19.2397656 L24,15.9997656 L32.5313281,15.9997656 L38.1973437,18.4017969 C37.4907031,21.9778125 36.1560156,24.0297656 35.4213281,24.9297656 L33.3333594,21.7977344 L33.3333594,17.9997656 C33.3333594,17.6317969 33.0346875,17.333125 32.6667187,17.333125 C32.29875,17.333125 32.0000781,17.6317969 32.0000781,17.9997656 L32.0000781,21.9997656 C32.0000781,22.1310937 32.039375,22.2604687 32.1121094,22.3697656 L34.6667969,26.2017969 L34.6667969,35.333125 C34.6667969,35.7010937 34.9654687,35.9997656 35.3334375,35.9997656 C35.7014062,35.9997656 36.0000781,35.7010937 36.0000781,35.333125 L36.0000781,26.2871094 C36.9034375,25.3778125 40.0000781,21.6557812 40.0000781,13.333125 C40,3.79710937 35.9333594,0.2984375 35.76,0.154453125 Z M33.3333594,4.8684375 L35.4213281,1.73710937 C36.1566406,2.6384375 37.490625,4.69046875 38.1973437,8.26445312 L33.3333594,10.3264844 L33.3333594,4.8684375 Z M12.2173438,37.333125 L14.3953125,29.7084375 L18.7586719,32.4850781 L14.1086719,35.44375 C13.7979688,35.6410937 13.7066406,36.05375 13.9039844,36.3644531 C14.0313281,36.56375 14.2473438,36.673125 14.4673438,36.673125 C14.59,36.673125 14.7139844,36.6397656 14.8246875,36.5691406 L20,33.2751562 L26.3766406,37.333125 L12.2173438,37.333125 L12.2173438,37.333125 Z M27.5433594,36.4944531 L14.7779687,28.3710937 L16.2959375,23.0571094 L18.7899219,24.7044531 L16.2992187,26.3491406 C15.991875,26.5517969 15.9071875,26.9657812 16.1105469,27.273125 C16.2385156,27.4671094 16.4505469,27.5717969 16.6671875,27.5717969 C16.7932031,27.5717969 16.9205469,27.5364844 17.0338281,27.4617969 L20,25.503125 L24.7746875,28.6557812 L21.6280469,30.6584375 C21.3180469,30.8564062 21.2260156,31.2677344 21.4240625,31.5791406 C21.5514062,31.7784375 21.7667187,31.8878125 21.9867187,31.8878125 C22.109375,31.8878125 22.2333594,31.8538281 22.3446875,31.783125 L25.6046875,29.7084375 L27.5433594,36.4944531 Z M24.8639844,27.1171094 L16.68,21.7124219 L17.3073438,19.5164062 C17.3246875,19.4564062 17.3333594,19.3950781 17.3333594,19.3330469 L17.3333594,15.9996875 L22.6667188,15.9996875 L22.6667188,19.3330469 C22.6667188,19.3950781 22.6753906,19.4564062 22.6927344,19.5164062 L23.3200781,21.7124219 L21.6560938,22.8117187 C21.34875,23.014375 21.2647656,23.4283594 21.4674219,23.7350781 C21.5953906,23.9297656 21.8074219,24.034375 22.0240625,24.034375 C22.1500781,24.034375 22.2780469,23.9990625 22.3907031,23.924375 L23.7040625,23.0570312 L24.8639844,27.1171094 Z M33.3333594,14.8910937 L33.3333594,13.9997656 C33.3333594,13.6317969 33.0346875,13.333125 32.6667188,13.333125 C32.29875,13.333125 32.0000781,13.6317969 32.0000781,13.9997656 L32.0000781,14.6664062 L2.66664063,14.6664062 C1.93132813,14.6664062 1.33328125,14.0684375 1.33328125,13.3330469 C1.33328125,12.5977344 1.93125,11.9996875 2.66664063,11.9996875 L32.6666406,11.9996875 C32.7586719,11.9996875 32.8466406,11.9810156 32.9266406,11.9470312 L38.4226563,9.61773437 C38.5739844,10.7297656 38.6666406,11.9610937 38.6666406,13.3330469 C38.6666406,14.7050781 38.5739844,15.9364062 38.4226563,17.0483594 L33.3333594,14.8910937 Z" id="Shape"></path>
                <path d="M4.68664063,12.6664844 L4.68,12.6664844 C4.31203125,12.6664844 4.01664063,12.9651562 4.01664063,13.333125 C4.01664063,13.7010937 4.31867188,13.9997656 4.68664063,13.9997656 C5.0553125,13.9997656 5.35328125,13.7010937 5.35328125,13.333125 C5.35335938,12.9651562 5.0553125,12.6664844 4.68664063,12.6664844 Z" id="Shape"></path>
                <path d="M20.02,12.6664844 L20.0133594,12.6664844 C19.6453906,12.6664844 19.35,12.9651562 19.35,13.333125 C19.35,13.7010937 19.6520313,13.9997656 20.02,13.9997656 C20.3886719,13.9997656 20.6866406,13.7010937 20.6866406,13.333125 C20.6866406,12.9651562 20.3886719,12.6664844 20.02,12.6664844 Z" id="Shape"></path>
            </g>
        </g>
    </g>
</svg>