<?xml version="1.0" encoding="UTF-8"?>
<svg width="40px" height="40px" viewBox="0 0 40 40" version="1.1" xmlns="http://www.w3.org/2000/svg" xmlns:xlink="http://www.w3.org/1999/xlink">
    <!-- Generator: Sketch 43.1 (39012) - http://www.bohemiancoding.com/sketch -->
    <title>wind-engine</title>
    <desc>Created with Sketch.</desc>
    <defs></defs>
    <g id="Page-1" stroke="none" stroke-width="1" fill="none" fill-rule="evenodd">
        <g id="tt_International_new" transform="translate(-840.000000, -3223.000000)" fill="#FFFFFF">
            <g id="wind-engine" transform="translate(840.000000, 3223.000000)">
                <path d="M7.59532164,5.82791423 C7.74502924,5.82791423 7.89676413,5.77730994 8.0211306,5.67352827 C9.34323587,4.56904483 10.8109942,3.65278752 12.3846394,2.94955166 C12.72,2.7991423 12.8703314,2.40592593 12.7206238,2.0705653 C12.5709162,1.73520468 12.1783236,1.58417154 11.8416374,1.7345809 C10.1556335,2.48779727 8.58331384,3.46916179 7.16810916,4.65224172 C6.88530214,4.88779727 6.84873294,5.30697856 7.08358674,5.58908382 C7.21536062,5.74674464 7.40499025,5.82791423 7.59532164,5.82791423 Z" id="Shape"></path>
                <path d="M4.39555556,9.66908382 C4.59719298,9.36233918 4.51196881,8.94978558 4.20460039,8.74752437 C3.8985575,8.54658869 3.4860039,8.63173489 3.28304094,8.93847953 C2.44202729,10.2193372 1.72272904,11.7030799 1.14588694,13.3478363 C1.02479532,13.6945029 1.20709552,14.074386 1.55376218,14.1961793 C1.6262768,14.2214425 1.70081871,14.2340741 1.77403509,14.2340741 C2.04881092,14.2340741 2.30565302,14.0623782 2.40148148,13.7883041 C2.94307992,12.2453801 3.61309942,10.8594932 4.39555556,9.66908382 Z" id="Shape"></path>
                <path d="M1.69551657,16.3872904 C1.76608187,16.0266667 1.5311501,15.6766472 1.16990253,15.6067836 C0.803976608,15.5335673 0.459961014,15.7711501 0.389395712,16.1317739 C-0.170838207,18.9935283 -0.0936452242,21.994308 0.612319688,24.8088109 C0.68748538,25.1108772 0.958986355,25.3118129 1.25637427,25.3118129 C1.31025341,25.3118129 1.36413255,25.305809 1.41871345,25.2925536 C1.77598441,25.202729 1.9922807,24.8414035 1.90245614,24.4848343 C1.24436647,21.8586355 1.17255361,19.0587914 1.69551657,16.3872904 Z" id="Shape"></path>
                <path d="M4.07220273,21.3529825 C4.10214425,21.6996491 4.39290448,21.9604678 4.73426901,21.9604678 C4.75352827,21.9604678 4.7728655,21.9597661 4.79282651,21.9578168 C5.15945419,21.9265497 5.42955166,21.6031969 5.39766082,21.237193 C5.17473684,18.6842105 5.62385965,16.1132164 6.69777778,13.8030409 C6.85216374,13.4697076 6.70775828,13.0737622 6.37504873,12.9194542 C6.03968811,12.7637427 5.64576998,12.9094737 5.49076023,13.2421832 C4.31906433,15.7631969 3.82869396,18.5677193 4.07220273,21.3529825 Z" id="Shape"></path>
                <path d="M25.1011306,2.04335283 C27.7040156,2.78658869 30.1652242,4.12460039 32.217232,5.9131384 C32.3430019,6.02292398 32.4993372,6.07680312 32.654347,6.07680312 C32.8392982,6.07680312 33.0243275,5.99898635 33.1560234,5.848577 C33.3975828,5.5711501 33.3682651,5.15126706 33.091462,4.9097076 C30.8923977,2.99345029 28.2555945,1.56023392 25.4663548,0.763820663 C25.1157115,0.66331384 24.7451072,0.866978558 24.6439766,1.22089669 C24.542924,1.57489279 24.7478363,1.942846 25.1011306,2.04335283 Z" id="Shape"></path>
                <path d="M26.7299805,5.488577 C26.397271,5.33356725 26.0014035,5.47789474 25.8450682,5.81060429 C25.6900585,6.14331384 25.834386,6.53988304 26.1670955,6.69489279 C28.4892008,7.77808967 30.4906823,9.45216374 31.9550877,11.5374659 C32.0841326,11.7217934 32.2910721,11.8202729 32.500039,11.8202729 C32.6324366,11.8202729 32.7661598,11.7810526 32.8826511,11.6991813 C33.182768,11.4882651 33.2552827,11.0730604 33.0443665,10.7723197 C31.4453801,8.49738791 29.2623002,6.67033138 26.7299805,5.488577 Z" id="Shape"></path>
                <path d="M33.41154,24.6425731 C31.4973099,23.5360624 26.1577388,21.1753606 23.9592982,20.2152047 C23.9646004,20.1306823 23.9726316,20.0468616 23.9726316,19.9610136 C23.9726316,17.76 22.1814425,15.9688109 19.9797271,15.9688109 C19.8253411,15.9688109 19.6729825,15.980117 19.5219493,15.9974269 C18.9583626,10.9646004 18.6489669,7.42346979 18.6489669,5.98830409 C18.6489669,1.33076023 19.6157505,1.33076023 19.9797271,1.33076023 C20.3437037,1.33076023 21.3111111,1.33076023 21.3111111,5.98830409 C21.3111111,7.58853801 21.094191,10.3663938 20.6663548,14.2468616 C20.6264327,14.6121637 20.8899025,14.9408187 21.2552047,14.9814425 C21.6224561,15.0193372 21.948538,14.757193 21.9890838,14.3925926 C22.4222222,10.4642495 22.6417934,7.63711501 22.6417934,5.98830409 C22.6417934,2.87836257 22.3197661,0 19.9796491,0 C17.6402339,0 17.3182066,2.87836257 17.3182066,5.98830409 C17.3182066,7.89325536 17.7985965,12.5840936 18.2264327,16.380039 C16.9030019,17.0307992 15.9874464,18.3894737 15.9874464,19.9610136 C15.9874464,20.8419493 16.2775828,21.6537232 16.7619493,22.314386 C14.3453411,24.1001949 10.2060819,27.1402729 8.54401559,28.0997271 C4.51259259,30.4278363 4.02682261,29.591501 3.84584795,29.2761014 C3.66354776,28.9614035 3.18050682,28.1236647 7.21325536,25.7949318 C8.58261209,25.0038207 11.1675634,23.7695127 14.6879532,22.2232359 C15.0246394,22.0755556 15.1769981,21.682963 15.0299415,21.3469786 C14.8815595,21.0109942 14.4902924,20.857232 14.1523587,21.0049903 C10.5380897,22.5925926 7.97910331,23.8161404 6.54791423,24.6425731 C3.85528265,26.1975049 1.52452242,27.9161793 2.69356725,29.9415205 C3.14003899,30.7153216 3.80272904,31.0240936 4.60187135,31.0240936 C5.89465887,31.0240936 7.54479532,30.2136452 9.20951267,29.2522417 C10.9753606,28.2335283 15.3209357,25.0344639 17.7275634,23.2552827 C18.3696686,23.6951267 19.1447953,23.9532164 19.9798051,23.9532164 C21.6239376,23.9532164 23.0385185,22.9538402 23.6499805,21.531306 C27.1883821,23.0803119 31.2517739,24.931306 32.7469006,25.7950097 C36.7797271,28.1238207 36.2959844,28.9614815 36.114308,29.2761793 C35.9333333,29.5915789 35.4463158,30.4272904 31.4148148,28.0998051 C30.0421832,27.3079922 27.6814815,25.6871735 24.5861209,23.4129435 C24.2900585,23.1940741 23.8735283,23.2592593 23.6559064,23.5546979 C23.4383626,23.851462 23.5022222,24.2679922 23.7982846,24.4849123 C26.9767641,26.8210526 29.3154776,28.4245614 30.7493957,29.2522417 C32.4141131,30.2137232 34.0649513,31.0240936 35.3583626,31.0240936 C36.1568031,31.0240936 36.8208187,30.7146979 37.2672904,29.9415205 C38.4357895,27.9161793 36.1049513,26.1975049 33.41154,24.6425731 Z M19.9798051,22.6224561 C18.5119688,22.6224561 17.3183626,21.4287719 17.3183626,19.9610136 C17.3183626,18.4938791 18.5120468,17.2995712 19.9798051,17.2995712 C21.4476413,17.2995712 22.6419493,18.4938791 22.6419493,19.9610136 C22.6419493,21.4288499 21.4475634,22.6224561 19.9798051,22.6224561 Z" id="Shape"></path>
                <path d="M39.6440546,16.5197661 C39.5801949,16.1578168 39.2401559,15.9156335 38.8735283,15.9781676 C38.5122027,16.0414035 38.2693957,16.3860429 38.3325536,16.7479922 C38.6279922,18.4433528 38.688499,20.1726316 38.5108772,21.888655 C38.4729825,22.2545809 38.7384016,22.5812865 39.1044055,22.6192593 C39.1270175,22.6219103 39.1503314,22.6226121 39.1735673,22.6226121 C39.5102534,22.6226121 39.7989864,22.3684211 39.8349318,22.025809 C40.0246394,20.1879142 39.960078,18.3355166 39.6440546,16.5197661 Z" id="Shape"></path>
                <path d="M32.9365302,33.3548538 C30.9923587,35.237193 28.602963,36.6996491 26.0273684,37.5826121 C25.6793762,37.7016764 25.494425,38.0803119 25.6134893,38.4276023 C25.7079922,38.7037037 25.9667836,38.8780507 26.242963,38.8780507 C26.314152,38.8780507 26.3873684,38.8660429 26.4585575,38.8414815 C29.2184795,37.8953606 31.7781676,36.3284211 33.8614425,34.3103314 C34.1262378,34.0548148 34.1322417,33.6336842 33.8774269,33.3695127 C33.6211306,33.1053411 33.1986745,33.0993372 32.9365302,33.3548538 Z" id="Shape"></path>
                <path d="M35.1235867,6.95641326 C34.8840546,6.6782846 34.4648733,6.64701754 34.1854191,6.88584795 C33.9072904,7.12538012 33.8753216,7.54588694 34.1148538,7.82401559 C35.182768,9.0662768 36.0470955,10.3398051 36.6845224,11.6099805 C36.8009357,11.842885 37.0364912,11.9766082 37.28,11.9766082 C37.3798051,11.9766082 37.4822612,11.9539961 37.5773879,11.9060429 C37.9060429,11.7410526 38.0391423,11.3418324 37.874152,11.0130994 C37.1882261,9.64584795 36.2626901,8.28116959 35.1235867,6.95641326 Z" id="Shape"></path>
                <path d="M21.345809,35.8712671 C21.3650682,35.8712671 21.3850292,35.8705653 21.4049903,35.868616 C24.1729435,35.6237817 26.8477193,34.6463158 29.139883,33.042807 C29.4406238,32.8318908 29.5138402,32.4166862 29.3035478,32.1159454 C29.0926316,31.8145029 28.6781287,31.7419883 28.3766862,31.9522807 C26.2754776,33.422768 23.8235478,34.3189864 21.2878752,34.5432359 C20.9212476,34.5758285 20.6511501,34.8985575 20.6837427,35.2644834 C20.714386,35.6104483 21.0044444,35.8712671 21.345809,35.8712671 Z" id="Shape"></path>
                <path d="M13.585653,37.4615205 C11.9688109,36.8693177 10.4410916,36.0562963 9.0451462,35.0449123 C8.74643275,34.828694 8.33052632,34.8959064 8.11633528,35.1932943 C7.90074074,35.4906823 7.96662768,35.9072125 8.26471735,36.122807 C9.76046784,37.2060039 11.3965692,38.0769591 13.1278752,38.7111111 C13.2030409,38.7384016 13.2809357,38.7517349 13.3567251,38.7517349 C13.6275244,38.7517349 13.8830409,38.5847173 13.9815205,38.3146199 C14.1079142,37.9698246 13.9302924,37.5879142 13.585653,37.4615205 Z" id="Shape"></path>
                <path d="M23.4230799,38.2705653 C21.8155166,38.5739571 20.2785185,38.6850682 18.8586355,38.6032749 C18.4946589,38.5812865 18.1773099,38.862768 18.1566472,39.2293957 C18.1353606,39.5966472 18.4148148,39.9107212 18.7820663,39.9320078 C19.1080702,39.9512671 19.4394542,39.9606238 19.7761404,39.9606238 C21.0163743,39.9606238 22.3218713,39.8329045 23.6698635,39.5780117 C24.0311891,39.5101754 24.2680702,39.1621832 24.2001559,38.8008577 C24.1316959,38.4402339 23.7844055,38.202729 23.4230799,38.2705653 Z" id="Shape"></path>
            </g>
        </g>
    </g>
</svg>