<?xml version="1.0" encoding="iso-8859-1"?>
<!-- Generator: Adobe Illustrator 19.0.0, SVG Export Plug-In . SVG Version: 6.00 Build 0)  -->
<svg version="1.1" id="Capa_1" xmlns="http://www.w3.org/2000/svg" xmlns:xlink="http://www.w3.org/1999/xlink" x="0px" y="0px"
	 viewBox="0 0 512 512" style="enable-background:new 0 0 512 512;" xml:space="preserve">
<g>
	<g>
		<path d="M355.488,120c-5.52,0-10,4.48-10,10c0,5.52,4.48,10,10,10s10-4.48,10-10C365.488,124.48,361.008,120,355.488,120z"/>
	</g>
</g>
<g>
	<g>
		<path d="M315.488,160c-5.52,0-10,4.48-10,10s4.48,10,10,10s10-4.48,10-10S321.008,160,315.488,160z"/>
	</g>
</g>
<g>
	<g>
		<path d="M275.488,100c-5.52,0-10,4.48-10,10s4.48,10,10,10s10-4.48,10-10S281.008,100,275.488,100z"/>
	</g>
</g>
<g>
	<g>
		<path d="M235.488,452c-5.52,0-10,4.48-10,10c0,5.52,4.48,10,10,10s10-4.48,10-10C245.488,456.48,241.008,452,235.488,452z"/>
	</g>
</g>
<g>
	<g>
		<path d="M425.347,145.072c-1.19-22.188-10.387-42.881-26.217-58.713c-14.805-14.804-34.194-23.862-54.784-25.912
			c0.757-3.409,1.143-6.911,1.143-10.447c0-27.57-22.43-50-50-50c-24.474,0-44.897,17.675-49.176,40.93
			c-3.645-0.619-7.26-0.93-10.824-0.93c-38.598,0-70,31.402-70,70c0,0.108,0.002,0.217,0.005,0.325l0.314,9.675h-30.319
			c-16.575,0-30,13.424-30,30c0,13.036,8.361,24.152,20,28.28v95.396c-0.778,1.583-96.058,195.496-96.126,195.635
			c-0.044,0.09-0.087,0.182-0.129,0.273C20.203,489.462,34.744,512,56.547,512h237.881c21.831,0,36.333-22.563,27.314-42.416
			c-0.042-0.092-0.085-0.183-0.129-0.273c-0.075-0.152-96.05-195.482-96.126-195.635v-95.379c1.379-0.487,2.721-1.074,4.015-1.76
			c10.451,33.795,40.294,59.153,76.483,62.966C310.745,284.68,349.069,320,395.488,320c49.626,0,90-40.374,90-90
			C485.488,191.494,461.117,157.606,425.347,145.072z M231.867,332l71.718,145.972c2.91,6.609-1.902,14.028-9.157,14.028H56.547
			c-7.25,0-12.069-7.416-9.157-14.028L119.108,332H231.867z M215.488,160h-20c-5.522,0-10,4.477-10,10s4.478,10,10,10h10v96
			c0,1.529,0.351,3.039,1.025,4.411L222.038,312h-93.102l15.526-31.589c0.675-1.372,1.025-2.881,1.025-4.411v-96h10
			c5.522,0,10-4.477,10-10s-4.478-10-10-10h-20c-5.514,0-10-4.486-10-10c0.001-5.522,4.48-10,10.001-10h80c5.514,0,10,4.486,10,10
			C225.488,155.522,221.009,160,215.488,160z M395.488,300c-38.598,0-70-31.402-70-70c0-5.523-4.478-10-10-10
			c-38.598,0-70-31.402-70-70c0-16.542-13.458-30-30-30h-29.67l-0.33-10.155C185.573,82.347,207.97,60,235.488,60
			c5.506,0,11.056,1.043,16.967,3.19c6.895,2.502,14.064-3.042,13.368-10.349C264.008,33.965,278.85,20,295.488,20
			c16.542,0,30,13.458,30,30c0,5.291-1.475,10.439-4.264,14.89c-1.998,3.188-2.037,7.229-0.101,10.456
			c1.937,3.227,5.498,5.087,9.274,4.83c20.35-1.429,40.244,5.98,54.589,20.325c27.473,27.473,27.197,71.802,0,98.998
			c-3.905,3.905-3.905,10.237,0,14.143c3.906,3.905,10.236,3.905,14.143,0c13.094-13.094,21.692-29.65,24.914-47.585
			C448.926,177.141,465.488,202,465.488,230C465.488,268.598,434.086,300,395.488,300z"/>
	</g>
</g>
<g>
	<g>
		<path d="M175.488,352c-16.542,0-30,13.458-30,30s13.458,30,30,30s30-13.458,30-30S192.03,352,175.488,352z M175.488,392
			c-5.514,0-10-4.486-10-10c0-5.514,4.486-10,10-10s10,4.486,10,10C185.488,387.514,181.002,392,175.488,392z"/>
	</g>
</g>
<g>
	<g>
		<path d="M445.488,0c-22.056,0-40,17.944-40,40c0,22.056,17.944,40,40,40c22.056,0,40-17.944,40-40
			C485.488,17.944,467.544,0,445.488,0z M445.488,60c-11.028,0-20-8.972-20-20s8.971-20,20-20c11.028,0,20,8.972,20,20
			S456.516,60,445.488,60z"/>
	</g>
</g>
<g>
	<g>
		<path d="M195.488,452h-60c-5.522,0-10,4.477-10,10s4.477,10,10,10h60c5.522,0,10-4.477,10-10S201.01,452,195.488,452z"/>
	</g>
</g>
<g>
</g>
<g>
</g>
<g>
</g>
<g>
</g>
<g>
</g>
<g>
</g>
<g>
</g>
<g>
</g>
<g>
</g>
<g>
</g>
<g>
</g>
<g>
</g>
<g>
</g>
<g>
</g>
<g>
</g>
</svg>
