<svg height="426pt" viewBox="-44 0 426 426.968" width="426pt" xmlns="http://www.w3.org/2000/svg"><path d="m82.253906 210.96875c0 4.417969-3.582031 8-8 8-4.421875 0-8-3.582031-8-8s3.578125-8 8-8c4.417969 0 8 3.582031 8 8zm0 0"/><path d="m34.253906 250.96875h95.253906l49.144532-128h-150.863282l-27.304687 10.917969 31.421875 31.425781c1.503906 1.5 2.34375 3.535156 2.347656 5.65625zm56-96h16v-16h16v16h16v16h-16v16h-16v-16h-16zm-16 32c13.253906 0 24 10.746094 24 24s-10.746094 24-24 24c-13.257812 0-24-10.746094-24-24s10.742188-24 24-24zm0 0"/><path d="m106.253906 154.96875h16v16h-16zm0 0"/><path d="m100.539062 371.078125c-1.582031 4.125.472657 8.75 4.59375 10.335937 4.125 1.585938 8.753907-.480468 10.335938-4.605468l42.175781-109.839844h-17.136719zm0 0"/><path d="m174.78125 266.96875-24.527344 64h36v16h-42.1875l-6.132812 16h32.320312v16h-38.464844l-1.378906 3.574219c-4.941406 12.078125-18.628906 17.988281-30.8125 13.3125-12.179687-4.675781-18.394531-18.230469-13.984375-30.511719l37.75-98.375h-89.109375v128c0 17.671875 14.324219 32 32 32h192c17.671875 0 32-14.328125 32-32v-96h-32v-16h32v-16zm27.472656 112h-16v-16h16zm10.070313-28.457031c-5.195313-3.671875-8.699219-9.269531-9.734375-15.542969-1.605469-9.574219 2.710937-19.171875 10.941406-24.320312 8.230469-5.144532 18.753906-4.828126 26.65625.808593 5.183594 3.664063 8.6875 9.25 9.726562 15.511719 2.195313 13.066406-6.613281 25.4375-19.679687 27.640625-1.320313.21875-2.65625.332031-4 .335937-4.984375.015626-9.851563-1.535156-13.910156-4.433593zm61.929687 36.457031c0 13.253906-10.746094 24-24 24-13.257812 0-24-10.746094-24-24s10.742188-24 24-24c13.253906 0 24 10.746094 24 24zm0 0"/><path d="m212.925781 122.96875h-17.136719l-49.144531 128h17.144531zm0 0"/><path d="m180.925781 250.96875h109.328125v-16h-32v-16h32v-16h-32v-16h32v-16h-32v-16h32v-32h-60.1875zm0 0"/><path d="m258.253906 386.96875c0 4.417969-3.582031 8-8 8-4.421875 0-8-3.582031-8-8s3.578125-8 8-8c4.417969 0 8 3.582031 8 8zm0 0"/><path d="m234.140625 329.648438c-.644531-3.855469-3.980469-6.679688-7.886719-6.679688-.449218-.003906-.898437.035156-1.339844.109375-4.351562.734375-7.285156 4.855469-6.558593 9.210937.34375 2.09375 1.515625 3.960938 3.25 5.183594 1.71875 1.25 3.871093 1.746094 5.964843 1.375 4.355469-.730468 7.292969-4.847656 6.570313-9.199218zm0 0"/><path d="m58.253906 26.96875h16v16h-16zm0 0"/><path d="m58.253906 74.96875h16v16h-16zm0 0"/><path d="m34.253906 50.96875h16v16h-16zm0 0"/><path d="m82.253906 50.96875h16v16h-16zm0 0"/><path d="m275.339844 21.894531-2.175782 15.847657c37.328126 5.128906 49.089844 14.914062 49.089844 17.226562 0 4.625-28.371094 19.800781-90.890625 20l24.601563-64.097656c1.582031-4.121094-.472656-8.746094-4.59375-10.335938-.917969-.351562-1.894532-.535156-2.878906-.535156-3.3125.00390625-6.28125 2.050781-7.464844 5.144531l-26.65625 69.441407c-52.117188-2.3125-76.117188-15.378907-76.117188-19.617188 0-2.3125 11.757813-12.097656 49.085938-17.226562l-2.175782-15.847657c-23.496093 3.234375-62.910156 11.816407-62.910156 33.074219 0 21.253906 41.414063 32.550781 86.085938 35.304688l-6.40625 16.695312h17.117187l6.167969-16.066406c1.671875 0 3.351562.066406 5.015625.066406 52.019531 0 108.019531-11.265625 108.019531-36 0-21.257812-39.417968-29.839844-62.914062-33.074219zm0 0"/></svg>