<?xml version="1.0" encoding="iso-8859-1"?>
<!-- Generator: Adobe Illustrator 21.0.0, SVG Export Plug-In . SVG Version: 6.00 Build 0)  -->
<svg xmlns="http://www.w3.org/2000/svg" xmlns:xlink="http://www.w3.org/1999/xlink" version="1.1" id="Capa_1" x="0px" y="0px" viewBox="0 0 512.06 512.06" style="enable-background:new 0 0 512.06 512.06;" xml:space="preserve" width="512" height="512">
<g>
	<path d="M423.014,323.425l-1.905-10.23l-10.249-1.799c-2.472-0.434-43.239-7.215-87.109,7.059V93.666h26.999V0H86.761v93.666   h26.998v313.338C113.759,464.899,160.86,512,218.755,512c8.444,0,16.655-1.01,24.526-2.901c6.015,1.171,17.614,2.961,32.299,2.961   c29.634,0,71.805-7.296,105.86-41.705C438.793,412.406,423.685,327.031,423.014,323.425z M116.761,30h203.988v33.666H116.761V30z    M293.75,93.666v90.002c-11.51,6.927-39.1,19.505-67.263,2.562c-31.053-18.681-58.271-17.586-75.637-13.381   c-2.496,0.605-4.86,1.29-7.092,2.023V93.666H293.75z M143.759,407.004V207.263c10.625-5.642,35.613-14.367,67.264,4.673   c14.144,8.509,29.499,12.8,45.396,12.8c9.585,0,19.368-1.561,29.196-4.698c2.869-0.916,5.584-1.916,8.136-2.957v114.707   c-10.217,5.941-20.165,13.382-29.383,22.696c-43.309,43.759-42.634,100.18-39.174,127.231c-2.123,0.182-4.269,0.285-6.438,0.285   C177.402,482,143.759,448.357,143.759,407.004z M360.118,449.251c-18.925,19.122-43.572,29.991-73.256,32.306   c-3.999,0.312-7.831,0.44-11.435,0.439l76.911-76.912l-21.213-21.213l-77.296,77.296c-0.053-3.766,0.028-7.785,0.312-11.994   c2.009-29.707,12.622-54.464,31.547-73.586c35.463-35.832,86.852-37.122,109.087-35.743   C396.445,362.021,395.766,413.233,360.118,449.251z"/>
	<rect x="216.252" y="317.007" width="31.333" height="31.333"/>
	<rect x="161.755" y="306.007" width="31.333" height="31.333"/>
	<rect x="169.421" y="369.145" width="31.333" height="31.333"/>
</g>















</svg>
