<svg height="448pt" viewBox="-72 0 448 448" width="448pt" xmlns="http://www.w3.org/2000/svg"><path d="m264 208h16v16h-16zm0 0"/><path d="m240 232h16v16h-16zm0 0"/><path d="m288 232h16v16h-16zm0 0"/><path d="m264 256h16v16h-16zm0 0"/><path d="m128 248h16v16h-16v16h16v16h-16v16h16v16h-16v16h16v16h-16v56c0 17.671875 14.328125 32 32 32s32-14.328125 32-32v-184h-64zm48 176h-16v-16h16zm-16-32h-16v-16h16zm0 0"/><path d="m128 176c0 4.417969 3.582031 8 8 8s8-3.582031 8-8v-33.921875c-15.027344 7.894531-32.972656 7.894531-48 0v65.921875c0 4.417969 3.582031 8 8 8s8-3.582031 8-8v-40c0-4.417969 3.582031-8 8-8s8 3.582031 8 8zm0 0"/><path d="m200 136h-8v-.207031c-6.882812 5.292969-15.316406 8.175781-24 8.207031-2.691406-.027344-5.371094-.328125-8-.894531v8.894531h40c4.417969 0 8-3.582031 8-8s-3.582031-8-8-8zm0 0"/><path d="m160 176c0 7.792969-3.78125 15.101562-10.140625 19.597656-6.363281 4.5-14.511719 5.632813-21.859375 3.035156v17.367188h64v-16h-16v-16h16v-16h-32zm0 0"/><path d="m168 128c12.980469.074219 23.65625-10.210938 24.066406-23.1875s-9.59375-23.914062-22.554687-24.660156c5.15625 16.007812 2.195312 33.527344-7.9375 46.953125 2.09375.585937 4.253906.886719 6.425781.894531zm0 0"/><path d="m156 96c0 19.882812-16.117188 36-36 36s-36-16.117188-36-36 16.117188-36 36-36 36 16.117188 36 36zm0 0"/><path d="m237.246094 34c0 10.628906-8.617188 19.246094-19.246094 19.246094s-19.246094-8.617188-19.246094-19.246094 8.617188-19.246094 19.246094-19.246094 19.246094 8.617188 19.246094 19.246094zm0 0"/><path d="m76 22c0 12.148438-9.851562 22-22 22s-22-9.851562-22-22 9.851562-22 22-22 22 9.851562 22 22zm0 0"/><path d="m288 110c0 12.148438-9.851562 22-22 22s-22-9.851562-22-22 9.851562-22 22-22 22 9.851562 22 22zm0 0"/><path d="m16 104h16v16h-16zm0 0"/><path d="m16 136h16v16h-16zm0 0"/><path d="m0 120h16v16h-16zm0 0"/><path d="m32 120h16v16h-16zm0 0"/></svg>