<svg height="448pt" viewBox="0 -16 448.02531 448" width="448pt" xmlns="http://www.w3.org/2000/svg"><path d="m248.023438 266.675781-22.398438-29.863281c-1.816406-2.425781-2.109375-5.667969-.753906-8.378906 1.355468-2.707032 4.125-4.421875 7.152344-4.421875h71.578124l-23.199218-69.472657c-.257813-.816406-.382813-1.667968-.378906-2.527343v-72h-64v16h32v16h-32v16h16v16h-16v8c0 .859375-.140626 1.710937-.40625 2.527343l-24.953126 74.832032c25.347657 26.347656 37.230469 62.851562 32.246094 99.070312s-26.285156 68.15625-57.804687 86.675782c2.484375.589843 5.03125.890624 7.582031.894531h83.546875c-5.296875-6.882813-8.179687-15.316407-8.210937-24zm0 0"/><path d="m128.570312 365.101562 43.734376-131.199218c-9.175782-8.101563-19.722657-14.503906-31.144532-18.90625-3.101562-1.1875-5.144531-4.171875-5.136718-7.496094v-175.488281h-64v16h32v16h-32v16h16v16h-16v111.488281c0 3.3125-2.042969 6.277344-5.132813 7.464844-52.207031 19.914062-79.324219 77.539062-61.390625 130.460937 17.929688 52.917969 74.496094 82.1875 128.054688 66.257813-.304688-.429688-.648438-.800782-.9375-1.246094-8.90625-13.464844-10.429688-30.507812-4.046876-45.335938zm-62.945312 26.109376c-30.246094-14.820313-49.46875-45.515626-49.601562-79.199219-.070313-23.65625 9.457031-46.332031 26.402343-62.839844l11.199219 11.425781c-16.734375 16.398438-24.441406 39.914063-20.664062 63.035156 3.78125 23.125 18.574218 42.960938 39.65625 53.179688zm38.398438 8.800781c-5.910157.003906-11.804688-.585938-17.597657-1.757813l3.199219-15.679687c4.742188.957031 9.5625 1.4375 14.398438 1.4375zm0 0"/><path d="m64.023438 16.011719h80c4.421874 0 8-3.582031 8-8s-3.578126-8.0000002-8-8.0000002h-80c-4.417969 0-8 3.5820312-8 8.0000002s3.582031 8 8 8zm0 0"/><path d="m204.023438 64.011719h88c4.421874 0 8-3.582031 8-8s-3.578126-8-8-8h-88c-4.417969 0-8 3.582031-8 8s3.582031 8 8 8zm0 0"/><path d="m368.023438 366.589844v-126.578125h-42.222657l41.816407 125.410156c.160156.382813.257812.773437.40625 1.167969zm0 0"/><path d="m208.023438 312.011719c-.070313-23.730469-8.257813-46.722657-23.199219-65.160157l-41.3125 123.9375c-4.550781 10.015626-3.621094 21.671876 2.457031 30.839844.9375 1.410156 1.984375 2.75 3.128906 4 35.984375-17.304687 58.886719-53.6875 58.925782-93.617187zm0 0"/><path d="m384.023438 392.011719c-.019532 11.675781 8.382812 21.664062 19.886718 23.644531 11.507813 1.976562 22.765625-4.632812 26.644532-15.644531h-14.53125v-16h16v-16h-16v-16h16v-16h-16v-16h16v-16h-16v-16h16v-16h-16v-16h16v-16h-48zm0 0"/><path d="m384.023438 144.011719h32v16h-32v16h16v16h-16v32h48v-96h-48zm0 0"/><path d="m352.539062 370.789062-43.601562-130.777343h-60.914062l14.402343 19.199219c1.039063 1.386718 1.597657 3.070312 1.597657 4.800781v24h16v16h-16v16h16v16h-16v16h16v16h-16v16h16v16h-14.527344c3.378906 9.554687 12.394531 15.957031 22.527344 16h35.335937c10.761719.003906 20.796875-5.402344 26.722656-14.382813 5.921875-8.980468 6.933594-20.335937 2.695313-30.222656-.089844-.195312-.167969-.410156-.238282-.617188zm0 0"/><path d="m363.433594 410.414062c-1.316406 1.96875-2.773438 3.839844-4.359375 5.597657h17.160156c-3.726563-4.847657-6.277344-10.492188-7.449219-16.496094-1.320312 3.84375-3.117187 7.503906-5.351562 10.898437zm0 0"/><path d="m440.023438 96.011719h-64c-4.417969 0-8 3.582031-8 8s3.582031 8 8 8h64c4.421874 0 8-3.582031 8-8s-3.578126-8-8-8zm0 0"/></svg>