<svg height="464pt" viewBox="0 0 464 464.00597" width="464pt" xmlns="http://www.w3.org/2000/svg"><path d="m176.003906 416c0 4.417969-3.582031 8-8 8-4.417968 0-8-3.582031-8-8s3.582032-8 8-8c4.417969 0 8 3.582031 8 8zm0 0"/><path d="m208.003906 352c0 4.417969-3.582031 8-8 8-4.417968 0-8-3.582031-8-8s3.582032-8 8-8c4.417969 0 8 3.582031 8 8zm0 0"/><path d="m104.003906 416c0 4.417969-3.582031 8-8 8-4.417968 0-8-3.582031-8-8s3.582032-8 8-8c4.417969 0 8 3.582031 8 8zm0 0"/><path d="m181.132812 286.367188c-10.128906-7.710938-18.859374-14.367188-37.167968-14.367188-18.289063 0-27.019532 6.65625-37.128906 14.359375-10.847657 8.273437-23.144532 17.640625-46.832032 17.640625s-36-9.367188-46.847656-17.632812c-2.578125-1.96875-5.089844-3.863282-7.6875-5.613282-3.570312 12.589844-5.46484375 25.773438-5.46484375 39.246094 0 40.929688 17.50390575 80.0625 48.03906275 107.375 30.953125 27.679688 70.960937 40.335938 112.609375 35.6875 29.144531-3.253906 57.144531-16.015625 79.351562-35.910156v-124.0625c-3.808594.589844-7.785156.910156-12.023437.910156-23.707031 0-36-9.367188-46.847657-17.632812zm-141.128906 57.632812c0-13.230469 10.765625-24 24-24 13.230469 0 24 10.769531 24 24s-10.769531 24-24 24c-13.234375 0-24-10.761719-24-24zm56 96c-13.234375 0-24-10.769531-24-24s10.765625-24 24-24c13.230469 0 24 10.769531 24 24s-10.769531 24-24 24zm24-128c0-13.230469 10.765625-24 24-24 13.230469 0 24 10.769531 24 24s-10.769531 24-24 24c-13.234375 0-24-10.761719-24-24zm48 128c-13.234375 0-24-10.769531-24-24s10.765625-24 24-24c13.230469 0 24 10.769531 24 24s-10.769531 24-24 24zm32-64c-13.234375 0-24-10.769531-24-24s10.765625-24 24-24c13.230469 0 24 10.769531 24 24s-10.769531 24-24 24zm0 0"/><path d="m208.003906 248c0-13.230469 10.765625-24 24-24h19.261719c-11.144531-12.414062-24.414063-22.9375-39.0625-30.832031l-4.199219-2.265625v-94.902344h-96v-16h120c8.824219 0 16-7.175781 16-16s-7.175781-16-16-16h-32v-48h-112v32h96v16h-128c-8.824218 0-16 7.175781-16 16s7.175782 16 16 16h24v32h80v16h-80v16h64v16h-64v16h80v16h-82.039062l-2.160156 1.167969c-29.890626 16.113281-52.488282 41.816406-64.945313 72.097656 4.375 2.628906 8.253906 5.527344 12 8.382813 10.113281 7.703124 18.839844 14.359374 37.144531 14.359374 18.285156 0 27.023438-6.65625 37.136719-14.367187 10.839844-8.265625 23.140625-17.632813 46.832031-17.632813 23.710938 0 36.007813 9.367188 46.863282 17.640626 10.117187 7.703124 18.847656 14.359374 37.160156 14.359374 4.390625 0 8.292968-.527343 12.023437-1.3125v-14.6875h-8c-13.25-.007812-24.015625-10.769531-24.015625-24.007812zm0 0"/><path d="m456.003906 240h-224c-4.417968 0-8 3.585938-8 8s3.582032 8 8 8h72v16h48v16h-48v16h48v16h-48v16h32v16h-32v16h48v16h-48v16h32v16h-32v16h48v16h-64v-176h-32v168c0 13.230469 10.765625 24 24 24h128c13.230469 0 24-10.769531 24-24v-184h24c4.414063 0 8-3.585938 8-8s-3.585937-8-8-8zm0 0"/><path d="m72.003906 344c0 4.417969-3.582031 8-8 8-4.417968 0-8-3.582031-8-8s3.582032-8 8-8c4.417969 0 8 3.582031 8 8zm0 0"/><path d="m152.003906 312c0 4.417969-3.582031 8-8 8-4.417968 0-8-3.582031-8-8s3.582032-8 8-8c4.417969 0 8 3.582031 8 8zm0 0"/><path d="m439.179688 101.398438c2.871093-8.589844-1.984376-17.804688-10.847657-20.597657-8.863281-2.785156-18.386719 1.917969-21.257812 10.511719l-44.414063 132.6875h35.480469zm0 0"/></svg>