<svg height="479pt" viewBox="-25 0 479 479.67642" width="479pt" xmlns="http://www.w3.org/2000/svg"><path d="m152.335938 400c-13.253907 0-24 10.746094-24 24s10.746093 24 24 24c13.253906 0 24-10.746094 24-24s-10.746094-24-24-24zm0 32c-4.417969 0-8-3.582031-8-8s3.582031-8 8-8c4.417968 0 8 3.582031 8 8s-3.582032 8-8 8zm0 0"/><path d="m96.335938 352c-13.253907 0-24 10.746094-24 24s10.746093 24 24 24c13.253906 0 24-10.746094 24-24s-10.746094-24-24-24zm0 32c-4.417969 0-8-3.582031-8-8s3.582031-8 8-8c4.417968 0 8 3.582031 8 8s-3.582032 8-8 8zm0 0"/><path d="m232.335938 48c-5.5-.015625-10.910157 1.410156-15.6875 4.136719-14.238282-31.617188-45.636719-52-80.3125-52.136719-29.449219-.0664062-56.960938 14.6875-73.199219 39.257812-6.667969-4.722656-14.632813-7.257812-22.800781-7.257812-17.664063-.039062-33.25 11.539062-38.320313 28.457031-5.066406 16.917969 1.585937 35.160157 16.359375 44.839844-6.601562 11.828125-10.058594 25.15625-10.039062 38.703125-.085938 24.046875 10.691406 46.847656 29.324218 62.050781 18.632813 15.203125 43.136719 21.179688 66.675782 16.269531v38.398438c-45.886719 13.777344-77.898438 55.25-79.609376 103.128906-1.707031 47.878906 27.269532 91.527344 72.054688 108.539063s95.433594 3.609375 125.945312-33.328125c30.507813-36.9375 34.105469-89.203125 8.9375-129.96875l92.632813-52.800782h.039063l36-20.800781 14.136718 9.832031c-5.320312 12.867188-.398437 27.691407 11.566406 34.816407 11.960938 7.125 27.339844 4.394531 36.121094-6.410157 8.78125-10.808593 8.304688-26.421874-1.121094-36.671874-9.425781-10.25-24.941406-12.035157-36.445312-4.191407l-15.859375-11.015625v-38.480468l28.617187-21.464844-9.597656-12.796875-27.601562 20.695312-31.816406-18.367187v-16.90625c11.019531-3.894532 17.632812-15.164063 15.65625-26.683594-1.976563-11.523438-11.96875-19.941406-23.65625-19.941406s-21.675782 8.417968-23.652344 19.941406c-1.976563 11.519531 4.632812 22.789062 15.652344 26.683594v16.90625l-32.496094 18.765625-17.304688-9.535157c1.183594-5.476562 1.785156-11.0625 1.800782-16.664062.019531-14.089844-3.71875-27.933594-10.832032-40.097656 9.980469-8.785156 13.46875-22.839844 8.761719-35.273438-4.710937-12.4375-16.632813-20.65625-29.929687-20.628906zm-144 160c-23.996094.039062-45.992188-13.367188-56.957032-34.714844-10.964844-21.34375-9.050781-47.03125 4.957032-66.515625 1.472656-2.050781 1.890624-4.675781 1.128906-7.085937-.761719-2.40625-2.617188-4.3125-5-5.140625-9.640625-3.273438-16.152344-12.292969-16.222656-22.472657-.074219-10.179687 6.308593-19.292968 15.902343-22.699218 9.59375-3.410156 20.296875-.371094 26.664063 7.574218 1.710937 2.09375 4.363281 3.179688 7.054687 2.890626 2.6875-.289063 5.046875-1.921876 6.273438-4.332032 13.328125-26.40625 41.464843-41.957031 70.914062-39.195312 29.449219 2.757812 54.207031 23.269531 62.398438 51.691406.84375 2.917969 3.269531 5.109375 6.257812 5.648438 2.992188.542968 6.03125-.65625 7.84375-3.097657 2.972657-4.097656 7.722657-6.53125 12.785157-6.550781 7.464843.019531 13.921874 5.207031 15.542968 12.496094 1.621094 7.289062-2.027344 14.722656-8.78125 17.902344-2.164062 1.015624-3.757812 2.941406-4.355468 5.253906-.59375 2.3125-.125 4.769531 1.28125 6.699218 17.269531 23.585938 16.308593 55.886719-2.335938 78.402344-2.792969 3.371094-2.359375 8.363282.976562 11.199219 3.578126 2.980469 5.65625 7.390625 5.671876 12.046875.019531 8.054688-5.96875 14.859375-13.960938 15.863281-7.992188 1.007813-15.476562-4.101562-17.453125-11.910156-1.085937-4.226563-5.359375-6.800781-9.601563-5.792969-10.191406 2.488282-20.84375 2.378906-30.984374-.320312v-103.3125c11.011718-3.878906 17.621093-15.132813 15.644531-26.640625-1.980469-11.507813-11.96875-19.910157-23.644531-19.886719h-48c-11.675782-.023438-21.664063 8.378906-23.644532 19.886719-1.976562 11.507812 4.632813 22.761719 15.644532 26.640625v103.433594c-5.222657 1.355468-10.601563 2.042968-16 2.039062zm72-120h-48c-4.417969 0-8-3.582031-8-8s3.582031-8 8-8h48c4.417968 0 8 3.582031 8 8s-3.582032 8-8 8zm-40 16h32v32h-32zm112 264c.042968 50.140625-38.511719 91.871094-88.5 95.785156-49.988282 3.917969-94.570313-31.296875-102.339844-80.832031-7.769532-49.535156 23.894531-96.707031 72.679687-108.28125 3.609375-.851563 6.160157-4.074219 6.160157-7.785156v-114.886719h32v114.886719c0 3.710937 2.550781 6.933593 6.160156 7.785156 19.144531 4.511719 36.4375 14.808594 49.527344 29.488281l-29.238282 16.640625c-7.433594-8.894531-20.179687-11.167969-30.226562-5.386719s-14.488282 17.941407-10.535156 28.835938c3.957031 10.894531 15.164062 17.375 26.582031 15.367188 11.414062-2.011719 19.734375-11.929688 19.730469-23.519532l33.382812-19.035156c9.566406 15.269531 14.632812 32.921875 14.617188 50.9375zm-64-32c0 4.417969-3.582032 8-8 8-4.417969 0-8-3.582031-8-8s3.582031-8 8-8c1.515624.039062 2.988281.519531 4.230468 1.382812zm232-92c6.628906 0 12 5.371094 12 12s-5.371094 12-12 12c-6.628907 0-12-5.371094-12-12s5.371093-12 12-12zm-80-140c4.417968 0 8 3.582031 8 8s-3.582032 8-8 8c-4.417969 0-8-3.582031-8-8s3.582031-8 8-8zm-32.398438 80 32.398438-18.710938 32.398437 18.710938v37.417969l-32.398437 18.703125-32.398438-18.703125zm-16 .113281v41.917969c0 2.859375 1.523438 5.5 4 6.929688l28.320312 16.34375-82.050781 46.777343c-14.089843-16.820312-32.828125-29.113281-53.871093-35.335937v-38.402344c9.164062 1.914062 18.597656 2.160156 27.847656.726562 5.589844 10.566407 16.609375 17.125 28.5625 17 11.949218-.125 22.832031-6.914062 28.199218-17.59375 5.367188-10.675781 4.324219-23.457031-2.703124-33.125 2.832031-4.15625 5.265624-8.570312 7.269531-13.183593zm0 0"/><path d="m299.894531 206.65625 8.875-13.3125 24.003907 16.003906-8.875 13.3125zm0 0"/></svg>