<svg height="417pt" viewBox="0 -19 417.72154 417" width="417pt" xmlns="http://www.w3.org/2000/svg"><path d="m359.089844 331.394531h-136.800782c-1.234374-5.820312-3.765624-11.289062-7.402343-16h144.203125zm-198.632813 0c3.386719-9.597656 12.457031-16.011719 22.632813-16.011719 10.175781 0 19.242187 6.414063 22.628906 16.011719zm-9.160156-16c-3.636719 4.710938-6.167969 10.179688-7.402344 16h-136.804687v-16zm207.792969 56c0 4.417969-3.582032 8-8 8h-336c-4.421875 0-8-3.582031-8-8v-24h52.6875l-10.34375 10.34375 11.308594 11.3125 21.65625-21.65625h25.378906l-10.34375 10.34375 11.308594 11.3125 21.65625-21.65625h25.378906l-10.34375 10.34375 11.308594 11.3125 21.65625-21.65625h25.378906l-10.34375 10.34375 11.308594 11.3125 21.65625-21.65625h25.378906l-10.34375 10.34375 11.308594 11.3125 21.65625-21.65625h25.378906l-10.34375 10.34375 11.308594 11.3125 21.65625-21.65625h36.691406zm0 0"/><path d="m316.777344 83.394531h-60.511719l45.941406-25.863281zm-94.296875 28.199219c.75-.417969 1.429687-.960938 2.007812-1.597656l9.609375-10.601563h58.972656l-36.796874 20.703125-23.554688 4.5625c-.839844.167969-1.652344.464844-2.398438.886719l-27.878906 15.6875c-.726562.367187-1.503906.621094-2.304687.75-.476563.101563-.960938.15625-1.449219.160156-.535156.019531-1.070312-.019531-1.597656-.117187-.484375-.089844-.957032-.21875-1.417969-.394532-.578125-.199218-1.132813-.46875-1.648437-.796874-.238282-.152344-.464844-.316407-.6875-.488282-.691407-.574218-1.277344-1.261718-1.734376-2.035156l-.074218-.085938v-.070312c-.351563-.699219-.59375-1.445312-.71875-2.21875-.105469-.5-.164063-1.011719-.175782-1.527344-.023437-.65625.03125-1.308594.160157-1.953125 0-.152343.046875-.3125.09375-.453125.257812-.863281.664062-1.675781 1.191406-2.402344.113281-.160156.25-.296874.371094-.445312.597656-.742188 1.324219-1.371094 2.144531-1.859375zm-23.390625 91.800781c0 8.835938-7.164063 16-16 16-8.839844 0-16-7.164062-16-16v-2.335937c0-2.484375.578125-4.933594 1.6875-7.160156l14.3125-28.625 14.308594 28.617187c1.113281 2.238281 1.691406 4.703125 1.691406 7.199219zm155.285156-113.664062c-.867188 3.121093-3.53125 5.40625-6.746094 5.796875-3.214844.386718-6.347656-1.199219-7.933594-4.019532l-3.917968-6.960937-11.777344-20.921875-15.703125-27.878906c-2.167969-3.851563-.800781-8.734375 3.050781-10.898438 3.851563-2.167968 8.734375-.800781 10.898438 3.050782l31.394531 55.769531c1.039063 1.84375 1.300781 4.023437.734375 6.0625zm62.457031-58.894531c-1.703125 6.132812-5.785156 11.335937-11.34375 14.445312l-41.832031 23.554688-23.542969-41.824219 41.816407-23.554688c8.457031-4.773437 18.960937-3.976562 26.601562 2.019531 7.644531 5.996094 10.921875 16.003907 8.300781 25.359376zm0 0"/><path d="m119.089844 211.394531v8c.023437 26.5 21.5 47.972657 48 48v-16c-17.675782 0-32-14.328125-32-32v-8zm0 0"/><path d="m279.089844 267.394531h16v16h-16zm0 0"/><path d="m311.089844 267.394531h16v16h-16zm0 0"/><path d="m311.089844 235.394531h16v16h-16zm0 0"/><path d="m343.089844 267.394531h16v16h-16zm0 0"/><path d="m343.089844 235.394531h16v16h-16zm0 0"/><path d="m343.089844 203.394531h16v16h-16zm0 0"/><path d="m71.089844 267.394531h16v16h-16zm0 0"/><path d="m39.089844 267.394531h16v16h-16zm0 0"/><path d="m39.089844 235.394531h16v16h-16zm0 0"/><path d="m7.089844 267.394531h16v16h-16zm0 0"/><path d="m7.089844 235.394531h16v16h-16zm0 0"/><path d="m7.089844 203.394531h16v16h-16zm0 0"/><path d="m15.304688 172.730469c-8.449219.003906-15.304688-6.84375-15.304688-15.292969s6.847656-15.300781 15.296875-15.300781c8.453125.003906 15.300781 6.855469 15.296875 15.304687-.011719 8.441406-6.851562 15.28125-15.289062 15.289063zm0 0"/><path d="m354.976562 131.394531h-7.777343c-11.101563.011719-20.097657 9.007813-20.109375 20.113281v15.773438c.011718 11.101562 9.007812 20.101562 20.109375 20.113281h7.777343c11.101563-.011719 20.097657-9.011719 20.113282-20.113281v-15.773438c-.015625-11.105468-9.011719-20.101562-20.113282-20.113281zm0 0"/></svg>