<?xml version="1.0" encoding="iso-8859-1"?>
<!-- Generator: Adobe Illustrator 19.0.0, SVG Export Plug-In . SVG Version: 6.00 Build 0)  -->
<svg version="1.1" id="Layer_1" xmlns="http://www.w3.org/2000/svg" xmlns:xlink="http://www.w3.org/1999/xlink" x="0px" y="0px"
	 viewBox="0 0 496 496" style="enable-background:new 0 0 496 496;" xml:space="preserve">
<g>
	<g>
		<g>
			<path d="M416,256v56h-69.456c-14.84,0-29.824-5.024-43.624-14.744c-4.336-3.032-6.92-8.312-6.92-14.112V272h40v-48H160v48h40
				v11.144c0,5.808-2.584,11.088-7.24,14.336c-13.488,9.496-28.464,14.52-43.304,14.52H80v-56H0v240h80v-56h69.456
				c15.168,0,29.832,4.808,42.416,13.88C208.28,465.736,227.696,472,248,472s39.72-6.264,56.136-18.12
				c12.584-9.072,27.248-13.88,42.408-13.88H416v56h80V256H416z M64,480H16V272h48V480z M176,256v-16h144v16H176z M416,424h-69.456
				c-18.544,0-36.448,5.848-51.776,16.912C281.104,450.784,264.92,456,248,456c-16.92,0-33.104-5.216-46.776-15.088
				C185.896,429.848,168,424,149.456,424H80v-96h69.456c18.168,0,36.328-6.032,52.8-17.632c8.6-6.024,13.744-16.2,13.744-27.224V272
				h64v11.144c0,11.024,5.144,21.2,14.024,27.416c16.192,11.408,34.36,17.44,52.52,17.44H416V424z M480,480h-48V272h48V480z"/>
			<path d="M96,48h128v16h-16v72h16v32h-64v48h176v-48h-64v-32h16V64h-16V48h128c13.232,0,24-10.768,24-24S413.232,0,400,0H96
				C82.768,0,72,10.768,72,24S82.768,48,96,48z M320,184v16H176v-16H320z M240,168v-32h16v32H240z M272,120h-48V80h48V120z M240,64
				V48h16v16H240z M96,16h304c4.416,0,8,3.592,8,8s-3.584,8-8,8H96c-4.416,0-8-3.592-8-8S91.584,16,96,16z"/>
			<rect x="448" y="288" width="16" height="16"/>
			<rect x="448" y="368" width="16" height="16"/>
			<rect x="448" y="448" width="16" height="16"/>
			<rect x="32" y="288" width="16" height="16"/>
			<rect x="32" y="368" width="16" height="16"/>
			<rect x="32" y="448" width="16" height="16"/>
			<rect x="176" y="360" width="104" height="16"/>
			<rect x="296" y="360" width="16" height="16"/>
		</g>
	</g>
</g>
<g>
</g>
<g>
</g>
<g>
</g>
<g>
</g>
<g>
</g>
<g>
</g>
<g>
</g>
<g>
</g>
<g>
</g>
<g>
</g>
<g>
</g>
<g>
</g>
<g>
</g>
<g>
</g>
<g>
</g>
</svg>
