<?xml version="1.0" encoding="iso-8859-1"?>
<!-- Generator: Adobe Illustrator 19.0.0, SVG Export Plug-In . SVG Version: 6.00 Build 0)  -->
<svg version="1.1" id="Capa_1" xmlns="http://www.w3.org/2000/svg" xmlns:xlink="http://www.w3.org/1999/xlink" x="0px" y="0px"
	 viewBox="0 0 512 512" style="enable-background:new 0 0 512 512;" xml:space="preserve">
<g>
	<g>
		<path d="M346,47.424c-41.925,0-82.196-43.709-82.598-44.15c-1.893-2.084-4.58-3.27-7.405-3.272c-2.815,0-5.503,1.19-7.398,3.272
			c-0.402,0.441-40.673,44.15-82.598,44.15c-5.523,0-10,4.478-10,10v56.136c-0.001,53.142,39.012,100.764,97.078,118.501
			c1.825,0.557,4.015,0.559,5.843,0C316.987,214.325,356,166.703,356,113.56V57.424C356,51.903,351.523,47.424,346,47.424z
			 M336,113.56c0,43.413-32.021,82.644-80,98.446c-47.979-15.803-80-55.033-80-98.446V66.812c35.3-4.261,66.3-29.735,80-42.659
			c13.7,12.924,44.7,38.398,80,42.659V113.56z"/>
	</g>
</g>
<g>
	<g>
		<path d="M303.341,81.711l-43-20.723c-2.743-1.322-5.939-1.322-8.683,0l-43,20.723C205.199,83.38,203,86.88,203,90.721v31.507
			c0,27.703,20.125,52.462,50.079,61.611c1.769,0.54,3.998,0.564,5.842,0C288.875,174.69,309,149.93,309,122.227V90.721
			C309,86.88,306.801,83.38,303.341,81.711z M289,122.227c0,17.981-13.137,34.347-33,41.512c-19.863-7.165-33-23.53-33-41.512
			V97.002l33-15.903l33,15.903V122.227z"/>
	</g>
</g>
<g>
	<g>
		<path d="M502,232.997h-40c-5.523,0-10,4.478-10,10v10H60v-10c0-5.522-4.477-10-10-10H10c-5.523,0-10,4.478-10,10v160
			c0,5.522,4.477,10,10,10h40c5.523,0,10-4.478,10-10v-10h86.381c6.927,11.944,19.846,20,34.619,20s27.691-8.056,34.619-20h21.861
			c-11.259,21.308-28.88,57.223-28.88,73.3c0,25.199,20.501,45.7,45.7,45.7c25.199,0,45.7-20.501,45.7-45.7
			c0-16.077-17.621-51.992-28.88-73.3h72.107c-9.524,18.229-23.227,46.757-23.227,60c0,22.056,17.944,40,40,40
			c22.056,0,40-17.944,40-40c0-13.243-13.703-41.771-23.227-60H452v10c0,5.522,4.477,10,10,10h40c5.523,0,10-4.478,10-10v-160
			C512,237.476,507.523,232.997,502,232.997z M40,392.997H20v-140h20V392.997z M258.858,272.997l-20,20H134.142l-20-20H258.858z
			 M140.998,372.999H60v-0.001v-100h25.857l30,30l-27.929,27.929c-3.905,3.905-3.905,10.237,0,14.143
			c1.953,1.952,4.512,2.929,7.071,2.929c2.559,0,5.119-0.977,7.071-2.929l32.071-32.071h30.084
			C154.701,331.228,140.998,359.755,140.998,372.999z M181,392.997c-11.028,0-20-8.972-20-20c0-6.797,9.292-28.104,20.001-48.882
			C191.708,344.888,201,366.193,201,372.997C201,384.026,192.028,392.997,181,392.997z M280,466.297c0,14.171-11.529,25.7-25.7,25.7
			c-14.171,0-25.7-11.529-25.7-25.7c0-9.517,13.123-38.183,25.7-62.272C266.877,428.115,280,456.781,280,466.297z M380,452.997
			c0,11.028-8.972,20-20,20s-20-8.972-20-20c0-6.797,9.292-28.104,20.001-48.882C370.708,424.888,380,446.193,380,452.997z
			 M452,372.997H221c0-13.243-13.703-41.771-23.227-60h41.087l36.569,36.569c1.89,1.891,4.4,2.931,7.07,2.931h36.14
			c5.51,0,10-4.49,10-10s-4.49-10-10-10h-32L257.141,303l30.001-30.001H452V372.997z M492,392.997h-20v-140h20V392.997z"/>
	</g>
</g>
<g>
	<g>
		<path d="M358.64,332.497c-5.52,0-10,4.49-10,10s4.48,10,10,10c5.51,0,10-4.49,10-10S364.15,332.497,358.64,332.497z"/>
	</g>
</g>
<g>
</g>
<g>
</g>
<g>
</g>
<g>
</g>
<g>
</g>
<g>
</g>
<g>
</g>
<g>
</g>
<g>
</g>
<g>
</g>
<g>
</g>
<g>
</g>
<g>
</g>
<g>
</g>
<g>
</g>
</svg>
