<svg height="496pt" viewBox="-8 0 496 496" width="496pt" xmlns="http://www.w3.org/2000/svg"><path d="m48 328h16v16h-16zm0 0"/><path d="m48 304h16v16h-16zm0 0"/><path d="m72 328h16v16h-16zm0 0"/><path d="m192 152h16v16h-16zm0 0"/><path d="m192 176h16v16h-16zm0 0"/><path d="m168 152h16v16h-16zm0 0"/><path d="m232 352v-208c13.253906 0 24-10.746094 24-24v-32c0-.113281-.054688-.199219-.0625-.3125-.039062-.820312-.203125-1.628906-.488281-2.398438-.074219-.175781-.113281-.359374-.183594-.527343-.074219-.167969-.058594-.203125-.105469-.296875l-18.214844-36.464844h11.054688c4.417969 0 8-3.582031 8-8v-32c0-4.417969-3.582031-8-8-8h-240c-4.417969 0-8 3.582031-8 8v32c0 4.417969 3.582031 8 8 8h11.054688l-18.214844 36.425781c-.046875.09375-.054688.199219-.105469.292969-.046875.097656-.109375.351562-.183594.527344-.285156.773437-.449219 1.582031-.488281 2.402344 0 .113281-.0625.199218-.0625.3125v32c0 13.253906 10.746094 24 24 24v208.039062c-13.253906 0-24 10.746094-24 24v32c0 .113281.0546875.199219.0625.3125.039062.820312.203125 1.628906.488281 2.398438.074219.175781.113281.351562.183594.527343.074219.175781.058594.203125.105469.296875l18.214844 36.464844h-11.054688c-4.417969 0-8 3.582031-8 8v32c0 4.417969 3.582031 8 8 8h240c4.417969 0 8-3.582031 8-8v-32c0-4.417969-3.582031-8-8-8h-11.054688l18.253907-36.425781c.046875-.09375.058593-.199219.105469-.292969.046874-.097656.109374-.351562.183593-.527344.285157-.773437.449219-1.582031.488281-2.402344 0-.113281.0625-.199218.0625-.3125v-32.039062c0-6.371094-2.53125-12.484375-7.042968-16.984375-4.507813-4.503906-10.625-7.027344-16.996094-7.015625zm-216-336h224v16h-224zm203.054688 32 16 32h-214.109376l16-32zm-203.054688 72v-24h224v24c0 4.417969-3.582031 8-8 8h-208c-4.417969 0-8-3.582031-8-8zm24 24h176v208h-176zm-24 232c0-4.417969 3.582031-8 8-8h208c4.417969 0 8 3.582031 8 8v24h-224zm224 104h-224v-16h224zm-203.054688-32-16-32h214.109376l-16 32zm0 0"/><path d="m128 168c-44.183594 0-80 35.816406-80 80s35.816406 80 80 80 80-35.816406 80-80c-.046875-44.164062-35.835938-79.953125-80-80zm0 144c-35.347656 0-64-28.652344-64-64s28.652344-64 64-64 64 28.652344 64 64c-.039062 35.328125-28.671875 63.960938-64 64zm0 0"/><path d="m112 260.6875-26.34375-26.34375-11.3125 11.3125 32 32c3.125 3.121094 8.1875 3.121094 11.3125 0l56-56-11.3125-11.3125zm0 0"/><path d="m352 248c0-17.671875-14.328125-32-32-32s-32 14.328125-32 32 14.328125 32 32 32 32-14.328125 32-32zm-32 16c-8.835938 0-16-7.164062-16-16s7.164062-16 16-16 16 7.164062 16 16-7.164062 16-16 16zm0 0"/><path d="m343.761719 321.9375 2.582031-10.335938 9.136719 5.488282c3.148437 1.886718 7.179687 1.390625 9.777343-1.210938l22.621094-22.632812c2.597656-2.59375 3.09375-6.617188 1.210938-9.765625l-5.480469-9.136719 10.335937-2.582031c3.558594-.894531 6.054688-4.09375 6.054688-7.761719v-32c0-3.667969-2.496094-6.867188-6.054688-7.761719l-10.34375-2.582031 5.488282-9.144531c1.882812-3.148438 1.386718-7.175781-1.210938-9.769531l-22.621094-22.621094c-2.597656-2.601563-6.628906-3.097656-9.777343-1.210938l-9.136719 5.488282-2.582031-10.335938c-.890625-3.5625-4.089844-6.0625-7.761719-6.0625h-32c-3.671875 0-6.871094 2.5-7.761719 6.0625l-2.582031 10.335938-9.136719-5.488282c-3.148437-1.886718-7.179687-1.390625-9.777343 1.210938l-22.621094 22.621094c-2.597656 2.59375-3.09375 6.621093-1.210938 9.769531l5.488282 9.144531-10.34375 2.582031c-3.558594.894531-6.054688 4.09375-6.054688 7.761719v32c0 3.667969 2.496094 6.867188 6.054688 7.761719l10.335937 2.582031-5.480469 9.136719c-1.882812 3.148437-1.386718 7.171875 1.210938 9.765625l22.621094 22.632812c2.597656 2.601563 6.628906 3.097656 9.777343 1.210938l9.136719-5.488282 2.582031 10.335938c.890625 3.5625 4.089844 6.0625 7.761719 6.0625h32c3.671875 0 6.871094-2.5 7.761719-6.0625zm-10.320313-24.691406-3.6875 14.753906h-19.507812l-3.6875-14.753906c-.613282-2.457032-2.355469-4.480469-4.699219-5.449219-2.34375-.972656-5.003906-.773437-7.179687.53125l-13.039063 7.824219-13.792969-13.800782 7.824219-13.03125c1.300781-2.171874 1.496094-4.835937.527344-7.175781-.96875-2.339843-2.988281-4.082031-5.445313-4.695312l-14.753906-3.695313v-19.507812l14.753906-3.695313c2.457032-.613281 4.476563-2.355469 5.445313-4.695312.96875-2.339844.773437-5.003907-.527344-7.175781l-7.824219-13.039063 13.792969-13.800781 13.039063 7.832031c2.175781 1.304687 4.835937 1.503906 7.179687.53125 2.34375-.96875 4.085937-2.992187 4.699219-5.449219l3.6875-14.753906h19.507812l3.6875 14.753906c.613282 2.457032 2.355469 4.480469 4.699219 5.449219 2.34375.972656 5.003906.773437 7.179687-.53125l13.039063-7.832031 13.792969 13.800781-7.824219 13.039063c-1.300781 2.171874-1.496094 4.835937-.527344 7.175781.96875 2.339843 2.988281 4.082031 5.445313 4.695312l14.753906 3.695313v19.507812l-14.753906 3.695313c-2.457032.613281-4.476563 2.355469-5.445313 4.695312-.96875 2.339844-.773437 5.003907.527344 7.175781l7.824219 13.03125-13.753906 13.800782-13.039063-7.824219c-2.171875-1.304687-4.835937-1.503906-7.179687-.53125-2.339844.96875-4.085938 2.992187-4.699219 5.449219zm0 0"/><path d="m400 376c-17.671875 0-32 14.328125-32 32s14.328125 32 32 32 32-14.328125 32-32-14.328125-32-32-32zm0 48c-8.835938 0-16-7.164062-16-16s7.164062-16 16-16 16 7.164062 16 16-7.164062 16-16 16zm0 0"/><path d="m473.945312 384.238281-10.34375-2.582031 5.488282-9.144531c1.882812-3.148438 1.386718-7.175781-1.210938-9.769531l-22.621094-22.621094c-2.597656-2.601563-6.628906-3.097656-9.777343-1.210938l-9.136719 5.488282-2.582031-10.335938c-.890625-3.5625-4.089844-6.0625-7.761719-6.0625h-32c-3.671875 0-6.871094 2.5-7.761719 6.0625l-2.582031 10.335938-9.136719-5.488282c-3.148437-1.886718-7.179687-1.390625-9.777343 1.210938l-22.621094 22.621094c-2.597656 2.59375-3.09375 6.621093-1.210938 9.769531l5.488282 9.144531-10.34375 2.582031c-3.558594.894531-6.054688 4.09375-6.054688 7.761719v32c0 3.667969 2.496094 6.867188 6.054688 7.761719l10.335937 2.582031-5.480469 9.136719c-1.882812 3.148437-1.386718 7.171875 1.210938 9.765625l22.621094 22.632812c2.597656 2.601563 6.628906 3.097656 9.777343 1.210938l9.136719-5.488282 2.582031 10.335938c.890625 3.5625 4.089844 6.0625 7.761719 6.0625h32c3.671875 0 6.871094-2.5 7.761719-6.0625l2.582031-10.335938 9.136719 5.488282c3.148437 1.886718 7.179687 1.390625 9.777343-1.210938l22.621094-22.632812c2.597656-2.59375 3.09375-6.617188 1.210938-9.765625l-5.480469-9.136719 10.335937-2.582031c3.558594-.894531 6.054688-4.09375 6.054688-7.761719v-32c0-3.667969-2.496094-6.867188-6.054688-7.761719zm-9.945312 33.515625-14.753906 3.695313c-2.457032.613281-4.476563 2.355469-5.445313 4.695312-.96875 2.339844-.773437 5.003907.527344 7.175781l7.824219 13.03125-13.753906 13.800782-13.039063-7.824219c-2.171875-1.304687-4.835937-1.503906-7.179687-.53125-2.339844.96875-4.085938 2.992187-4.699219 5.449219l-3.726563 14.753906h-19.507812l-3.6875-14.753906c-.613282-2.457032-2.355469-4.480469-4.699219-5.449219-2.34375-.972656-5.003906-.773437-7.179687.53125l-13.039063 7.824219-13.792969-13.800782 7.824219-13.03125c1.300781-2.171874 1.496094-4.835937.527344-7.175781-.96875-2.339843-2.988281-4.082031-5.445313-4.695312l-14.753906-3.695313v-19.507812l14.753906-3.695313c2.457032-.613281 4.476563-2.355469 5.445313-4.695312.96875-2.339844.773437-5.003907-.527344-7.175781l-7.824219-13.039063 13.792969-13.800781 13.039063 7.832031c2.175781 1.304687 4.835937 1.503906 7.179687.53125 2.34375-.96875 4.085937-2.992187 4.699219-5.449219l3.6875-14.753906h19.507812l3.6875 14.753906c.613282 2.457032 2.355469 4.480469 4.699219 5.449219 2.34375.972656 5.003906.773437 7.179687-.53125l13.039063-7.832031 13.792969 13.800781-7.824219 13.039063c-1.300781 2.171874-1.496094 4.835937-.527344 7.175781.96875 2.339843 2.988281 4.082031 5.445313 4.695312l14.753906 3.695313zm0 0"/><path d="m400 56c-17.671875 0-32 14.328125-32 32s14.328125 32 32 32 32-14.328125 32-32-14.328125-32-32-32zm0 48c-8.835938 0-16-7.164062-16-16s7.164062-16 16-16 16 7.164062 16 16-7.164062 16-16 16zm0 0"/><path d="m473.945312 64.238281-10.335937-2.582031 5.480469-9.136719c1.882812-3.148437 1.386718-7.171875-1.210938-9.765625l-22.621094-22.632812c-2.597656-2.601563-6.628906-3.097656-9.777343-1.210938l-9.136719 5.488282-2.582031-10.335938c-.890625-3.5625-4.089844-6.0625-7.761719-6.0625h-32c-3.671875 0-6.871094 2.5-7.761719 6.0625l-2.582031 10.335938-9.136719-5.488282c-3.148437-1.886718-7.179687-1.390625-9.777343 1.210938l-22.621094 22.632812c-2.597656 2.59375-3.09375 6.617188-1.210938 9.765625l5.480469 9.136719-10.335937 2.582031c-3.558594.894531-6.054688 4.09375-6.054688 7.761719v32c0 3.667969 2.496094 6.867188 6.054688 7.761719l10.34375 2.582031-5.488282 9.144531c-1.882812 3.148438-1.386718 7.175781 1.210938 9.769531l22.621094 22.621094c2.597656 2.601563 6.628906 3.097656 9.777343 1.210938l9.136719-5.488282 2.582031 10.335938c.890625 3.5625 4.089844 6.0625 7.761719 6.0625h32c3.671875 0 6.871094-2.5 7.761719-6.0625l2.582031-10.335938 9.136719 5.488282c3.148437 1.886718 7.179687 1.390625 9.777343-1.210938l22.621094-22.621094c2.597656-2.59375 3.09375-6.621093 1.210938-9.769531l-5.488282-9.144531 10.34375-2.582031c3.558594-.894531 6.054688-4.09375 6.054688-7.761719v-32c0-3.667969-2.496094-6.867188-6.054688-7.761719zm-9.945312 33.515625-14.753906 3.695313c-2.457032.613281-4.476563 2.355469-5.445313 4.695312-.96875 2.339844-.773437 5.003907.527344 7.175781l7.824219 13.039063-13.753906 13.800781-13.039063-7.832031c-2.171875-1.304687-4.835937-1.503906-7.179687-.53125-2.339844.96875-4.085938 2.992187-4.699219 5.449219l-3.726563 14.753906h-19.507812l-3.6875-14.753906c-.613282-2.457032-2.355469-4.480469-4.699219-5.449219-2.34375-.972656-5.003906-.773437-7.179687.53125l-13.039063 7.832031-13.792969-13.761718 7.824219-13.039063c1.300781-2.171875 1.496094-4.832031.527344-7.171875-.96875-2.34375-2.988281-4.085938-5.445313-4.699219l-14.753906-3.734375v-19.507812l14.753906-3.695313c2.457032-.613281 4.476563-2.355469 5.445313-4.695312.96875-2.339844.773437-5.003907-.527344-7.175781l-7.824219-13.03125 13.792969-13.800782 13.039063 7.824219c2.175781 1.304687 4.835937 1.503906 7.179687.53125 2.34375-.96875 4.085937-2.992187 4.699219-5.449219l3.6875-14.753906h19.507812l3.6875 14.753906c.613282 2.457032 2.355469 4.480469 4.699219 5.449219 2.34375.972656 5.003906.773437 7.179687-.53125l13.039063-7.824219 13.792969 13.800782-7.824219 13.03125c-1.300781 2.171874-1.496094 4.835937-.527344 7.175781.96875 2.339843 2.988281 4.082031 5.445313 4.695312l14.753906 3.695313zm0 0"/></svg>