<svg height="496pt" viewBox="0 -8 496 496" width="496pt" xmlns="http://www.w3.org/2000/svg"><path d="m152 271.699219h16v16h-16zm0 0"/><path d="m152 247.699219h16v16h-16zm0 0"/><path d="m176 271.699219h16v16h-16zm0 0"/><path d="m248 367.699219c-17.671875 0-32 14.328125-32 32s14.328125 32 32 32 32-14.328125 32-32-14.328125-32-32-32zm0 48c-8.835938 0-16-7.164063-16-16 0-8.835938 7.164062-16 16-16s16 7.164062 16 16c0 8.835937-7.164062 16-16 16zm0 0"/><path d="m321.9375 375.9375-10.335938-2.582031 5.488282-9.136719c1.886718-3.148438 1.390625-7.179688-1.210938-9.777344l-22.621094-22.621094c-2.59375-2.597656-6.621093-3.09375-9.769531-1.210937l-9.144531 5.488281-2.582031-10.34375c-.894531-3.558594-4.09375-6.054687-7.761719-6.054687h-32c-3.667969 0-6.867188 2.496093-7.761719 6.054687l-2.582031 10.34375-9.144531-5.488281c-3.148438-1.882813-7.175781-1.386719-9.769531 1.210937l-22.621094 22.621094c-2.601563 2.597656-3.097656 6.628906-1.210938 9.777344l5.488282 9.136719-10.335938 2.582031c-3.5625.890625-6.0625 4.089844-6.0625 7.761719v32c0 3.671875 2.5 6.871093 6.0625 7.761719l10.335938 2.582031-5.488282 9.136719c-1.886718 3.148437-1.390625 7.179687 1.210938 9.777343l22.621094 22.621094c2.59375 2.597656 6.621093 3.09375 9.769531 1.210937l9.144531-5.488281 2.582031 10.34375c.894531 3.558594 4.09375 6.054688 7.761719 6.054688h32c3.667969 0 6.867188-2.496094 7.761719-6.054688l2.582031-10.34375 9.144531 5.488281c3.148438 1.882813 7.175781 1.386719 9.769531-1.210937l22.621094-22.621094c2.601563-2.597656 3.097656-6.628906 1.210938-9.777343l-5.488282-9.136719 10.335938-2.582031c3.5625-.890626 6.0625-4.089844 6.0625-7.761719v-32c0-3.671875-2.5-6.871094-6.0625-7.761719zm-9.9375 33.515625-14.753906 3.6875c-2.457032.613281-4.480469 2.355469-5.449219 4.699219-.972656 2.34375-.773437 5.007812.53125 7.179687l7.832031 13.039063-13.761718 13.792968-13.039063-7.824218c-2.171875-1.300782-4.832031-1.496094-7.171875-.527344-2.34375.96875-4.085938 2.988281-4.699219 5.445312l-3.734375 14.753907h-19.507812l-3.695313-14.753907c-.613281-2.457031-2.355469-4.476562-4.695312-5.445312-2.339844-.96875-5.003907-.773438-7.175781.527344l-13.039063 7.824218-13.800781-13.753906 7.832031-13.039062c1.304687-2.171875 1.503906-4.835938.53125-7.179688-.96875-2.339844-2.992187-4.085937-5.449219-4.699218l-14.753906-3.726563v-19.507813l14.753906-3.6875c2.457032-.613281 4.480469-2.355468 5.449219-4.699218.972656-2.34375.773437-5.003906-.53125-7.179688l-7.832031-13.039062 13.800781-13.792969 13.039063 7.824219c2.171874 1.300781 4.835937 1.496094 7.175781.527344 2.339843-.96875 4.082031-2.988282 4.695312-5.445313l3.695313-14.753906h19.507812l3.695313 14.753906c.613281 2.457031 2.355469 4.476563 4.695312 5.445313 2.339844.96875 5.003907.773437 7.175781-.527344l13.039063-7.824219 13.800781 13.792969-7.832031 13.039062c-1.304687 2.175782-1.503906 4.835938-.53125 7.179688.96875 2.34375 2.992187 4.085937 5.449219 4.699218l14.753906 3.6875zm0 0"/><path d="m248 95.699219c17.671875 0 32-14.328125 32-32 0-14.609375-20.800781-52.472657-25.023438-59.921875-1.539062-2.355469-4.160156-3.777344-6.976562-3.777344s-5.4375 1.421875-6.976562 3.777344c-4.183594 7.449218-25.023438 45.3125-25.023438 59.921875 0 17.671875 14.328125 32 32 32zm0-71.105469c7.125 12.230469 12.507812 25.390625 16 39.105469 0 8.835937-7.164062 16-16 16s-16-7.164063-16-16c3.496094-13.714844 8.878906-26.875 16-39.105469zm0 0"/><path d="m245.65625 138.042969-11.3125 11.3125 10.34375 10.34375h-52.6875v16h52.6875l-10.34375 10.34375 11.3125 11.3125 24-24-.054688-.054688c1.542969-1.464843 2.421876-3.496093 2.429688-5.625.007812-2.125-.851562-4.164062-2.382812-5.640625zm0 0"/><path d="m245.65625 218.042969-11.3125 11.3125 10.34375 10.34375h-52.6875v16h52.6875l-10.34375 10.34375 11.3125 11.3125 24-24-.054688-.054688c1.542969-1.464843 2.421876-3.496093 2.429688-5.625.007812-2.125-.851562-4.164062-2.382812-5.640625zm0 0"/><path d="m488 79.699219h-32c-4.417969 0-8 3.582031-8 8v11.054687l-36.425781-18.214844c-.09375-.046874-.199219-.054687-.292969-.097656-.097656-.039062-.351562-.117187-.527344-.191406-.789062-.285156-1.613281-.453125-2.449218-.488281-.105469 0-.199219-.0625-.304688-.0625h-32c-13.253906 0-24 10.746093-24 24h-208c0-13.253907-10.746094-24-24-24h-32c-.105469 0-.183594.054687-.289062.054687-.84375.035156-1.679688.203125-2.472657.503906-.175781.066407-.351562.105469-.519531.175782-.167969.074218-.199219.058594-.292969.105468l-36.425781 18.214844v-11.054687c0-4.417969-3.582031-8-8-8h-32c-4.417969 0-8 3.582031-8 8v240c0 4.417969 3.582031 8 8 8h32c4.417969 0 8-3.582031 8-8v-11.054688l36.425781 18.253907c.070313 0 .148438 0 .214844.046874 1.050781.496094 2.199219.753907 3.359375.753907h32c13.253906 0 24-10.746094 24-24h208c0 13.253906 10.746094 24 24 24h32c1.164062-.015625 2.3125-.289063 3.359375-.800781.066406 0 .152344 0 .214844-.046876l36.425781-18.207031v11.054688c0 4.417969 3.582031 8 8 8h32c4.417969 0 8-3.582031 8-8v-240c0-4.417969-3.582031-8-8-8zm-456 240h-16v-224h16zm16-203.054688 32-16v214.109375l-32-16zm80 195.054688c0 4.417969-3.582031 8-8 8h-24v-224h24c4.417969 0 8 3.582031 8 8zm16-192h167.015625c-2.425781 7.175781-6.816406 13.523437-12.671875 18.328125-11.578125 9.0625-18.34375 22.949218-18.34375 37.652344 0 14.703124 6.765625 28.589843 18.34375 37.652343 7.632812 7.632813 13.65625 13.664063 13.65625 26.367188s-6.023438 18.71875-13.65625 26.351562c-9.035156 7.628907-15.25 18.070313-17.648438 29.648438h-136.695312zm152.984375 176c2.417969-7.183594 6.808594-13.542969 12.671875-18.351563 11.578125-9.066406 18.34375-22.957031 18.34375-37.664062 0-14.707032-6.765625-28.597656-18.34375-37.664063-7.632812-7.632812-13.65625-13.65625-13.65625-26.320312 0-12.664063 6.023438-18.695313 13.65625-26.320313 9.046875-7.632812 15.261719-18.085937 17.648438-29.679687h24.695312v176zm71.015625 16v-208c0-4.417969 3.582031-8 8-8h24v224h-24c-4.417969 0-8-3.582031-8-8zm48 3.054687v-214.109375l32 16v182.109375zm64 4.945313h-16v-224h16zm0 0"/></svg>