<svg height="480pt" viewBox="-88 0 480 480" width="480pt" xmlns="http://www.w3.org/2000/svg"><path d="m136 56h32v-40h32v-16h-96v16h32zm0 0"/><path d="m144 224h16v16h-16zm0 0"/><path d="m120 192h64v16h-64zm0 0"/><path d="m120 128v16h64v-80h-64v16h48v16h-48v16h24v16zm0 0"/><path d="m302.441406 454.144531-27.410156-62.296875c-33.871094-.824218-69.871094-9.777344-101.832031-17.800781-28.75-7.222656-55.910157-14.046875-77.199219-14.046875-31.496094 0-51.726562 11.023438-60.566406 17.152344l-33.875 76.984375c-1.039063 2.359375-1.558594 4.855469-1.558594 7.421875 0 10.167968 8.273438 18.441406 18.441406 18.441406h267.125c10.160156 0 18.433594-8.273438 18.433594-18.441406 0-2.566406-.519531-5.0625-1.558594-7.414063zm-254.441406 9.855469h-16v-16h16zm48-64h-16v-16h16zm40 56h-16v-16h16zm56-48h-16v-16h16zm64 40h-16v-16h16zm0 0"/><path d="m177.089844 358.519531c30.101562 7.558594 61.109375 15.328125 90.804687 17.097657l-48.964843-111.3125c-1.945313-4.394532-2.929688-9.066407-2.929688-13.863282v-58.441406h-16v32h-24v32h-16v15.59375h-16v-15.59375h-16v-32h-24v-32h-16v58.441406c0 4.804688-.984375 9.480469-2.921875 13.871094l-39.253906 89.222656c12.566406-5.207031 29.144531-9.535156 50.175781-9.535156 23.265625 0 51.351562 7.054688 81.089844 14.519531zm-33.089844-70.519531h16v16h-16zm0 32h16v16h-16zm0 0"/><path d="m72 160h160.007812v16h-160.007812zm0 0"/></svg>