<?xml version="1.0" encoding="utf-8"?>
<!-- Generator: Adobe Illustrator 16.0.0, SVG Export Plug-In . SVG Version: 6.00 Build 0)  -->
<!DOCTYPE svg PUBLIC "-//W3C//DTD SVG 1.1//EN" "http://www.w3.org/Graphics/SVG/1.1/DTD/svg11.dtd">
<svg version="1.1" id="Слой_1" xmlns="http://www.w3.org/2000/svg" xmlns:xlink="http://www.w3.org/1999/xlink" x="0px" y="0px"
	 width="80px" height="80px" viewBox="0 0 80 80" enable-background="new 0 0 80 80" xml:space="preserve">
<g>
	<path fill="#C6A687" d="M45.1,0.186h34.777v79.629H0.123V45.703L45.1,0.186z M46.406,2.892L2.834,47.263v29.845h74.33V2.892H46.406
		z M0.123,0.186h33.969L0.123,34.13V0.186z"/>
	<g>
		<path fill="#C6A687" d="M39.715,60.783c0,0.62,0.504,1.123,1.123,1.123c0.621,0,1.123-0.503,1.123-1.123
			c0-0.619-0.503-1.122-1.123-1.122C40.219,59.661,39.715,60.164,39.715,60.783 M38.764,60.783c0-1.146,0.929-2.074,2.074-2.074
			c1.145,0,2.074,0.929,2.074,2.074c0,1.147-0.93,2.075-2.074,2.075C39.692,62.858,38.764,61.931,38.764,60.783"/>
		<g>
			<polygon fill="#C6A687" points="63.512,32.872 65.393,34.753 65.393,48.496 57.785,56.103 57.785,67.297 56.75,67.297 
				56.75,55.673 64.357,48.064 64.357,35.183 62.779,33.605 			"/>
			<polygon fill="#C6A687" points="67.295,26.337 67.127,33.03 70.063,35.962 70.063,49.879 62.109,57.831 62.109,60.036 
				61.07,60.036 61.07,57.401 69.023,49.448 69.023,36.392 66.08,33.448 66.258,26.31 			"/>
			<polygon fill="#C6A687" points="58.477,27.188 58.477,37.173 61.59,40.286 61.59,49.186 54.33,56.447 54.33,61.42 53.291,61.42 
				53.291,56.019 60.551,48.757 60.551,40.715 57.439,37.603 57.439,27.188 52.598,27.188 52.598,19.581 60.207,19.581 
				60.207,27.188 			"/>
			<polygon fill="#C6A687" points="42.226,27.188 42.226,32.159 44.646,34.58 44.646,47.415 43.609,47.415 43.609,35.01 
				41.188,32.589 41.188,27.188 39.979,27.188 39.979,49.275 47.24,56.536 47.24,67.125 46.201,67.125 46.201,56.966 38.939,49.706 
				38.939,27.188 37.192,27.188 37.033,32.595 34.615,35.015 34.451,42.203 36.521,44.447 36.521,49.943 41.361,54.092 
				41.361,59.518 40.326,59.518 40.326,54.569 35.484,50.42 35.484,44.852 33.405,42.599 33.587,34.575 36.01,32.153 36.154,27.188 
				35.139,27.188 35.139,19.581 42.744,19.581 42.744,27.188 			"/>
			<path fill="#C6A687" d="M39.623,60.815c0,0.62,0.504,1.122,1.123,1.122c0.621,0,1.123-0.503,1.123-1.122
				c0-0.62-0.502-1.124-1.123-1.124C40.127,59.691,39.623,60.195,39.623,60.815z M38.672,60.814c0-1.146,0.93-2.075,2.074-2.075
				c1.146,0,2.072,0.928,2.072,2.075c0,1.146-0.926,2.075-2.072,2.075C39.602,62.89,38.672,61.961,38.672,60.814z"/>
			<path fill="#C6A687" d="M45.59,68.423c0,0.62,0.502,1.122,1.123,1.122c0.619,0,1.121-0.502,1.121-1.122
				c0-0.622-0.502-1.124-1.121-1.124C46.092,67.298,45.59,67.801,45.59,68.423 M44.637,68.422c0-1.146,0.93-2.075,2.074-2.075
				c1.146,0,2.074,0.929,2.074,2.075c0,1.146-0.928,2.075-2.074,2.075C45.566,70.496,44.637,69.567,44.637,68.422"/>
			<path fill="#C6A687" d="M45.59,68.423c0,0.62,0.502,1.122,1.123,1.122c0.619,0,1.121-0.502,1.121-1.122
				c0-0.622-0.502-1.124-1.121-1.124C46.092,67.298,45.59,67.801,45.59,68.423z M44.637,68.422c0-1.146,0.93-2.075,2.074-2.075
				c1.146,0,2.074,0.929,2.074,2.075c0,1.146-0.928,2.075-2.074,2.075C45.566,70.496,44.637,69.567,44.637,68.422z"/>
			<path fill="#C6A687" d="M42.996,48.626c0,0.621,0.502,1.124,1.122,1.124c0.621,0,1.122-0.503,1.122-1.124
				c0-0.62-0.502-1.123-1.122-1.123S42.996,48.006,42.996,48.626 M42.043,48.625c0-1.146,0.928-2.074,2.074-2.074
				c1.145,0,2.074,0.929,2.074,2.074c0,1.146-0.93,2.076-2.074,2.076C42.972,50.701,42.043,49.771,42.043,48.625"/>
			<path fill="#C6A687" d="M42.996,48.626c0,0.621,0.502,1.124,1.122,1.124c0.621,0,1.122-0.503,1.122-1.124
				c0-0.62-0.502-1.123-1.122-1.123S42.996,48.006,42.996,48.626z M42.043,48.625c0-1.146,0.928-2.074,2.074-2.074
				c1.145,0,2.074,0.929,2.074,2.074c0,1.146-0.93,2.076-2.074,2.076C42.972,50.701,42.043,49.771,42.043,48.625z"/>
			<path fill="#C6A687" d="M56.135,68.423c0,0.62,0.502,1.122,1.123,1.122c0.619,0,1.121-0.502,1.121-1.122
				c0-0.622-0.502-1.124-1.121-1.124C56.637,67.298,56.135,67.801,56.135,68.423 M55.182,68.422c0-1.146,0.93-2.075,2.074-2.075
				c1.146,0,2.074,0.929,2.074,2.075c0,1.146-0.928,2.075-2.074,2.075C56.113,70.496,55.182,69.567,55.182,68.422"/>
			<path fill="#C6A687" d="M56.135,68.423c0,0.62,0.502,1.122,1.123,1.122c0.619,0,1.121-0.502,1.121-1.122
				c0-0.622-0.502-1.124-1.121-1.124C56.637,67.298,56.135,67.801,56.135,68.423z M55.182,68.422c0-1.146,0.93-2.075,2.074-2.075
				c1.146,0,2.074,0.929,2.074,2.075c0,1.146-0.928,2.075-2.074,2.075C56.113,70.496,55.182,69.567,55.182,68.422z"/>
			<path fill="#C6A687" d="M60.717,61.421c0,0.619,0.502,1.122,1.125,1.122c0.617,0,1.121-0.503,1.121-1.122
				c0-0.62-0.504-1.123-1.121-1.123C61.219,60.297,60.717,60.801,60.717,61.421 M59.764,61.42c0-1.146,0.93-2.075,2.074-2.075
				c1.146,0,2.074,0.929,2.074,2.075c0,1.145-0.928,2.073-2.074,2.073C60.693,63.493,59.764,62.564,59.764,61.42"/>
			<path fill="#C6A687" d="M60.717,61.421c0,0.619,0.502,1.122,1.125,1.122c0.617,0,1.121-0.503,1.121-1.122
				c0-0.62-0.504-1.123-1.121-1.123C61.219,60.297,60.717,60.801,60.717,61.421z M59.764,61.42c0-1.146,0.93-2.075,2.074-2.075
				c1.146,0,2.074,0.929,2.074,2.075c0,1.145-0.928,2.073-2.074,2.073C60.693,63.493,59.764,62.564,59.764,61.42z"/>
			<path fill="#C6A687" d="M52.59,62.977c0,0.62,0.504,1.122,1.123,1.122c0.623,0,1.125-0.502,1.125-1.122s-0.504-1.124-1.125-1.124
				C53.094,61.853,52.59,62.356,52.59,62.977 M51.639,62.976c0-1.146,0.928-2.075,2.074-2.075c1.145,0,2.074,0.929,2.074,2.075
				c0,1.146-0.93,2.074-2.074,2.074C52.566,65.05,51.639,64.121,51.639,62.976"/>
			<path fill="#C6A687" d="M52.59,62.977c0,0.62,0.504,1.122,1.123,1.122c0.623,0,1.125-0.502,1.125-1.122s-0.504-1.124-1.125-1.124
				C53.094,61.853,52.59,62.356,52.59,62.977z M51.639,62.976c0-1.146,0.928-2.075,2.074-2.075c1.145,0,2.074,0.929,2.074,2.075
				c0,1.146-0.93,2.074-2.074,2.074C52.566,65.05,51.639,64.121,51.639,62.976z"/>
			<path fill="#C6A687" d="M46.453,21.829c0,0.619,0.504,1.122,1.123,1.122c0.621,0,1.123-0.503,1.123-1.122
				c0-0.621-0.504-1.125-1.123-1.125S46.453,21.208,46.453,21.829 M49.047,58.654c0,0.619,0.502,1.122,1.123,1.122
				c0.619,0,1.121-0.503,1.121-1.122s-0.502-1.124-1.121-1.124C49.549,57.53,49.047,58.035,49.047,58.654 M48.092,58.654
				c0-1.003,0.711-1.838,1.654-2.032V42.53l-2.766-2.766V23.817c-0.857-0.257-1.48-1.05-1.48-1.988c0-1.146,0.928-2.076,2.074-2.076
				c1.145,0,2.074,0.928,2.074,2.076c0,0.993-0.699,1.823-1.631,2.027v15.479l2.766,2.766v14.571
				c0.846,0.263,1.459,1.05,1.459,1.982c0,1.146-0.928,2.073-2.074,2.073S48.092,59.799,48.092,58.654"/>
			<path fill="#C6A687" d="M60.975,32.376c0,0.619,0.506,1.122,1.123,1.122c0.621,0,1.125-0.503,1.125-1.122
				c0-0.621-0.504-1.123-1.125-1.123C61.48,31.253,60.975,31.755,60.975,32.376 M60.023,32.375c0-1.146,0.928-2.075,2.074-2.075
				c1.145,0,2.074,0.929,2.074,2.075s-0.93,2.074-2.074,2.074C60.951,34.448,60.023,33.521,60.023,32.375"/>
			<path fill="#C6A687" d="M60.975,32.376c0,0.619,0.506,1.122,1.123,1.122c0.621,0,1.125-0.503,1.125-1.122
				c0-0.621-0.504-1.123-1.125-1.123C61.48,31.253,60.975,31.755,60.975,32.376z M60.023,32.375c0-1.146,0.928-2.075,2.074-2.075
				c1.145,0,2.074,0.929,2.074,2.075s-0.93,2.074-2.074,2.074C60.951,34.448,60.023,33.521,60.023,32.375z"/>
			<path fill="#C6A687" d="M65.557,24.94c0,0.62,0.502,1.123,1.123,1.123s1.123-0.503,1.123-1.123c0-0.621-0.502-1.123-1.123-1.123
				S65.557,24.319,65.557,24.94 M64.605,24.94c0-1.146,0.928-2.074,2.072-2.074c1.146,0,2.076,0.928,2.076,2.074
				s-0.93,2.074-2.076,2.074C65.535,27.015,64.605,26.085,64.605,24.94"/>
			<path fill="#C6A687" d="M65.557,24.94c0,0.62,0.502,1.123,1.123,1.123s1.123-0.503,1.123-1.123c0-0.621-0.502-1.123-1.123-1.123
				S65.557,24.319,65.557,24.94z M64.605,24.94c0-1.146,0.928-2.074,2.072-2.074c1.146,0,2.076,0.928,2.076,2.074
				s-0.93,2.074-2.076,2.074C65.535,27.015,64.605,26.085,64.605,24.94z"/>
		</g>
	</g>
</g>
</svg>
