<?xml version="1.0" encoding="UTF-8"?>
<svg width="32px" height="32px" viewBox="0 0 32 32" version="1.1" xmlns="http://www.w3.org/2000/svg" xmlns:xlink="http://www.w3.org/1999/xlink">
    <!-- Generator: Sketch 43.1 (39012) - http://www.bohemiancoding.com/sketch -->
    <title>medium</title>
    <desc>Created with Sketch.</desc>
    <defs></defs>
    <g id="Page-1" stroke="none" stroke-width="1" fill="none" fill-rule="evenodd" opacity="0.5">
        <g id="tt_International_new" transform="translate(-230.000000, -553.000000)">
            <g id="medium" transform="translate(231.000000, 554.000000)">
                <polygon id="icon_border" stroke="#FFFFFF" points="0 30 30 30 30 0 0 0"></polygon>
                <path d="M24.2031252,9.79052725 C24.1843752,9.765625 24.1640624,9.74072275 24.1406252,9.71875 C24.1203124,9.69824237 24.1,9.67773438 24.0765624,9.66015625 C24.0218752,9.614746 23.9640624,9.57373038 23.8968752,9.54296875 L19.1109376,7.26953125 L18.8265624,7.13476562 L18.825,7.13476562 C18.7359376,7.09228525 18.6406252,7.0600585 18.54375,7.03808612 C18.4375,7.0131835 18.3281252,7 18.2203124,7 C17.7406252,7 17.2906252,7.23583975 17.04375,7.61376962 L16.3375,8.70507812 L14.23125,11.9541017 L13.0953124,9.87109375 C13.0078124,9.73632812 12.8859376,9.63085938 12.7406252,9.56201163 L7.9359376,7.28271475 C7.9359376,7.28125 7.9343752,7.28125 7.9328124,7.27978525 L7.78125,7.20947275 C7.58125,7.114258 7.375,7.06591788 7.16875,7.06591788 C6.5031252,7.06591788 6,7.57128925 6,8.2421875 L6,18.3876955 C6,18.9414062 6.3796876,19.5229491 6.9046876,19.7719727 L11.2640624,21.8403321 C11.4859376,21.9458009 11.7125,22 11.9390624,22 C12.6703124,22 13.2,21.4609375 13.2,20.7167969 L13.2,17.442871 L22,21.625 L22,21.6206054 L22.3078124,21.7670898 C22.5765624,21.8945312 22.8453124,21.9589844 23.1078124,21.9589844 C23.85625,21.9589844 24.4,21.4360352 24.4,20.7167969 L24.4,10.3134767 C24.4,10.1171875 24.325,9.93847675 24.2031252,9.79052725 Z M12.4,20.7167969 C12.4,21.0507812 12.2093752,21.25 11.9390624,21.25 C11.84375,21.25 11.7375,21.2250977 11.625,21.1723634 L7.2656252,19.1025392 C7.0093752,18.9809571 6.8,18.6586915 6.8,18.3876955 L6.8,8.2421875 C6.8,7.974121 6.9515624,7.81591787 7.16875,7.81591787 C7.2453124,7.81591787 7.33125,7.83496112 7.4203124,7.8774415 L7.5734376,7.9506835 L7.575,7.9506835 L12.3796876,10.2314455 C12.3875,10.2358397 12.39375,10.2431642 12.4,10.2490236 L12.4,20.7167969 Z M17.4343752,8.45605487 L17.7281252,8.00341788 C17.8328124,7.84228525 18.025,7.75 18.2203124,7.75 C18.2656252,7.75 18.3125,7.75585938 18.3578124,7.76757812 C18.3921876,7.77490225 18.4281252,7.786621 18.4656252,7.80419913 L23.5328124,10.2094727 C23.5343752,10.2094727 23.5343752,10.2109375 23.5343752,10.2109375 L23.5390624,10.2124023 C23.5421876,10.2138674 23.5421876,10.2182616 23.5453124,10.2197267 C23.5703124,10.2387696 23.58125,10.270996 23.5640624,10.2973634 L18.5171876,18.0844727 L18.0015624,18.8784179 L14.6578124,12.739258 L17.4343752,8.45605487 Z M13.2,16.6020509 L13.2,11.7109375 L16.7921876,18.3085938 L13.5609376,16.7749023 L13.2,16.6020509 Z M23.6,20.7167969 C23.6,21.0302736 23.4015624,21.2089844 23.1093752,21.2089844 C22.9781252,21.2089844 22.8281252,21.1738281 22.6703124,21.099121 L21.9468752,20.754883 L18.7156252,19.2211915 L23.6,11.6860353 L23.6,20.7167969 Z" fill="#FFFFFF"></path>
            </g>
        </g>
    </g>
</svg>