<?xml version="1.0" encoding="UTF-8"?>
<svg width="32px" height="32px" viewBox="0 0 32 32" version="1.1" xmlns="http://www.w3.org/2000/svg" xmlns:xlink="http://www.w3.org/1999/xlink">
    <!-- Generator: Sketch 43.1 (39012) - http://www.bohemiancoding.com/sketch -->
    <title>telegram</title>
    <desc>Created with Sketch.</desc>
    <defs></defs>
    <g id="Page-1" stroke="none" stroke-width="1" fill="none" fill-rule="evenodd" opacity="0.5">
        <g id="tt_International_new" transform="translate(-180.000000, -553.000000)" stroke="#FFFFFF">
            <g id="telegram" transform="translate(181.000000, 554.000000)">
                <path d="M13.3675082,19.4133443 C13.6011148,19.4099016 13.4565246,17.6644918 13.7363607,16.8077705 C13.8357049,16.5038361 20.3039016,11.0320328 20.0988197,10.8397377 C19.9537377,10.7035082 12.020459,15.1253115 12.1773443,15.5325246 C12.4483279,16.2358033 13.1948852,19.4158033 13.3675082,19.4133443 Z M15.5127541,18.7405574 C14.9098033,19.3277705 14.3127541,19.9051475 13.720623,20.4869508 C13.5135738,20.6905574 13.2809508,20.8031803 12.9839016,20.7874426 C12.7812787,20.776623 12.6676721,20.6876066 12.6057049,20.4953115 C12.1522623,19.0877705 11.6919344,17.6841639 11.2409508,16.2751475 C11.1971803,16.1384262 11.1322623,16.0720328 10.9940656,16.0292459 C9.92537705,15.7031803 8.85914754,15.3692459 7.79488525,15.0308852 C7.63062295,14.9787541 7.46586885,14.9103934 7.32422951,14.814 C7.10537705,14.6659672 7.07340984,14.424 7.26963934,14.2503934 C7.45062295,14.0900656 7.66701639,13.9499016 7.89177049,13.8608852 C9.1975082,13.3435082 10.510623,12.8428525 11.8212787,12.3372787 C15.1478361,11.0531803 18.4743934,9.76957377 21.8014426,8.48547541 C22.4339016,8.24104918 22.9202951,8.58531148 22.8543934,9.26940984 C22.8125902,9.70662295 22.6989836,10.1374426 22.6075082,10.5692459 C21.8850492,13.9799016 21.1620984,17.3910492 20.4361967,20.8012131 C20.2635738,21.6107213 19.6950492,21.8221967 19.0286557,21.3308852 C17.9127541,20.5085902 16.7973443,19.6828525 15.6819344,18.859082 C15.6288197,18.8207213 15.5737377,18.7833443 15.5127541,18.7405574 Z"></path>
                <polygon id="icon_border" points="0.245901639 29.7540984 29.7540984 29.7540984 29.7540984 0.245901639 0.245901639 0.245901639"></polygon>
            </g>
        </g>
    </g>
</svg>