<?xml version="1.0" encoding="UTF-8" standalone="no"?>
<svg width="61px" height="61px" viewBox="0 0 61 61" version="1.1" xmlns="http://www.w3.org/2000/svg" xmlns:xlink="http://www.w3.org/1999/xlink">
    <!-- Generator: Sketch 41.2 (35397) - http://www.bohemiancoding.com/sketch -->
    <title>tw</title>
    <desc>Created with Sketch.</desc>
    <defs></defs>
    <g id="Page-1" stroke="none" stroke-width="1" fill="none" fill-rule="evenodd">
        <g id="tw" stroke="#C7A27A">
            <path d="M47.5947,20.0632 C46.3377,20.6132 44.9867,20.9822 43.5667,21.1492 C45.0167,20.2952 46.1267,18.9432 46.6527,17.3282 C45.2977,18.1212 43.7937,18.6962 42.1957,19.0052 C40.9187,17.6642 39.0957,16.8252 37.0787,16.8252 C33.2047,16.8252 30.0647,19.9172 30.0647,23.7302 C30.0647,24.2712 30.1277,24.7962 30.2447,25.3032 C24.4167,25.0152 19.2467,22.2652 15.7887,18.0882 C15.1857,19.1082 14.8377,20.2942 14.8377,21.5602 C14.8377,23.9542 16.0787,26.0672 17.9587,27.3062 C16.8107,27.2702 15.7277,26.9592 14.7817,26.4432 L14.7817,26.5292 C14.7817,27.4132 14.9537,28.2552 15.2617,29.0312 C16.1187,31.1972 18.0467,32.8322 20.4087,33.3022 C19.8187,33.4572 19.2007,33.5442 18.5587,33.5442 C18.1087,33.5442 17.6697,33.5002 17.2397,33.4182 C18.1347,36.1602 20.7237,38.1582 23.7917,38.2132 C21.3907,40.0662 18.3687,41.1702 15.0807,41.1702 C14.5137,41.1702 13.9567,41.1372 13.4057,41.0732 C16.5117,43.0322 20.2007,44.1752 24.1587,44.1752 C35.1237,44.1752 41.8617,36.5792 43.6387,28.6982 C43.9537,27.3052 44.1157,25.9032 44.1157,24.5302 C44.1157,24.2322 44.1107,23.9332 44.0977,23.6372 C45.4667,22.6642 46.6567,21.4482 47.5947,20.0632 Z" id="Stroke-1"></path>
            <polygon id="Stroke-3" points="0.5 60.5 60.5 60.5 60.5 0.5 0.5 0.5"></polygon>
        </g>
    </g>
</svg>