<?xml version="1.0" encoding="UTF-8"?>
<svg width="32px" height="32px" viewBox="0 0 32 32" version="1.1" xmlns="http://www.w3.org/2000/svg" xmlns:xlink="http://www.w3.org/1999/xlink">
    <!-- Generator: Sketch 43.1 (39012) - http://www.bohemiancoding.com/sketch -->
    <title>twitter</title>
    <desc>Created with Sketch.</desc>
    <defs></defs>
    <g id="Page-1" stroke="none" stroke-width="1" fill="none" fill-rule="evenodd" opacity="0.5">
        <g id="tt_International_new" transform="translate(-130.000000, -553.000000)" stroke="#FFFFFF">
            <g id="twitter" transform="translate(131.000000, 554.000000)">
                <path d="M23.4072295,9.86714754 C22.7890328,10.1376393 22.1246066,10.3191148 21.4262459,10.4012459 C22.1393607,9.9812459 22.6852623,9.31632787 22.9439508,8.52206557 C22.2775574,8.91206557 21.5378852,9.19485246 20.7519836,9.34681967 C20.1239508,8.68731148 19.2273934,8.27468852 18.2354262,8.27468852 C16.3301803,8.27468852 14.785918,9.79534426 14.785918,11.6705902 C14.785918,11.9366557 14.8169016,12.1948525 14.8744426,12.4441967 C12.0082131,12.3025574 9.46559016,10.9500984 7.76493443,8.89583607 C7.46837705,9.39747541 7.29722951,9.9807541 7.29722951,10.603377 C7.29722951,11.7807541 7.90755738,12.8199344 8.83214754,13.4292787 C8.26755738,13.4115738 7.73493443,13.258623 7.26968852,13.0048525 L7.26968852,13.0471475 C7.26968852,13.4819016 7.35427869,13.896 7.5057541,14.2776393 C7.92722951,15.3428852 8.87542623,16.1469836 10.0370656,16.3781311 C9.74690164,16.4543607 9.44296721,16.4971475 9.12722951,16.4971475 C8.90591803,16.4971475 8.69001639,16.4755082 8.47854098,16.4351803 C8.91870492,17.7837049 10.1919836,18.7663279 11.7008361,18.793377 C10.5200164,19.7046885 9.03378689,20.2476393 7.4167377,20.2476393 C7.13788525,20.2476393 6.86395082,20.2314098 6.59296721,20.1999344 C8.1205082,21.163377 9.93477049,21.7255082 11.8813279,21.7255082 C17.2739508,21.7255082 20.5877213,17.9897705 21.4616557,14.1138689 C21.6165738,13.4287869 21.6962459,12.7392787 21.6962459,12.0640328 C21.6962459,11.9174754 21.6937869,11.7704262 21.6873934,11.6248525 C22.3606721,11.1463279 22.945918,10.5482951 23.4072295,9.86714754 Z"></path>
                <polygon id="icon-border" points="0.245901639 29.7540984 29.7540984 29.7540984 29.7540984 0.245901639 0.245901639 0.245901639"></polygon>
            </g>
        </g>
    </g>
</svg>